G04 Layer_Color=2752767*
%FSLAX43Y43*%
%MOMM*%
G71*
G01*
G75*
%ADD10C,0.300*%
%ADD80C,0.051*%
%ADD81C,0.068*%
D10*
X0Y0D02*
Y92000D01*
X80000D01*
Y0D02*
Y92000D01*
X0Y0D02*
X80000D01*
D80*
X52877Y34777D02*
Y35183D01*
X53283D01*
Y34777D01*
X52877D01*
X73197D02*
Y35183D01*
X73603D01*
Y34777D01*
X73197D01*
X63037Y80497D02*
Y80903D01*
X63443D01*
Y80497D01*
X63037D01*
X65577D02*
Y80903D01*
X65983D01*
Y80497D01*
X65577D01*
X68117D02*
Y80903D01*
X68523D01*
Y80497D01*
X68117D01*
X70657D02*
Y80903D01*
X71063D01*
Y80497D01*
X70657D01*
X60497D02*
Y80903D01*
X60903D01*
Y80497D01*
X60497D01*
X57957D02*
Y80903D01*
X58363D01*
Y80497D01*
X57957D01*
X55417D02*
Y80903D01*
X55823D01*
Y80497D01*
X55417D01*
X69950Y85797D02*
X69747Y86203D01*
X70153D01*
X69950Y85797D01*
X9950D02*
X9747Y86203D01*
X10153D01*
X9950Y85797D01*
Y5797D02*
X9747Y6203D01*
X10153D01*
X9950Y5797D01*
X69950D02*
X69747Y6203D01*
X70153D01*
X69950Y5797D01*
X5650Y88497D02*
X5447Y88903D01*
X5853D01*
X5650Y88497D01*
X74250D02*
X74047Y88903D01*
X74453D01*
X74250Y88497D01*
X5650Y2997D02*
X5447Y3403D01*
X5853D01*
X5650Y2997D01*
X74250D02*
X74047Y3403D01*
X74453D01*
X74250Y2997D01*
X76589Y32593D02*
X76691Y32694D01*
X76792D01*
X76691Y32796D01*
X76792Y32898D01*
X76691D01*
X76589Y32999D01*
X76487Y32898D01*
X76386D01*
X76487Y32796D01*
X76386Y32694D01*
X76487D01*
X76589Y32593D01*
X55761D02*
X55863Y32694D01*
X55964D01*
X55863Y32796D01*
X55964Y32898D01*
X55863D01*
X55761Y32999D01*
X55659Y32898D01*
X55558D01*
X55659Y32796D01*
X55558Y32694D01*
X55659D01*
X55761Y32593D01*
Y76281D02*
X55863Y76382D01*
X55964D01*
X55863Y76484D01*
X55964Y76586D01*
X55863D01*
X55761Y76687D01*
X55659Y76586D01*
X55558D01*
X55659Y76484D01*
X55558Y76382D01*
X55659D01*
X55761Y76281D01*
X76589D02*
X76691Y76382D01*
X76792D01*
X76691Y76484D01*
X76792Y76586D01*
X76691D01*
X76589Y76687D01*
X76487Y76586D01*
X76386D01*
X76487Y76484D01*
X76386Y76382D01*
X76487D01*
X76589Y76281D01*
X54547Y59517D02*
X54648Y59720D01*
X54547Y59923D01*
X54750Y59822D01*
X54953Y59923D01*
X54852Y59720D01*
X54953Y59517D01*
X54750Y59618D01*
X54547Y59517D01*
Y62057D02*
X54648Y62260D01*
X54547Y62463D01*
X54750Y62362D01*
X54953Y62463D01*
X54852Y62260D01*
X54953Y62057D01*
X54750Y62158D01*
X54547Y62057D01*
Y64597D02*
X54648Y64800D01*
X54547Y65003D01*
X54750Y64902D01*
X54953Y65003D01*
X54852Y64800D01*
X54953Y64597D01*
X54750Y64698D01*
X54547Y64597D01*
Y67137D02*
X54648Y67340D01*
X54547Y67543D01*
X54750Y67442D01*
X54953Y67543D01*
X54852Y67340D01*
X54953Y67137D01*
X54750Y67238D01*
X54547Y67137D01*
Y69677D02*
X54648Y69880D01*
X54547Y70083D01*
X54750Y69982D01*
X54953Y70083D01*
X54852Y69880D01*
X54953Y69677D01*
X54750Y69778D01*
X54547Y69677D01*
Y72217D02*
X54648Y72420D01*
X54547Y72623D01*
X54750Y72522D01*
X54953Y72623D01*
X54852Y72420D01*
X54953Y72217D01*
X54750Y72318D01*
X54547Y72217D01*
Y56977D02*
X54648Y57180D01*
X54547Y57383D01*
X54750Y57282D01*
X54953Y57383D01*
X54852Y57180D01*
X54953Y56977D01*
X54750Y57078D01*
X54547Y56977D01*
Y54437D02*
X54648Y54640D01*
X54547Y54843D01*
X54750Y54742D01*
X54953Y54843D01*
X54852Y54640D01*
X54953Y54437D01*
X54750Y54538D01*
X54547Y54437D01*
Y51897D02*
X54648Y52100D01*
X54547Y52303D01*
X54750Y52202D01*
X54953Y52303D01*
X54852Y52100D01*
X54953Y51897D01*
X54750Y51998D01*
X54547Y51897D01*
Y49357D02*
X54648Y49560D01*
X54547Y49763D01*
X54750Y49662D01*
X54953Y49763D01*
X54852Y49560D01*
X54953Y49357D01*
X54750Y49458D01*
X54547Y49357D01*
Y39197D02*
X54648Y39400D01*
X54547Y39603D01*
X54750Y39502D01*
X54953Y39603D01*
X54852Y39400D01*
X54953Y39197D01*
X54750Y39298D01*
X54547Y39197D01*
Y41737D02*
X54648Y41940D01*
X54547Y42143D01*
X54750Y42042D01*
X54953Y42143D01*
X54852Y41940D01*
X54953Y41737D01*
X54750Y41838D01*
X54547Y41737D01*
Y44277D02*
X54648Y44480D01*
X54547Y44683D01*
X54750Y44582D01*
X54953Y44683D01*
X54852Y44480D01*
X54953Y44277D01*
X54750Y44378D01*
X54547Y44277D01*
Y46817D02*
X54648Y47020D01*
X54547Y47223D01*
X54750Y47122D01*
X54953Y47223D01*
X54852Y47020D01*
X54953Y46817D01*
X54750Y46918D01*
X54547Y46817D01*
Y36657D02*
X54648Y36860D01*
X54547Y37063D01*
X54750Y36962D01*
X54953Y37063D01*
X54852Y36860D01*
X54953Y36657D01*
X54750Y36758D01*
X54547Y36657D01*
X77397Y59517D02*
X77498Y59720D01*
X77397Y59923D01*
X77600Y59822D01*
X77803Y59923D01*
X77702Y59720D01*
X77803Y59517D01*
X77600Y59618D01*
X77397Y59517D01*
Y62057D02*
X77498Y62260D01*
X77397Y62463D01*
X77600Y62362D01*
X77803Y62463D01*
X77702Y62260D01*
X77803Y62057D01*
X77600Y62158D01*
X77397Y62057D01*
Y64597D02*
X77498Y64800D01*
X77397Y65003D01*
X77600Y64902D01*
X77803Y65003D01*
X77702Y64800D01*
X77803Y64597D01*
X77600Y64698D01*
X77397Y64597D01*
Y67137D02*
X77498Y67340D01*
X77397Y67543D01*
X77600Y67442D01*
X77803Y67543D01*
X77702Y67340D01*
X77803Y67137D01*
X77600Y67238D01*
X77397Y67137D01*
Y69677D02*
X77498Y69880D01*
X77397Y70083D01*
X77600Y69982D01*
X77803Y70083D01*
X77702Y69880D01*
X77803Y69677D01*
X77600Y69778D01*
X77397Y69677D01*
Y72217D02*
X77498Y72420D01*
X77397Y72623D01*
X77600Y72522D01*
X77803Y72623D01*
X77702Y72420D01*
X77803Y72217D01*
X77600Y72318D01*
X77397Y72217D01*
Y56977D02*
X77498Y57180D01*
X77397Y57383D01*
X77600Y57282D01*
X77803Y57383D01*
X77702Y57180D01*
X77803Y56977D01*
X77600Y57078D01*
X77397Y56977D01*
Y54437D02*
X77498Y54640D01*
X77397Y54843D01*
X77600Y54742D01*
X77803Y54843D01*
X77702Y54640D01*
X77803Y54437D01*
X77600Y54538D01*
X77397Y54437D01*
Y51897D02*
X77498Y52100D01*
X77397Y52303D01*
X77600Y52202D01*
X77803Y52303D01*
X77702Y52100D01*
X77803Y51897D01*
X77600Y51998D01*
X77397Y51897D01*
Y49357D02*
X77498Y49560D01*
X77397Y49763D01*
X77600Y49662D01*
X77803Y49763D01*
X77702Y49560D01*
X77803Y49357D01*
X77600Y49458D01*
X77397Y49357D01*
Y39197D02*
X77498Y39400D01*
X77397Y39603D01*
X77600Y39502D01*
X77803Y39603D01*
X77702Y39400D01*
X77803Y39197D01*
X77600Y39298D01*
X77397Y39197D01*
Y41737D02*
X77498Y41940D01*
X77397Y42143D01*
X77600Y42042D01*
X77803Y42143D01*
X77702Y41940D01*
X77803Y41737D01*
X77600Y41838D01*
X77397Y41737D01*
Y44277D02*
X77498Y44480D01*
X77397Y44683D01*
X77600Y44582D01*
X77803Y44683D01*
X77702Y44480D01*
X77803Y44277D01*
X77600Y44378D01*
X77397Y44277D01*
Y46817D02*
X77498Y47020D01*
X77397Y47223D01*
X77600Y47122D01*
X77803Y47223D01*
X77702Y47020D01*
X77803Y46817D01*
X77600Y46918D01*
X77397Y46817D01*
Y36657D02*
X77498Y36860D01*
X77397Y37063D01*
X77600Y36962D01*
X77803Y37063D01*
X77702Y36860D01*
X77803Y36657D01*
X77600Y36758D01*
X77397Y36657D01*
X3398Y28698D02*
Y28597D01*
X3602D01*
Y28698D01*
X3703D01*
Y28902D01*
X3602D01*
Y29003D01*
X3398D01*
Y28902D01*
X3297D01*
Y28698D01*
X3398D01*
X6898D02*
Y28597D01*
X7102D01*
Y28698D01*
X7203D01*
Y28902D01*
X7102D01*
Y29003D01*
X6898D01*
Y28902D01*
X6797D01*
Y28698D01*
X6898D01*
X10398D02*
Y28597D01*
X10602D01*
Y28698D01*
X10703D01*
Y28902D01*
X10602D01*
Y29003D01*
X10398D01*
Y28902D01*
X10297D01*
Y28698D01*
X10398D01*
X13898D02*
Y28597D01*
X14102D01*
Y28698D01*
X14203D01*
Y28902D01*
X14102D01*
Y29003D01*
X13898D01*
Y28902D01*
X13797D01*
Y28698D01*
X13898D01*
X17398D02*
Y28597D01*
X17602D01*
Y28698D01*
X17703D01*
Y28902D01*
X17602D01*
Y29003D01*
X17398D01*
Y28902D01*
X17297D01*
Y28698D01*
X17398D01*
X20898D02*
Y28597D01*
X21102D01*
Y28698D01*
X21203D01*
Y28902D01*
X21102D01*
Y29003D01*
X20898D01*
Y28902D01*
X20797D01*
Y28698D01*
X20898D01*
X31398Y28698D02*
Y28597D01*
X31602D01*
Y28698D01*
X31703D01*
Y28902D01*
X31602D01*
Y29003D01*
X31398D01*
Y28902D01*
X31297D01*
Y28698D01*
X31398D01*
X34898D02*
Y28597D01*
X35102D01*
Y28698D01*
X35203D01*
Y28902D01*
X35102D01*
Y29003D01*
X34898D01*
Y28902D01*
X34797D01*
Y28698D01*
X34898D01*
X27677Y63137D02*
Y63543D01*
X28083D01*
Y63137D01*
X27677D01*
Y60597D02*
Y61003D01*
X28083D01*
Y60597D01*
X27677D01*
Y58057D02*
Y58463D01*
X28083D01*
Y58057D01*
X27677D01*
Y55517D02*
Y55923D01*
X28083D01*
Y55517D01*
X27677D01*
Y52977D02*
Y53383D01*
X28083D01*
Y52977D01*
X27677D01*
Y50437D02*
Y50843D01*
X28083D01*
Y50437D01*
X27677D01*
Y47897D02*
Y48303D01*
X28083D01*
Y47897D01*
X27677D01*
Y45357D02*
Y45763D01*
X28083D01*
Y45357D01*
X27677D01*
Y42817D02*
Y43223D01*
X28083D01*
Y42817D01*
X27677D01*
X35297Y63137D02*
Y63543D01*
X35703D01*
Y63137D01*
X35297D01*
Y60597D02*
Y61003D01*
X35703D01*
Y60597D01*
X35297D01*
Y58057D02*
Y58463D01*
X35703D01*
Y58057D01*
X35297D01*
Y55517D02*
Y55923D01*
X35703D01*
Y55517D01*
X35297D01*
Y52977D02*
Y53383D01*
X35703D01*
Y52977D01*
X35297D01*
Y50437D02*
Y50843D01*
X35703D01*
Y50437D01*
X35297D01*
Y47897D02*
Y48303D01*
X35703D01*
Y47897D01*
X35297D01*
Y45357D02*
Y45763D01*
X35703D01*
Y45357D01*
X35297D01*
X35387Y42577D02*
Y42983D01*
X35793D01*
Y42577D01*
X35387D01*
X40497Y55337D02*
Y55743D01*
X40903D01*
Y55337D01*
X40497D01*
Y52797D02*
Y53203D01*
X40903D01*
Y52797D01*
X40497D01*
Y50257D02*
Y50663D01*
X40903D01*
Y50257D01*
X40497D01*
Y57877D02*
Y58283D01*
X40903D01*
Y57877D01*
X40497D01*
Y45177D02*
Y45583D01*
X40903D01*
Y45177D01*
X40497D01*
Y47717D02*
Y48123D01*
X40903D01*
Y47717D01*
X40497D01*
X43197Y41897D02*
Y42303D01*
X43603D01*
Y41897D01*
X43197D01*
Y44437D02*
Y44843D01*
X43603D01*
Y44437D01*
X43197D01*
Y46977D02*
Y47383D01*
X43603D01*
Y46977D01*
X43197D01*
Y39357D02*
Y39763D01*
X43603D01*
Y39357D01*
X43197D01*
Y52057D02*
Y52463D01*
X43603D01*
Y52057D01*
X43197D01*
Y49517D02*
Y49923D01*
X43603D01*
Y49517D01*
X43197D01*
X45897Y41897D02*
Y42303D01*
X46303D01*
Y41897D01*
X45897D01*
Y44437D02*
Y44843D01*
X46303D01*
Y44437D01*
X45897D01*
Y46977D02*
Y47383D01*
X46303D01*
Y46977D01*
X45897D01*
Y39357D02*
Y39763D01*
X46303D01*
Y39357D01*
X45897D01*
Y52057D02*
Y52463D01*
X46303D01*
Y52057D01*
X45897D01*
Y49517D02*
Y49923D01*
X46303D01*
Y49517D01*
X45897D01*
X45398Y28698D02*
Y28597D01*
X45602D01*
Y28698D01*
X45703D01*
Y28902D01*
X45602D01*
Y29003D01*
X45398D01*
Y28902D01*
X45297D01*
Y28698D01*
X45398D01*
X48898D02*
Y28597D01*
X49102D01*
Y28698D01*
X49203D01*
Y28902D01*
X49102D01*
Y29003D01*
X48898D01*
Y28902D01*
X48797D01*
Y28698D01*
X48898D01*
X24398D02*
Y28597D01*
X24602D01*
Y28698D01*
X24703D01*
Y28902D01*
X24602D01*
Y29003D01*
X24398D01*
Y28902D01*
X24297D01*
Y28698D01*
X24398D01*
X27898D02*
Y28597D01*
X28102D01*
Y28698D01*
X28203D01*
Y28902D01*
X28102D01*
Y29003D01*
X27898D01*
Y28902D01*
X27797D01*
Y28698D01*
X27898D01*
X38398D02*
Y28597D01*
X38602D01*
Y28698D01*
X38703D01*
Y28902D01*
X38602D01*
Y29003D01*
X38398D01*
Y28902D01*
X38297D01*
Y28698D01*
X38398D01*
X41898D02*
Y28597D01*
X42102D01*
Y28698D01*
X42203D01*
Y28902D01*
X42102D01*
Y29003D01*
X41898D01*
Y28902D01*
X41797D01*
Y28698D01*
X41898D01*
X77097Y11197D02*
X77198D01*
X77300Y11298D01*
X77402Y11197D01*
X77503D01*
Y11298D01*
X77402Y11400D01*
X77503Y11502D01*
Y11603D01*
X77402D01*
X77300Y11502D01*
X77198Y11603D01*
X77097D01*
Y11502D01*
X77198Y11400D01*
X77097Y11298D01*
Y11197D01*
Y13737D02*
X77198D01*
X77300Y13838D01*
X77402Y13737D01*
X77503D01*
Y13838D01*
X77402Y13940D01*
X77503Y14042D01*
Y14143D01*
X77402D01*
X77300Y14042D01*
X77198Y14143D01*
X77097D01*
Y14042D01*
X77198Y13940D01*
X77097Y13838D01*
Y13737D01*
Y15597D02*
X77198D01*
X77300Y15698D01*
X77402Y15597D01*
X77503D01*
Y15698D01*
X77402Y15800D01*
X77503Y15902D01*
Y16003D01*
X77402D01*
X77300Y15902D01*
X77198Y16003D01*
X77097D01*
Y15902D01*
X77198Y15800D01*
X77097Y15698D01*
Y15597D01*
Y18137D02*
X77198D01*
X77300Y18238D01*
X77402Y18137D01*
X77503D01*
Y18238D01*
X77402Y18340D01*
X77503Y18442D01*
Y18543D01*
X77402D01*
X77300Y18442D01*
X77198Y18543D01*
X77097D01*
Y18442D01*
X77198Y18340D01*
X77097Y18238D01*
Y18137D01*
Y19997D02*
X77198D01*
X77300Y20098D01*
X77402Y19997D01*
X77503D01*
Y20098D01*
X77402Y20200D01*
X77503Y20302D01*
Y20403D01*
X77402D01*
X77300Y20302D01*
X77198Y20403D01*
X77097D01*
Y20302D01*
X77198Y20200D01*
X77097Y20098D01*
Y19997D01*
Y22537D02*
X77198D01*
X77300Y22638D01*
X77402Y22537D01*
X77503D01*
Y22638D01*
X77402Y22740D01*
X77503Y22842D01*
Y22943D01*
X77402D01*
X77300Y22842D01*
X77198Y22943D01*
X77097D01*
Y22842D01*
X77198Y22740D01*
X77097Y22638D01*
Y22537D01*
Y24397D02*
X77198D01*
X77300Y24498D01*
X77402Y24397D01*
X77503D01*
Y24498D01*
X77402Y24600D01*
X77503Y24702D01*
Y24803D01*
X77402D01*
X77300Y24702D01*
X77198Y24803D01*
X77097D01*
Y24702D01*
X77198Y24600D01*
X77097Y24498D01*
Y24397D01*
Y26937D02*
X77198D01*
X77300Y27038D01*
X77402Y26937D01*
X77503D01*
Y27038D01*
X77402Y27140D01*
X77503Y27242D01*
Y27343D01*
X77402D01*
X77300Y27242D01*
X77198Y27343D01*
X77097D01*
Y27242D01*
X77198Y27140D01*
X77097Y27038D01*
Y26937D01*
X43897Y73600D02*
X44100Y73803D01*
X44303Y73600D01*
X44100Y73397D01*
X43897Y73600D01*
X32797Y77800D02*
X33000Y78003D01*
X33203Y77800D01*
X33000Y77597D01*
X32797Y77800D01*
X31897D02*
X32100Y78003D01*
X32303Y77800D01*
X32100Y77597D01*
X31897Y77800D01*
X30997D02*
X31200Y78003D01*
X31403Y77800D01*
X31200Y77597D01*
X30997Y77800D01*
X8497Y59175D02*
X8700Y59378D01*
X8903Y59175D01*
X8700Y58972D01*
X8497Y59175D01*
X14297Y77325D02*
X14500Y77528D01*
X14703Y77325D01*
X14500Y77122D01*
X14297Y77325D01*
X31297Y74900D02*
X31500Y75103D01*
X31703Y74900D01*
X31500Y74697D01*
X31297Y74900D01*
X32172D02*
X32375Y75103D01*
X32578Y74900D01*
X32375Y74697D01*
X32172Y74900D01*
X29147Y83450D02*
X29350Y83653D01*
X29553Y83450D01*
X29350Y83247D01*
X29147Y83450D01*
Y82525D02*
X29350Y82728D01*
X29553Y82525D01*
X29350Y82322D01*
X29147Y82525D01*
X39972Y74775D02*
X40175Y74978D01*
X40378Y74775D01*
X40175Y74572D01*
X39972Y74775D01*
X51397Y65900D02*
X51600Y66103D01*
X51803Y65900D01*
X51600Y65697D01*
X51397Y65900D01*
X52797Y68500D02*
X53000Y68703D01*
X53203Y68500D01*
X53000Y68297D01*
X52797Y68500D01*
X48497Y51600D02*
X48700Y51803D01*
X48903Y51600D01*
X48700Y51397D01*
X48497Y51600D01*
X47297Y79600D02*
X47500Y79803D01*
X47703Y79600D01*
X47500Y79397D01*
X47297Y79600D01*
X46297D02*
X46500Y79803D01*
X46703Y79600D01*
X46500Y79397D01*
X46297Y79600D01*
X50097Y78100D02*
X50300Y78303D01*
X50503Y78100D01*
X50300Y77897D01*
X50097Y78100D01*
X48297Y79600D02*
X48500Y79803D01*
X48703Y79600D01*
X48500Y79397D01*
X48297Y79600D01*
X14297Y72700D02*
X14500Y72903D01*
X14703Y72700D01*
X14500Y72497D01*
X14297Y72700D01*
X14497Y70400D02*
X14700Y70603D01*
X14903Y70400D01*
X14700Y70197D01*
X14497Y70400D01*
X12622Y75200D02*
X12825Y75403D01*
X13028Y75200D01*
X12825Y74997D01*
X12622Y75200D01*
X13697Y70400D02*
X13900Y70603D01*
X14103Y70400D01*
X13900Y70197D01*
X13697Y70400D01*
X12897D02*
X13100Y70603D01*
X13303Y70400D01*
X13100Y70197D01*
X12897Y70400D01*
X50697Y58100D02*
X50900Y58303D01*
X51103Y58100D01*
X50900Y57897D01*
X50697Y58100D01*
X21297Y66800D02*
X21500Y67003D01*
X21703Y66800D01*
X21500Y66597D01*
X21297Y66800D01*
Y64500D02*
X21500Y64703D01*
X21703Y64500D01*
X21500Y64297D01*
X21297Y64500D01*
X17297Y57900D02*
X17500Y58103D01*
X17703Y57900D01*
X17500Y57697D01*
X17297Y57900D01*
X19297D02*
X19500Y58103D01*
X19703Y57900D01*
X19500Y57697D01*
X19297Y57900D01*
X48997Y35600D02*
X49200Y35803D01*
X49403Y35600D01*
X49200Y35397D01*
X48997Y35600D01*
X47197D02*
X47400Y35803D01*
X47603Y35600D01*
X47400Y35397D01*
X47197Y35600D01*
X50697Y34100D02*
X50900Y34303D01*
X51103Y34100D01*
X50900Y33897D01*
X50697Y34100D01*
X19897Y50100D02*
X20100Y50303D01*
X20303Y50100D01*
X20100Y49897D01*
X19897Y50100D01*
X5047Y54875D02*
X5250Y55078D01*
X5453Y54875D01*
X5250Y54672D01*
X5047Y54875D01*
X40197Y62800D02*
X40400Y63003D01*
X40603Y62800D01*
X40400Y62597D01*
X40197Y62800D01*
X38097Y52300D02*
X38300Y52503D01*
X38503Y52300D01*
X38300Y52097D01*
X38097Y52300D01*
X10697Y76100D02*
X10900Y76303D01*
X11103Y76100D01*
X10900Y75897D01*
X10697Y76100D01*
X46097Y54100D02*
X46300Y54303D01*
X46503Y54100D01*
X46300Y53897D01*
X46097Y54100D01*
X42897Y64300D02*
X43100Y64503D01*
X43303Y64300D01*
X43100Y64097D01*
X42897Y64300D01*
X57097Y55900D02*
X57300Y56103D01*
X57503Y55900D01*
X57300Y55697D01*
X57097Y55900D01*
X16697Y79600D02*
X16900Y79803D01*
X17103Y79600D01*
X16900Y79397D01*
X16697Y79600D01*
Y78100D02*
X16900Y78303D01*
X17103Y78100D01*
X16900Y77897D01*
X16697Y78100D01*
X27597Y76900D02*
X27800Y77103D01*
X28003Y76900D01*
X27800Y76697D01*
X27597Y76900D01*
X48097Y35600D02*
X48300Y35803D01*
X48503Y35600D01*
X48300Y35397D01*
X48097Y35600D01*
X49422Y41050D02*
X49625Y41253D01*
X49828Y41050D01*
X49625Y40847D01*
X49422Y41050D01*
X42297Y35100D02*
X42500Y35303D01*
X42703Y35100D01*
X42500Y34897D01*
X42297Y35100D01*
X39897D02*
X40100Y35303D01*
X40303Y35100D01*
X40100Y34897D01*
X39897Y35100D01*
X38272Y39075D02*
X38475Y39278D01*
X38678Y39075D01*
X38475Y38872D01*
X38272Y39075D01*
X27197Y39450D02*
X27400Y39653D01*
X27603Y39450D01*
X27400Y39247D01*
X27197Y39450D01*
X20947Y60975D02*
X21150Y61178D01*
X21353Y60975D01*
X21150Y60772D01*
X20947Y60975D01*
Y58800D02*
X21150Y59003D01*
X21353Y58800D01*
X21150Y58597D01*
X20947Y58800D01*
X5872Y64400D02*
X6075Y64603D01*
X6278Y64400D01*
X6075Y64197D01*
X5872Y64400D01*
X5372Y60575D02*
X5575Y60778D01*
X5778Y60575D01*
X5575Y60372D01*
X5372Y60575D01*
D81*
X52203Y7000D02*
G03*
X52203Y7000I-203J0D01*
G01*
X42203D02*
G03*
X42203Y7000I-203J0D01*
G01*
X32203D02*
G03*
X32203Y7000I-203J0D01*
G01*
X22203D02*
G03*
X22203Y7000I-203J0D01*
G01*
M02*
