G04 Layer_Color=8388736*
%FSLAX43Y43*%
%MOMM*%
G71*
G01*
G75*
%ADD10C,0.300*%
%ADD51R,1.700X2.800*%
%ADD52R,1.700X1.500*%
%ADD53R,2.800X1.700*%
%ADD54R,1.500X1.700*%
%ADD55R,1.400X3.200*%
%ADD56R,1.800X2.900*%
%ADD57R,2.900X1.800*%
%ADD58R,1.400X1.110*%
%ADD59R,4.200X1.900*%
%ADD60R,0.750X1.650*%
%ADD61R,0.750X1.650*%
%ADD62R,1.300X1.800*%
%ADD63R,1.110X1.400*%
%ADD64R,1.900X4.200*%
%ADD65R,1.500X1.050*%
%ADD66R,1.050X1.500*%
%ADD67O,2.500X0.800*%
%ADD68R,1.800X1.100*%
%ADD69R,1.650X0.750*%
%ADD70R,1.650X0.750*%
%ADD71C,1.724*%
%ADD72C,0.200*%
%ADD73C,2.000*%
%ADD74R,2.000X2.000*%
%ADD75C,2.400*%
%ADD76R,1.700X1.700*%
%ADD77C,1.700*%
%ADD78R,1.700X1.700*%
G04:AMPARAMS|DCode=79|XSize=1.56mm|YSize=2.8mm|CornerRadius=0.644mm|HoleSize=0mm|Usage=FLASHONLY|Rotation=90.000|XOffset=0mm|YOffset=0mm|HoleType=Round|Shape=RoundedRectangle|*
%AMROUNDEDRECTD79*
21,1,1.560,1.512,0,0,90.0*
21,1,0.272,2.800,0,0,90.0*
1,1,1.288,0.756,0.136*
1,1,1.288,0.756,-0.136*
1,1,1.288,-0.756,-0.136*
1,1,1.288,-0.756,0.136*
%
%ADD79ROUNDEDRECTD79*%
D10*
X0Y0D02*
Y92000D01*
X80000D01*
Y0D02*
Y92000D01*
X0Y0D02*
X80000D01*
D51*
X24500Y32000D02*
D03*
X27500D02*
D03*
X38500D02*
D03*
X41500D02*
D03*
X31500D02*
D03*
X34500D02*
D03*
X45500D02*
D03*
X48500D02*
D03*
D52*
X38400Y46850D02*
D03*
Y44950D02*
D03*
X21600Y46850D02*
D03*
Y44950D02*
D03*
X16850Y69500D02*
D03*
Y71400D02*
D03*
X19125Y69500D02*
D03*
Y71400D02*
D03*
X15850Y75900D02*
D03*
Y74000D02*
D03*
X50900Y35150D02*
D03*
Y37050D02*
D03*
X38400Y53350D02*
D03*
Y55250D02*
D03*
X17300Y65500D02*
D03*
Y67400D02*
D03*
X43200Y57350D02*
D03*
Y59250D02*
D03*
X33000Y84050D02*
D03*
Y82150D02*
D03*
X6075Y68475D02*
D03*
Y66575D02*
D03*
X43200Y63150D02*
D03*
Y61250D02*
D03*
X50300Y79250D02*
D03*
Y81150D02*
D03*
D53*
X38900Y40100D02*
D03*
Y43100D02*
D03*
X24400Y40100D02*
D03*
Y43100D02*
D03*
D54*
X24450Y34700D02*
D03*
X22550D02*
D03*
X45450D02*
D03*
X43550D02*
D03*
X38450D02*
D03*
X36550D02*
D03*
X31450D02*
D03*
X29550D02*
D03*
X36850Y71950D02*
D03*
X38750D02*
D03*
X21475Y65675D02*
D03*
X19575D02*
D03*
X44750Y81100D02*
D03*
X42850D02*
D03*
X48350Y39700D02*
D03*
X50250D02*
D03*
X43050Y55200D02*
D03*
X44950D02*
D03*
X44150Y69900D02*
D03*
X46050D02*
D03*
X46250Y67500D02*
D03*
X48150D02*
D03*
X50050Y69900D02*
D03*
X48150D02*
D03*
X48150Y72400D02*
D03*
X50050D02*
D03*
X44150D02*
D03*
X46050D02*
D03*
X48150Y74900D02*
D03*
X50050D02*
D03*
X50050Y58960D02*
D03*
X48150D02*
D03*
X48150Y50075D02*
D03*
X50050D02*
D03*
X50050Y64400D02*
D03*
X48150D02*
D03*
X50050Y61680D02*
D03*
X48150D02*
D03*
X48150Y56240D02*
D03*
X50050D02*
D03*
X10550Y49700D02*
D03*
X8650D02*
D03*
X7550Y56175D02*
D03*
X9450D02*
D03*
X19050Y52200D02*
D03*
X17150D02*
D03*
X11750Y56175D02*
D03*
X13650D02*
D03*
X5250D02*
D03*
X3350D02*
D03*
X13700Y62375D02*
D03*
X11800D02*
D03*
X3250D02*
D03*
X5150D02*
D03*
X12950Y45300D02*
D03*
X14850D02*
D03*
X7550Y62375D02*
D03*
X9450D02*
D03*
X14850Y43000D02*
D03*
X12950D02*
D03*
X38850Y63900D02*
D03*
X40750D02*
D03*
X38700Y80050D02*
D03*
X36800D02*
D03*
X34700D02*
D03*
X32800D02*
D03*
X36800Y77750D02*
D03*
X38700D02*
D03*
D55*
X17800Y83650D02*
D03*
Y78650D02*
D03*
X28350Y83650D02*
D03*
Y78650D02*
D03*
X18500Y62400D02*
D03*
Y57400D02*
D03*
D56*
X10000Y78900D02*
D03*
X12800D02*
D03*
X4800Y33900D02*
D03*
X2000D02*
D03*
D57*
X14075Y71525D02*
D03*
Y68725D02*
D03*
X47500Y81200D02*
D03*
Y78400D02*
D03*
X48400Y37300D02*
D03*
Y34500D02*
D03*
X28825Y72975D02*
D03*
Y75775D02*
D03*
X32150Y73750D02*
D03*
Y76550D02*
D03*
X9000Y66000D02*
D03*
Y68800D02*
D03*
D58*
X11650Y68390D02*
D03*
Y71660D02*
D03*
X5900Y49335D02*
D03*
Y46065D02*
D03*
X9800Y42235D02*
D03*
Y38965D02*
D03*
X34700Y72565D02*
D03*
Y75835D02*
D03*
X3700Y68835D02*
D03*
Y65565D02*
D03*
D59*
X8300Y76025D02*
D03*
Y72025D02*
D03*
D60*
X11875Y74000D02*
D03*
D61*
X12825Y74000D02*
D03*
X13775D02*
D03*
Y76150D02*
D03*
X11875D02*
D03*
D62*
X7100Y43450D02*
D03*
Y37950D02*
D03*
X4500D02*
D03*
Y43450D02*
D03*
D63*
X9235Y52200D02*
D03*
X5965D02*
D03*
D64*
X34925Y69400D02*
D03*
X30925D02*
D03*
D65*
X50100Y52250D02*
D03*
X50100Y54150D02*
D03*
X47900Y53200D02*
D03*
X8500Y46950D02*
D03*
X8500Y45050D02*
D03*
X10700Y46000D02*
D03*
D66*
X11200Y60375D02*
D03*
X9300Y60375D02*
D03*
X10250Y58175D02*
D03*
X6100Y58175D02*
D03*
X8000Y58175D02*
D03*
X7050Y60375D02*
D03*
X14350Y60375D02*
D03*
X12450Y60375D02*
D03*
X13400Y58175D02*
D03*
X2900Y58175D02*
D03*
X4800Y58175D02*
D03*
X3850Y60375D02*
D03*
D67*
X23700Y58590D02*
D03*
Y57320D02*
D03*
Y56050D02*
D03*
Y54780D02*
D03*
Y53510D02*
D03*
Y52240D02*
D03*
Y50970D02*
D03*
Y49700D02*
D03*
Y48430D02*
D03*
X32800Y58590D02*
D03*
Y57320D02*
D03*
Y56050D02*
D03*
Y54780D02*
D03*
Y53510D02*
D03*
Y52240D02*
D03*
Y50970D02*
D03*
Y49700D02*
D03*
Y48430D02*
D03*
D68*
X12725Y47475D02*
D03*
X18925D02*
D03*
Y50075D02*
D03*
X12725D02*
D03*
X18875Y40825D02*
D03*
X12675D02*
D03*
Y38225D02*
D03*
X18875D02*
D03*
D69*
X38925Y73800D02*
D03*
D70*
X38925Y74750D02*
D03*
Y75700D02*
D03*
X36775D02*
D03*
Y74750D02*
D03*
Y73800D02*
D03*
D71*
X53080Y34980D02*
D03*
X73400D02*
D03*
X63240Y80700D02*
D03*
X65780D02*
D03*
X68320D02*
D03*
X70860D02*
D03*
X60700D02*
D03*
X58160D02*
D03*
X55620D02*
D03*
D72*
X52000Y7000D02*
D03*
X42000D02*
D03*
X32000D02*
D03*
X22000D02*
D03*
X69950Y86000D02*
D03*
X9950D02*
D03*
Y6000D02*
D03*
X69950D02*
D03*
X5650Y88700D02*
D03*
X74250D02*
D03*
X5650Y3200D02*
D03*
X74250D02*
D03*
D73*
X54750Y59720D02*
D03*
Y62260D02*
D03*
Y64800D02*
D03*
Y67340D02*
D03*
Y69880D02*
D03*
Y72420D02*
D03*
Y54640D02*
D03*
Y52100D02*
D03*
Y49560D02*
D03*
Y41940D02*
D03*
Y44480D02*
D03*
Y47020D02*
D03*
Y36860D02*
D03*
X77600Y59720D02*
D03*
Y62260D02*
D03*
Y64800D02*
D03*
Y67340D02*
D03*
Y69880D02*
D03*
Y72420D02*
D03*
Y54640D02*
D03*
Y52100D02*
D03*
Y49560D02*
D03*
Y41940D02*
D03*
Y44480D02*
D03*
Y47020D02*
D03*
Y36860D02*
D03*
D74*
X54750Y57180D02*
D03*
Y39400D02*
D03*
X77600Y57180D02*
D03*
Y39400D02*
D03*
D75*
X3500Y28800D02*
D03*
X7000D02*
D03*
X10500D02*
D03*
X14000D02*
D03*
X17500D02*
D03*
X21000D02*
D03*
X31500Y28800D02*
D03*
X35000D02*
D03*
X45500D02*
D03*
X49000D02*
D03*
X24500D02*
D03*
X28000D02*
D03*
X38500D02*
D03*
X42000D02*
D03*
D76*
X27880Y63340D02*
D03*
D77*
Y60800D02*
D03*
Y58260D02*
D03*
Y55720D02*
D03*
Y53180D02*
D03*
Y50640D02*
D03*
Y48100D02*
D03*
Y45560D02*
D03*
Y43020D02*
D03*
X35500Y63340D02*
D03*
Y60800D02*
D03*
Y58260D02*
D03*
Y55720D02*
D03*
Y53180D02*
D03*
Y50640D02*
D03*
Y48100D02*
D03*
Y45560D02*
D03*
X35590Y42780D02*
D03*
X40700Y55540D02*
D03*
Y53000D02*
D03*
Y50460D02*
D03*
Y45380D02*
D03*
Y47920D02*
D03*
X43400Y42100D02*
D03*
Y44640D02*
D03*
Y47180D02*
D03*
Y52260D02*
D03*
Y49720D02*
D03*
X46100Y42100D02*
D03*
Y44640D02*
D03*
Y47180D02*
D03*
Y52260D02*
D03*
Y49720D02*
D03*
D78*
X40700Y58080D02*
D03*
X43400Y39560D02*
D03*
X46100D02*
D03*
D79*
X77300Y11400D02*
D03*
Y13940D02*
D03*
Y15800D02*
D03*
Y18340D02*
D03*
Y20200D02*
D03*
Y22740D02*
D03*
Y24600D02*
D03*
Y27140D02*
D03*
M02*
