G04 Layer_Color=16711935*
%FSLAX43Y43*%
%MOMM*%
G71*
G01*
G75*
%ADD10C,0.300*%
%ADD71C,1.724*%
%ADD72C,0.200*%
%ADD73C,2.000*%
%ADD74R,2.000X2.000*%
%ADD75C,2.400*%
%ADD76R,1.700X1.700*%
%ADD77C,1.700*%
%ADD78R,1.700X1.700*%
G04:AMPARAMS|DCode=79|XSize=1.56mm|YSize=2.8mm|CornerRadius=0.644mm|HoleSize=0mm|Usage=FLASHONLY|Rotation=90.000|XOffset=0mm|YOffset=0mm|HoleType=Round|Shape=RoundedRectangle|*
%AMROUNDEDRECTD79*
21,1,1.560,1.512,0,0,90.0*
21,1,0.272,2.800,0,0,90.0*
1,1,1.288,0.756,0.136*
1,1,1.288,0.756,-0.136*
1,1,1.288,-0.756,-0.136*
1,1,1.288,-0.756,0.136*
%
%ADD79ROUNDEDRECTD79*%
D10*
X0Y0D02*
Y92000D01*
X80000D01*
Y0D02*
Y92000D01*
X0Y0D02*
X80000D01*
D71*
X53080Y34980D02*
D03*
X73400D02*
D03*
X63240Y80700D02*
D03*
X65780D02*
D03*
X68320D02*
D03*
X70860D02*
D03*
X60700D02*
D03*
X58160D02*
D03*
X55620D02*
D03*
D72*
X52000Y7000D02*
D03*
X42000D02*
D03*
X32000D02*
D03*
X22000D02*
D03*
X69950Y86000D02*
D03*
X9950D02*
D03*
Y6000D02*
D03*
X69950D02*
D03*
X5650Y88700D02*
D03*
X74250D02*
D03*
X5650Y3200D02*
D03*
X74250D02*
D03*
D73*
X54750Y59720D02*
D03*
Y62260D02*
D03*
Y64800D02*
D03*
Y67340D02*
D03*
Y69880D02*
D03*
Y72420D02*
D03*
Y54640D02*
D03*
Y52100D02*
D03*
Y49560D02*
D03*
Y41940D02*
D03*
Y44480D02*
D03*
Y47020D02*
D03*
Y36860D02*
D03*
X77600Y59720D02*
D03*
Y62260D02*
D03*
Y64800D02*
D03*
Y67340D02*
D03*
Y69880D02*
D03*
Y72420D02*
D03*
Y54640D02*
D03*
Y52100D02*
D03*
Y49560D02*
D03*
Y41940D02*
D03*
Y44480D02*
D03*
Y47020D02*
D03*
Y36860D02*
D03*
D74*
X54750Y57180D02*
D03*
Y39400D02*
D03*
X77600Y57180D02*
D03*
Y39400D02*
D03*
D75*
X3500Y28800D02*
D03*
X7000D02*
D03*
X10500D02*
D03*
X14000D02*
D03*
X17500D02*
D03*
X21000D02*
D03*
X31500Y28800D02*
D03*
X35000D02*
D03*
X45500D02*
D03*
X49000D02*
D03*
X24500D02*
D03*
X28000D02*
D03*
X38500D02*
D03*
X42000D02*
D03*
D76*
X27880Y63340D02*
D03*
D77*
Y60800D02*
D03*
Y58260D02*
D03*
Y55720D02*
D03*
Y53180D02*
D03*
Y50640D02*
D03*
Y48100D02*
D03*
Y45560D02*
D03*
Y43020D02*
D03*
X35500Y63340D02*
D03*
Y60800D02*
D03*
Y58260D02*
D03*
Y55720D02*
D03*
Y53180D02*
D03*
Y50640D02*
D03*
Y48100D02*
D03*
Y45560D02*
D03*
X35590Y42780D02*
D03*
X40700Y55540D02*
D03*
Y53000D02*
D03*
Y50460D02*
D03*
Y45380D02*
D03*
Y47920D02*
D03*
X43400Y42100D02*
D03*
Y44640D02*
D03*
Y47180D02*
D03*
Y52260D02*
D03*
Y49720D02*
D03*
X46100Y42100D02*
D03*
Y44640D02*
D03*
Y47180D02*
D03*
Y52260D02*
D03*
Y49720D02*
D03*
D78*
X40700Y58080D02*
D03*
X43400Y39560D02*
D03*
X46100D02*
D03*
D79*
X77300Y11400D02*
D03*
Y13940D02*
D03*
Y15800D02*
D03*
Y18340D02*
D03*
Y20200D02*
D03*
Y22740D02*
D03*
Y24600D02*
D03*
Y27140D02*
D03*
M02*
