G04 Layer_Color=128*
%FSLAX43Y43*%
%MOMM*%
G71*
G01*
G75*
%ADD10C,0.300*%
%ADD80C,0.051*%
D10*
X0Y0D02*
Y92000D01*
X80000D01*
Y0D02*
Y92000D01*
X0Y0D02*
X80000D01*
D80*
X52630Y34980D02*
X53530D01*
X53080Y34530D02*
Y35430D01*
X72950Y34980D02*
X73850D01*
X73400Y34530D02*
Y35430D01*
X62790Y80700D02*
X63690D01*
X63240Y80250D02*
Y81150D01*
X65330Y80700D02*
X66230D01*
X65780Y80250D02*
Y81150D01*
X67870Y80700D02*
X68770D01*
X68320Y80250D02*
Y81150D01*
X70410Y80700D02*
X71310D01*
X70860Y80250D02*
Y81150D01*
X60250Y80700D02*
X61150D01*
X60700Y80250D02*
Y81150D01*
X57710Y80700D02*
X58610D01*
X58160Y80250D02*
Y81150D01*
X55170Y80700D02*
X56070D01*
X55620Y80250D02*
Y81150D01*
X50400Y7000D02*
X53600D01*
X52000Y5400D02*
Y8600D01*
X40400Y7000D02*
X43600D01*
X42000Y5400D02*
Y8600D01*
X30400Y7000D02*
X33600D01*
X32000Y5400D02*
Y8600D01*
X20400Y7000D02*
X23600D01*
X22000Y5400D02*
Y8600D01*
X68350Y86000D02*
X71550D01*
X69950Y84400D02*
Y87600D01*
X8350Y86000D02*
X11550D01*
X9950Y84400D02*
Y87600D01*
X8350Y6000D02*
X11550D01*
X9950Y4400D02*
Y7600D01*
X68350Y6000D02*
X71550D01*
X69950Y4400D02*
Y7600D01*
X4050Y88700D02*
X7250D01*
X5650Y87100D02*
Y90300D01*
X72650Y88700D02*
X75850D01*
X74250Y87100D02*
Y90300D01*
X4050Y3200D02*
X7250D01*
X5650Y1600D02*
Y4800D01*
X72650Y3200D02*
X75850D01*
X74250Y1600D02*
Y4800D01*
X75089Y32796D02*
X78089D01*
X76589Y31296D02*
Y34296D01*
X54261Y32796D02*
X57261D01*
X55761Y31296D02*
Y34296D01*
X54261Y76484D02*
X57261D01*
X55761Y74984D02*
Y77984D01*
X75089Y76484D02*
X78089D01*
X76589Y74984D02*
Y77984D01*
X54275Y59720D02*
X55225D01*
X54750Y59245D02*
Y60195D01*
X54275Y62260D02*
X55225D01*
X54750Y61785D02*
Y62735D01*
X54275Y64800D02*
X55225D01*
X54750Y64325D02*
Y65275D01*
X54275Y67340D02*
X55225D01*
X54750Y66865D02*
Y67815D01*
X54275Y69880D02*
X55225D01*
X54750Y69405D02*
Y70355D01*
X54275Y72420D02*
X55225D01*
X54750Y71945D02*
Y72895D01*
X54275Y57180D02*
X55225D01*
X54750Y56705D02*
Y57655D01*
X54275Y54640D02*
X55225D01*
X54750Y54165D02*
Y55115D01*
X54275Y52100D02*
X55225D01*
X54750Y51625D02*
Y52575D01*
X54275Y49560D02*
X55225D01*
X54750Y49085D02*
Y50035D01*
X54275Y39400D02*
X55225D01*
X54750Y38925D02*
Y39875D01*
X54275Y41940D02*
X55225D01*
X54750Y41465D02*
Y42415D01*
X54275Y44480D02*
X55225D01*
X54750Y44005D02*
Y44955D01*
X54275Y47020D02*
X55225D01*
X54750Y46545D02*
Y47495D01*
X54275Y36860D02*
X55225D01*
X54750Y36385D02*
Y37335D01*
X77125Y59720D02*
X78075D01*
X77600Y59245D02*
Y60195D01*
X77125Y62260D02*
X78075D01*
X77600Y61785D02*
Y62735D01*
X77125Y64800D02*
X78075D01*
X77600Y64325D02*
Y65275D01*
X77125Y67340D02*
X78075D01*
X77600Y66865D02*
Y67815D01*
X77125Y69880D02*
X78075D01*
X77600Y69405D02*
Y70355D01*
X77125Y72420D02*
X78075D01*
X77600Y71945D02*
Y72895D01*
X77125Y57180D02*
X78075D01*
X77600Y56705D02*
Y57655D01*
X77125Y54640D02*
X78075D01*
X77600Y54165D02*
Y55115D01*
X77125Y52100D02*
X78075D01*
X77600Y51625D02*
Y52575D01*
X77125Y49560D02*
X78075D01*
X77600Y49085D02*
Y50035D01*
X77125Y39400D02*
X78075D01*
X77600Y38925D02*
Y39875D01*
X77125Y41940D02*
X78075D01*
X77600Y41465D02*
Y42415D01*
X77125Y44480D02*
X78075D01*
X77600Y44005D02*
Y44955D01*
X77125Y47020D02*
X78075D01*
X77600Y46545D02*
Y47495D01*
X77125Y36860D02*
X78075D01*
X77600Y36385D02*
Y37335D01*
X2850Y28800D02*
X4150D01*
X3500Y28150D02*
Y29450D01*
X6350Y28800D02*
X7650D01*
X7000Y28150D02*
Y29450D01*
X9850Y28800D02*
X11150D01*
X10500Y28150D02*
Y29450D01*
X13350Y28800D02*
X14650D01*
X14000Y28150D02*
Y29450D01*
X16850Y28800D02*
X18150D01*
X17500Y28150D02*
Y29450D01*
X20350Y28800D02*
X21650D01*
X21000Y28150D02*
Y29450D01*
X30850Y28800D02*
X32150D01*
X31500Y28150D02*
Y29450D01*
X34350Y28800D02*
X35650D01*
X35000Y28150D02*
Y29450D01*
X27430Y63340D02*
X28330D01*
X27880Y62890D02*
Y63790D01*
X27430Y60800D02*
X28330D01*
X27880Y60350D02*
Y61250D01*
X27430Y58260D02*
X28330D01*
X27880Y57810D02*
Y58710D01*
X27430Y55720D02*
X28330D01*
X27880Y55270D02*
Y56170D01*
X27430Y53180D02*
X28330D01*
X27880Y52730D02*
Y53630D01*
X27430Y50640D02*
X28330D01*
X27880Y50190D02*
Y51090D01*
X27430Y48100D02*
X28330D01*
X27880Y47650D02*
Y48550D01*
X27430Y45560D02*
X28330D01*
X27880Y45110D02*
Y46010D01*
X27430Y43020D02*
X28330D01*
X27880Y42570D02*
Y43470D01*
X35050Y63340D02*
X35950D01*
X35500Y62890D02*
Y63790D01*
X35050Y60800D02*
X35950D01*
X35500Y60350D02*
Y61250D01*
X35050Y58260D02*
X35950D01*
X35500Y57810D02*
Y58710D01*
X35050Y55720D02*
X35950D01*
X35500Y55270D02*
Y56170D01*
X35050Y53180D02*
X35950D01*
X35500Y52730D02*
Y53630D01*
X35050Y50640D02*
X35950D01*
X35500Y50190D02*
Y51090D01*
X35050Y48100D02*
X35950D01*
X35500Y47650D02*
Y48550D01*
X35050Y45560D02*
X35950D01*
X35500Y45110D02*
Y46010D01*
X35140Y42780D02*
X36040D01*
X35590Y42330D02*
Y43230D01*
X40250Y55540D02*
X41150D01*
X40700Y55090D02*
Y55990D01*
X40250Y53000D02*
X41150D01*
X40700Y52550D02*
Y53450D01*
X40250Y50460D02*
X41150D01*
X40700Y50010D02*
Y50910D01*
X40250Y58080D02*
X41150D01*
X40700Y57630D02*
Y58530D01*
X40250Y45380D02*
X41150D01*
X40700Y44930D02*
Y45830D01*
X40250Y47920D02*
X41150D01*
X40700Y47470D02*
Y48370D01*
X42950Y42100D02*
X43850D01*
X43400Y41650D02*
Y42550D01*
X42950Y44640D02*
X43850D01*
X43400Y44190D02*
Y45090D01*
X42950Y47180D02*
X43850D01*
X43400Y46730D02*
Y47630D01*
X42950Y39560D02*
X43850D01*
X43400Y39110D02*
Y40010D01*
X42950Y52260D02*
X43850D01*
X43400Y51810D02*
Y52710D01*
X42950Y49720D02*
X43850D01*
X43400Y49270D02*
Y50170D01*
X45650Y42100D02*
X46550D01*
X46100Y41650D02*
Y42550D01*
X45650Y44640D02*
X46550D01*
X46100Y44190D02*
Y45090D01*
X45650Y47180D02*
X46550D01*
X46100Y46730D02*
Y47630D01*
X45650Y39560D02*
X46550D01*
X46100Y39110D02*
Y40010D01*
X45650Y52260D02*
X46550D01*
X46100Y51810D02*
Y52710D01*
X45650Y49720D02*
X46550D01*
X46100Y49270D02*
Y50170D01*
X44850Y28800D02*
X46150D01*
X45500Y28150D02*
Y29450D01*
X48350Y28800D02*
X49650D01*
X49000Y28150D02*
Y29450D01*
X23850Y28800D02*
X25150D01*
X24500Y28150D02*
Y29450D01*
X27350Y28800D02*
X28650D01*
X28000Y28150D02*
Y29450D01*
X37850Y28800D02*
X39150D01*
X38500Y28150D02*
Y29450D01*
X41350Y28800D02*
X42650D01*
X42000Y28150D02*
Y29450D01*
X76900Y11400D02*
X77700D01*
X77300Y11000D02*
Y11800D01*
X76900Y13940D02*
X77700D01*
X77300Y13540D02*
Y14340D01*
X76900Y15800D02*
X77700D01*
X77300Y15400D02*
Y16200D01*
X76900Y18340D02*
X77700D01*
X77300Y17940D02*
Y18740D01*
X76900Y20200D02*
X77700D01*
X77300Y19800D02*
Y20600D01*
X76900Y22740D02*
X77700D01*
X77300Y22340D02*
Y23140D01*
X76900Y24600D02*
X77700D01*
X77300Y24200D02*
Y25000D01*
X76900Y27140D02*
X77700D01*
X77300Y26740D02*
Y27540D01*
X43875Y73600D02*
X44325D01*
X44100Y73375D02*
Y73825D01*
X32775Y77800D02*
X33225D01*
X33000Y77575D02*
Y78025D01*
X31875Y77800D02*
X32325D01*
X32100Y77575D02*
Y78025D01*
X30975Y77800D02*
X31425D01*
X31200Y77575D02*
Y78025D01*
X8475Y59175D02*
X8925D01*
X8700Y58950D02*
Y59400D01*
X14275Y77325D02*
X14725D01*
X14500Y77100D02*
Y77550D01*
X31275Y74900D02*
X31725D01*
X31500Y74675D02*
Y75125D01*
X32150Y74900D02*
X32600D01*
X32375Y74675D02*
Y75125D01*
X29125Y83450D02*
X29575D01*
X29350Y83225D02*
Y83675D01*
X29125Y82525D02*
X29575D01*
X29350Y82300D02*
Y82750D01*
X39950Y74775D02*
X40400D01*
X40175Y74550D02*
Y75000D01*
X51375Y65900D02*
X51825D01*
X51600Y65675D02*
Y66125D01*
X52775Y68500D02*
X53225D01*
X53000Y68275D02*
Y68725D01*
X48475Y51600D02*
X48925D01*
X48700Y51375D02*
Y51825D01*
X47275Y79600D02*
X47725D01*
X47500Y79375D02*
Y79825D01*
X46275Y79600D02*
X46725D01*
X46500Y79375D02*
Y79825D01*
X50075Y78100D02*
X50525D01*
X50300Y77875D02*
Y78325D01*
X48275Y79600D02*
X48725D01*
X48500Y79375D02*
Y79825D01*
X14275Y72700D02*
X14725D01*
X14500Y72475D02*
Y72925D01*
X14475Y70400D02*
X14925D01*
X14700Y70175D02*
Y70625D01*
X12600Y75200D02*
X13050D01*
X12825Y74975D02*
Y75425D01*
X13675Y70400D02*
X14125D01*
X13900Y70175D02*
Y70625D01*
X12875Y70400D02*
X13325D01*
X13100Y70175D02*
Y70625D01*
X50675Y58100D02*
X51125D01*
X50900Y57875D02*
Y58325D01*
X21275Y66800D02*
X21725D01*
X21500Y66575D02*
Y67025D01*
X21275Y64500D02*
X21725D01*
X21500Y64275D02*
Y64725D01*
X17275Y57900D02*
X17725D01*
X17500Y57675D02*
Y58125D01*
X19275Y57900D02*
X19725D01*
X19500Y57675D02*
Y58125D01*
X48975Y35600D02*
X49425D01*
X49200Y35375D02*
Y35825D01*
X47175Y35600D02*
X47625D01*
X47400Y35375D02*
Y35825D01*
X50675Y34100D02*
X51125D01*
X50900Y33875D02*
Y34325D01*
X19875Y50100D02*
X20325D01*
X20100Y49875D02*
Y50325D01*
X5025Y54875D02*
X5475D01*
X5250Y54650D02*
Y55100D01*
X40175Y62800D02*
X40625D01*
X40400Y62575D02*
Y63025D01*
X38075Y52300D02*
X38525D01*
X38300Y52075D02*
Y52525D01*
X10675Y76100D02*
X11125D01*
X10900Y75875D02*
Y76325D01*
X46075Y54100D02*
X46525D01*
X46300Y53875D02*
Y54325D01*
X42875Y64300D02*
X43325D01*
X43100Y64075D02*
Y64525D01*
X57075Y55900D02*
X57525D01*
X57300Y55675D02*
Y56125D01*
X16675Y79600D02*
X17125D01*
X16900Y79375D02*
Y79825D01*
X16675Y78100D02*
X17125D01*
X16900Y77875D02*
Y78325D01*
X27575Y76900D02*
X28025D01*
X27800Y76675D02*
Y77125D01*
X48075Y35600D02*
X48525D01*
X48300Y35375D02*
Y35825D01*
X49400Y41050D02*
X49850D01*
X49625Y40825D02*
Y41275D01*
X42275Y35100D02*
X42725D01*
X42500Y34875D02*
Y35325D01*
X39875Y35100D02*
X40325D01*
X40100Y34875D02*
Y35325D01*
X38250Y39075D02*
X38700D01*
X38475Y38850D02*
Y39300D01*
X27175Y39450D02*
X27625D01*
X27400Y39225D02*
Y39675D01*
X20925Y60975D02*
X21375D01*
X21150Y60750D02*
Y61200D01*
X20925Y58800D02*
X21375D01*
X21150Y58575D02*
Y59025D01*
X5850Y64400D02*
X6300D01*
X6075Y64175D02*
Y64625D01*
X5350Y60575D02*
X5800D01*
X5575Y60350D02*
Y60800D01*
M02*
