M48
;Layer_Color=9474304
;FILE_FORMAT=4:3
METRIC,LZ
;TYPE=PLATED
T1F00S00C0.450
T3F00S00C0.900
T4F00S00C0.950
T5F00S00C1.300
%
T01
X000525Y0054875
X0005575Y0060575
X0006075Y00644
X00087Y0059175
X00175Y00579
X00195
X002115Y00588
Y0060975
X00215Y00645
Y00668
X00147Y00704
X00139
X00131
X00201Y00501
X00274Y003945
X0038475Y0039075
X00401Y00351
X00425
X00474Y00356
X00483
X00492
X00487Y00516
X00463Y00541
X00383Y00523
X00404Y00628
X00431Y00643
X00516Y00659
X0053Y00685
X00509Y00581
X00573Y00559
X0049625Y004105
X00509Y00341
X00503Y00781
X00485Y00796
X00475
X00465
X00441Y00736
X0040175Y0074775
X0032375Y00749
X00315
X00312Y00778
X00321
X0033
X00278Y00769
X002935Y0082525
Y008345
X00169Y00796
Y00781
X00145Y0077325
X0012825Y00752
X00109Y00761
X00145Y00727
T03
X002788Y004302
Y004556
Y00481
Y005064
Y005318
Y005572
Y005826
Y00608
Y006334
X00355
Y00608
Y005826
Y005572
Y005318
Y005064
Y00481
Y004556
X003559Y004278
X00407Y004538
Y004792
Y005046
Y0053
Y005554
Y005808
X00434Y005226
Y004972
Y004718
Y004464
Y00421
Y003956
X00461
Y00421
Y004464
Y004718
Y004972
Y005226
X005308Y003498
X00734
X007086Y00807
X006832
X006578
X006324
X00607
X005816
X005562
T04
X005475Y003686
Y00394
Y004194
Y004448
Y004702
Y004956
Y00521
Y005464
Y005718
Y005972
Y006226
Y00648
Y006734
Y006988
X00776
Y006734
Y00648
Y006226
Y005972
Y005718
Y005464
Y00521
Y004956
Y004702
Y004448
Y004194
Y00394
Y003686
Y007242
X005475
T05
X00105Y00288
X0014
X00175
X0021
X00245Y00288
X0028
X00315
X0035
X00385
X0042
X00455
X0049
X0007Y00288
X00035
M30
