G04 Layer_Physical_Order=2*
G04 Layer_Color=30967*
%FSLAX43Y43*%
%MOMM*%
G71*
G01*
G75*
%ADD10C,0.300*%
%ADD31C,0.500*%
%ADD32C,1.000*%
%ADD34C,1.524*%
%ADD35C,3.000*%
%ADD36C,1.800*%
%ADD37R,1.800X1.800*%
%ADD38C,2.200*%
%ADD39R,1.500X1.500*%
%ADD40C,1.500*%
%ADD41R,1.500X1.500*%
G04:AMPARAMS|DCode=42|XSize=1.36mm|YSize=2.6mm|CornerRadius=0.544mm|HoleSize=0mm|Usage=FLASHONLY|Rotation=90.000|XOffset=0mm|YOffset=0mm|HoleType=Round|Shape=RoundedRectangle|*
%AMROUNDEDRECTD42*
21,1,1.360,1.512,0,0,90.0*
21,1,0.272,2.600,0,0,90.0*
1,1,1.088,0.756,0.136*
1,1,1.088,0.756,-0.136*
1,1,1.088,-0.756,-0.136*
1,1,1.088,-0.756,0.136*
%
%ADD42ROUNDEDRECTD42*%
%ADD43C,0.900*%
%ADD44C,0.950*%
G36*
X67600Y83887D02*
X51893D01*
Y86461D01*
X67600D01*
Y83887D01*
D02*
G37*
G36*
X79000Y73549D02*
X78945Y73508D01*
X78600Y73401D01*
X78492Y73509D01*
X78263Y73662D01*
X78008Y73767D01*
X77738Y73821D01*
X77462D01*
X77191Y73767D01*
X76936Y73662D01*
X76707Y73508D01*
X76512Y73313D01*
X76358Y73084D01*
X76253Y72829D01*
X76199Y72558D01*
Y72420D01*
Y36860D01*
Y36722D01*
X76253Y36451D01*
X76358Y36196D01*
X76512Y35967D01*
X76707Y35772D01*
X76936Y35618D01*
X77191Y35513D01*
X77462Y35459D01*
X77791D01*
X78050Y35510D01*
X78294Y35612D01*
X78514Y35758D01*
X78600Y35845D01*
X78997Y35703D01*
X79000Y35701D01*
Y28438D01*
X76816D01*
X76598Y28394D01*
X76393Y28309D01*
X76208Y28186D01*
X76051Y28029D01*
X75927Y27844D01*
X75842Y27638D01*
X75799Y27421D01*
Y27004D01*
Y24736D01*
Y24464D01*
Y22876D01*
Y22604D01*
Y20336D01*
Y20064D01*
Y18476D01*
Y18204D01*
Y15936D01*
Y15664D01*
Y14076D01*
Y13804D01*
Y11536D01*
Y10837D01*
X75833Y10663D01*
X75901Y10499D01*
X76000Y10352D01*
X76126Y10226D01*
X76273Y10128D01*
X76437Y10060D01*
X76611Y10025D01*
X78996D01*
X79000Y10023D01*
Y5400D01*
X72067Y5400D01*
X71954Y5469D01*
X71776Y5690D01*
X71739Y5800D01*
X71747Y5872D01*
X71751Y6000D01*
X71747Y6128D01*
X71733Y6256D01*
X71710Y6383D01*
X71678Y6507D01*
X71638Y6629D01*
X71588Y6748D01*
X71531Y6863D01*
X71465Y6974D01*
X71392Y7079D01*
X71311Y7180D01*
X71224Y7274D01*
X71130Y7361D01*
X71029Y7442D01*
X70924Y7515D01*
X70813Y7581D01*
X70698Y7638D01*
X70579Y7688D01*
X70457Y7728D01*
X70333Y7760D01*
X70206Y7783D01*
X70078Y7797D01*
X69950Y7801D01*
X69822Y7797D01*
X69694Y7783D01*
X69567Y7760D01*
X69443Y7728D01*
X69321Y7688D01*
X69202Y7638D01*
X69087Y7581D01*
X68976Y7515D01*
X68871Y7442D01*
X68771Y7361D01*
X68676Y7274D01*
X68589Y7180D01*
X68508Y7079D01*
X68435Y6974D01*
X68369Y6863D01*
X68312Y6748D01*
X68262Y6629D01*
X68222Y6507D01*
X68190Y6383D01*
X68167Y6256D01*
X68153Y6128D01*
X68149Y6000D01*
X68153Y5872D01*
X68161Y5800D01*
X68124Y5690D01*
X67946Y5469D01*
X67833Y5400D01*
X53801Y5400D01*
Y9400D01*
X53797Y9528D01*
X53783Y9656D01*
X53760Y9783D01*
X53728Y9907D01*
X53688Y10029D01*
X53638Y10148D01*
X53581Y10263D01*
X53515Y10374D01*
X53442Y10479D01*
X53361Y10580D01*
X53274Y10674D01*
X53180Y10761D01*
X53079Y10842D01*
X52974Y10915D01*
X52863Y10981D01*
X52748Y11038D01*
X52629Y11088D01*
X52507Y11128D01*
X52383Y11160D01*
X52256Y11183D01*
X52128Y11197D01*
X52000Y11201D01*
X51872Y11197D01*
X51744Y11183D01*
X51617Y11160D01*
X51493Y11128D01*
X51371Y11088D01*
X51252Y11038D01*
X51137Y10981D01*
X51026Y10915D01*
X50921Y10842D01*
X50820Y10761D01*
X50726Y10674D01*
X50639Y10580D01*
X50558Y10479D01*
X50485Y10374D01*
X50419Y10263D01*
X50362Y10148D01*
X50312Y10029D01*
X50272Y9907D01*
X50240Y9783D01*
X50217Y9656D01*
X50203Y9528D01*
X50199Y9400D01*
Y5400D01*
X43801D01*
Y9400D01*
X43797Y9528D01*
X43783Y9656D01*
X43760Y9783D01*
X43728Y9907D01*
X43688Y10029D01*
X43638Y10148D01*
X43581Y10263D01*
X43515Y10374D01*
X43442Y10479D01*
X43361Y10580D01*
X43274Y10674D01*
X43180Y10761D01*
X43079Y10842D01*
X42974Y10915D01*
X42863Y10981D01*
X42748Y11038D01*
X42629Y11088D01*
X42507Y11128D01*
X42383Y11160D01*
X42256Y11183D01*
X42128Y11197D01*
X42000Y11201D01*
X41872Y11197D01*
X41744Y11183D01*
X41617Y11160D01*
X41493Y11128D01*
X41371Y11088D01*
X41252Y11038D01*
X41137Y10981D01*
X41026Y10915D01*
X40921Y10842D01*
X40820Y10761D01*
X40726Y10674D01*
X40639Y10580D01*
X40558Y10479D01*
X40485Y10374D01*
X40419Y10263D01*
X40362Y10148D01*
X40312Y10029D01*
X40272Y9907D01*
X40240Y9783D01*
X40217Y9656D01*
X40203Y9528D01*
X40199Y9400D01*
Y5400D01*
X33801Y5400D01*
Y9400D01*
X33797Y9528D01*
X33783Y9656D01*
X33760Y9783D01*
X33728Y9907D01*
X33688Y10029D01*
X33638Y10148D01*
X33581Y10263D01*
X33515Y10374D01*
X33442Y10479D01*
X33361Y10580D01*
X33274Y10674D01*
X33180Y10761D01*
X33079Y10842D01*
X32974Y10915D01*
X32863Y10981D01*
X32748Y11038D01*
X32629Y11088D01*
X32507Y11128D01*
X32383Y11160D01*
X32256Y11183D01*
X32128Y11197D01*
X32000Y11201D01*
X31872Y11197D01*
X31744Y11183D01*
X31617Y11160D01*
X31493Y11128D01*
X31371Y11088D01*
X31252Y11038D01*
X31137Y10981D01*
X31026Y10915D01*
X30921Y10842D01*
X30820Y10761D01*
X30726Y10674D01*
X30639Y10580D01*
X30558Y10479D01*
X30485Y10374D01*
X30419Y10263D01*
X30362Y10148D01*
X30312Y10029D01*
X30272Y9907D01*
X30240Y9783D01*
X30217Y9656D01*
X30203Y9528D01*
X30199Y9400D01*
Y5400D01*
X23801Y5400D01*
Y9400D01*
X23797Y9528D01*
X23783Y9656D01*
X23760Y9783D01*
X23728Y9907D01*
X23688Y10029D01*
X23638Y10148D01*
X23581Y10263D01*
X23515Y10374D01*
X23442Y10479D01*
X23361Y10580D01*
X23274Y10674D01*
X23180Y10761D01*
X23079Y10842D01*
X22974Y10915D01*
X22863Y10981D01*
X22748Y11038D01*
X22629Y11088D01*
X22507Y11128D01*
X22383Y11160D01*
X22256Y11183D01*
X22128Y11197D01*
X22000Y11201D01*
X21872Y11197D01*
X21744Y11183D01*
X21617Y11160D01*
X21493Y11128D01*
X21371Y11088D01*
X21252Y11038D01*
X21137Y10981D01*
X21026Y10915D01*
X20921Y10842D01*
X20820Y10761D01*
X20726Y10674D01*
X20639Y10580D01*
X20558Y10479D01*
X20485Y10374D01*
X20419Y10263D01*
X20362Y10148D01*
X20312Y10029D01*
X20272Y9907D01*
X20240Y9783D01*
X20217Y9656D01*
X20203Y9528D01*
X20199Y9400D01*
Y5400D01*
X12067Y5400D01*
X11954Y5469D01*
X11776Y5690D01*
X11739Y5800D01*
X11747Y5872D01*
X11751Y6000D01*
X11747Y6128D01*
X11733Y6256D01*
X11710Y6383D01*
X11678Y6507D01*
X11638Y6629D01*
X11588Y6748D01*
X11531Y6863D01*
X11465Y6974D01*
X11392Y7079D01*
X11311Y7180D01*
X11224Y7274D01*
X11130Y7361D01*
X11029Y7442D01*
X10924Y7515D01*
X10813Y7581D01*
X10698Y7638D01*
X10579Y7688D01*
X10457Y7728D01*
X10333Y7760D01*
X10206Y7783D01*
X10078Y7797D01*
X9950Y7801D01*
X9822Y7797D01*
X9694Y7783D01*
X9567Y7760D01*
X9443Y7728D01*
X9321Y7688D01*
X9202Y7638D01*
X9087Y7581D01*
X8976Y7515D01*
X8871Y7442D01*
X8771Y7361D01*
X8676Y7274D01*
X8589Y7180D01*
X8508Y7079D01*
X8435Y6974D01*
X8369Y6863D01*
X8312Y6748D01*
X8262Y6629D01*
X8222Y6507D01*
X8190Y6383D01*
X8167Y6256D01*
X8153Y6128D01*
X8149Y6000D01*
X8153Y5872D01*
X8161Y5800D01*
X8124Y5690D01*
X7946Y5469D01*
X7833Y5400D01*
X1000Y5400D01*
Y86500D01*
X7826Y86500D01*
X7938Y86420D01*
X8147Y86138D01*
X8152Y86100D01*
X8149Y86000D01*
X8153Y85872D01*
X8167Y85744D01*
X8190Y85617D01*
X8222Y85493D01*
X8262Y85371D01*
X8312Y85252D01*
X8369Y85137D01*
X8435Y85026D01*
X8508Y84921D01*
X8589Y84821D01*
X8676Y84726D01*
X8771Y84639D01*
X8871Y84558D01*
X8976Y84485D01*
X9087Y84419D01*
X9202Y84362D01*
X9321Y84312D01*
X9443Y84272D01*
X9567Y84240D01*
X9694Y84217D01*
X9822Y84203D01*
X9950Y84199D01*
X10078Y84203D01*
X10206Y84217D01*
X10333Y84240D01*
X10457Y84272D01*
X10579Y84312D01*
X10698Y84362D01*
X10813Y84419D01*
X10924Y84485D01*
X11029Y84558D01*
X11130Y84639D01*
X11224Y84726D01*
X11311Y84821D01*
X11392Y84921D01*
X11465Y85026D01*
X11531Y85137D01*
X11588Y85252D01*
X11638Y85371D01*
X11678Y85493D01*
X11710Y85617D01*
X11733Y85744D01*
X11747Y85872D01*
X11751Y86000D01*
X11748Y86100D01*
X11753Y86138D01*
X11962Y86420D01*
X12074Y86500D01*
X51693Y86500D01*
Y83687D01*
X67800D01*
Y85540D01*
X68190Y85617D01*
X68222Y85493D01*
X68262Y85371D01*
X68312Y85252D01*
X68369Y85137D01*
X68435Y85026D01*
X68508Y84921D01*
X68589Y84821D01*
X68676Y84726D01*
X68771Y84639D01*
X68871Y84558D01*
X68976Y84485D01*
X69087Y84419D01*
X69202Y84362D01*
X69321Y84312D01*
X69443Y84272D01*
X69567Y84240D01*
X69694Y84217D01*
X69822Y84203D01*
X69950Y84199D01*
X70078Y84203D01*
X70206Y84217D01*
X70333Y84240D01*
X70457Y84272D01*
X70579Y84312D01*
X70698Y84362D01*
X70813Y84419D01*
X70924Y84485D01*
X71029Y84558D01*
X71130Y84639D01*
X71224Y84726D01*
X71311Y84821D01*
X71392Y84921D01*
X71465Y85026D01*
X71531Y85137D01*
X71588Y85252D01*
X71638Y85371D01*
X71678Y85493D01*
X71710Y85617D01*
X71733Y85744D01*
X71747Y85872D01*
X71751Y86000D01*
X71748Y86100D01*
X71753Y86138D01*
X71962Y86420D01*
X72074Y86500D01*
X79000Y86500D01*
Y73549D01*
D02*
G37*
%LPC*%
G36*
X55463Y85896D02*
X55441D01*
X55417Y85894D01*
X55383Y85892D01*
X55346Y85885D01*
X55308Y85879D01*
X55266Y85868D01*
X55226Y85854D01*
X55224D01*
X55221Y85852D01*
X55208Y85848D01*
X55188Y85837D01*
X55166Y85823D01*
X55137Y85808D01*
X55108Y85788D01*
X55079Y85763D01*
X55053Y85737D01*
X55050Y85732D01*
X55041Y85723D01*
X55028Y85708D01*
X55013Y85686D01*
X54995Y85659D01*
X54977Y85630D01*
X54962Y85595D01*
X54946Y85557D01*
X54944Y85552D01*
X54939Y85539D01*
X54935Y85519D01*
X54926Y85490D01*
X54919Y85457D01*
X54915Y85419D01*
X54910Y85375D01*
X54908Y85330D01*
Y85328D01*
Y85324D01*
Y85317D01*
Y85308D01*
Y85297D01*
Y85284D01*
X54910Y85248D01*
Y85246D01*
Y85239D01*
Y85230D01*
X54913Y85219D01*
X54915Y85188D01*
X54917Y85157D01*
X55750D01*
Y85153D01*
Y85144D01*
X55747Y85126D01*
Y85106D01*
X55743Y85084D01*
X55739Y85060D01*
X55734Y85033D01*
X55725Y85008D01*
X55723Y85006D01*
X55721Y84997D01*
X55714Y84986D01*
X55705Y84973D01*
X55683Y84937D01*
X55652Y84902D01*
X55650Y84900D01*
X55643Y84895D01*
X55634Y84886D01*
X55621Y84878D01*
X55605Y84869D01*
X55585Y84858D01*
X55563Y84846D01*
X55541Y84838D01*
X55539D01*
X55530Y84833D01*
X55517Y84831D01*
X55497Y84826D01*
X55477Y84822D01*
X55450Y84820D01*
X55423Y84815D01*
X55361D01*
X55337Y84818D01*
X55306D01*
X55275Y84822D01*
X55237Y84824D01*
X55199Y84829D01*
X55195D01*
X55181Y84831D01*
X55159Y84835D01*
X55130Y84840D01*
X55097Y84846D01*
X55061Y84855D01*
X55019Y84866D01*
X54977Y84878D01*
Y84636D01*
X54979D01*
X54986Y84633D01*
X54995Y84631D01*
X55008Y84627D01*
X55024Y84622D01*
X55041Y84618D01*
X55084Y84609D01*
X55086D01*
X55093Y84607D01*
X55106D01*
X55119Y84604D01*
X55137Y84600D01*
X55157Y84598D01*
X55201Y84591D01*
X55204D01*
X55212Y84589D01*
X55224D01*
X55239Y84587D01*
X55257Y84584D01*
X55279Y84582D01*
X55323Y84578D01*
X55335D01*
X55346Y84576D01*
X55361D01*
X55379Y84573D01*
X55399D01*
X55441Y84571D01*
X55465D01*
X55479Y84573D01*
X55494D01*
X55528Y84576D01*
X55570Y84580D01*
X55614Y84589D01*
X55659Y84598D01*
X55703Y84611D01*
X55705D01*
X55707Y84613D01*
X55714Y84616D01*
X55721Y84620D01*
X55743Y84629D01*
X55770Y84642D01*
X55801Y84660D01*
X55832Y84680D01*
X55865Y84704D01*
X55896Y84733D01*
X55901Y84738D01*
X55909Y84747D01*
X55923Y84764D01*
X55941Y84789D01*
X55961Y84818D01*
X55981Y84851D01*
X56001Y84889D01*
X56018Y84931D01*
Y84933D01*
X56020Y84935D01*
X56023Y84942D01*
X56025Y84953D01*
X56027Y84964D01*
X56032Y84977D01*
X56038Y85011D01*
X56047Y85051D01*
X56054Y85097D01*
X56058Y85151D01*
X56060Y85206D01*
Y85208D01*
Y85213D01*
Y85222D01*
Y85233D01*
X56058Y85246D01*
Y85262D01*
X56056Y85299D01*
X56049Y85344D01*
X56043Y85390D01*
X56032Y85439D01*
X56018Y85488D01*
Y85490D01*
X56016Y85495D01*
X56014Y85501D01*
X56009Y85510D01*
X56001Y85532D01*
X55987Y85563D01*
X55969Y85597D01*
X55949Y85632D01*
X55925Y85670D01*
X55898Y85706D01*
X55894Y85710D01*
X55885Y85721D01*
X55867Y85737D01*
X55845Y85757D01*
X55818Y85779D01*
X55787Y85803D01*
X55752Y85825D01*
X55712Y85845D01*
X55710D01*
X55707Y85848D01*
X55701Y85850D01*
X55692Y85854D01*
X55670Y85861D01*
X55639Y85872D01*
X55603Y85881D01*
X55561Y85888D01*
X55514Y85894D01*
X55463Y85896D01*
D02*
G37*
G36*
X54751Y85870D02*
X54411D01*
X54147Y85148D01*
X54069Y84915D01*
X53991Y85137D01*
X53727Y85870D01*
X53399D01*
X53896Y84600D01*
X54249D01*
X54751Y85870D01*
D02*
G37*
G36*
X63184Y86234D02*
X62913D01*
X62874Y85186D01*
X62862Y84900D01*
X62789Y85153D01*
X62609Y85737D01*
X62416D01*
X62227Y85117D01*
X62165Y84902D01*
X62161Y85157D01*
X62121Y86234D01*
X61859D01*
X61950Y84600D01*
X62312D01*
X62474Y85104D01*
X62532Y85310D01*
X62587Y85099D01*
X62747Y84600D01*
X63091D01*
X63184Y86234D01*
D02*
G37*
G36*
X63777Y86261D02*
X63737D01*
X63708Y86258D01*
X63675Y86256D01*
X63639Y86252D01*
X63599Y86247D01*
X63559Y86241D01*
X63555D01*
X63548Y86238D01*
X63542Y86236D01*
X63520Y86232D01*
X63491Y86227D01*
X63460Y86218D01*
X63422Y86212D01*
X63384Y86201D01*
X63344Y86189D01*
Y85885D01*
X63349Y85888D01*
X63360Y85892D01*
X63380Y85901D01*
X63404Y85910D01*
X63435Y85921D01*
X63471Y85934D01*
X63508Y85945D01*
X63551Y85956D01*
X63553D01*
X63555Y85959D01*
X63562D01*
X63571Y85961D01*
X63591Y85965D01*
X63619Y85972D01*
X63655Y85976D01*
X63693Y85981D01*
X63733Y85983D01*
X63775Y85985D01*
X63795D01*
X63817Y85983D01*
X63844Y85981D01*
X63875Y85976D01*
X63910Y85967D01*
X63946Y85959D01*
X63979Y85945D01*
X63983Y85943D01*
X63992Y85939D01*
X64010Y85930D01*
X64030Y85916D01*
X64052Y85899D01*
X64077Y85881D01*
X64101Y85856D01*
X64126Y85830D01*
X64128Y85828D01*
X64134Y85817D01*
X64146Y85801D01*
X64159Y85779D01*
X64174Y85754D01*
X64190Y85723D01*
X64203Y85688D01*
X64217Y85648D01*
Y85646D01*
X64219Y85643D01*
Y85637D01*
X64221Y85630D01*
X64225Y85608D01*
X64230Y85579D01*
X64237Y85543D01*
X64241Y85501D01*
X64243Y85457D01*
X64245Y85408D01*
Y85406D01*
Y85401D01*
Y85395D01*
Y85386D01*
X64243Y85361D01*
Y85330D01*
X64241Y85293D01*
X64237Y85253D01*
X64230Y85213D01*
X64223Y85173D01*
Y85171D01*
X64221Y85168D01*
X64219Y85155D01*
X64212Y85135D01*
X64203Y85111D01*
X64194Y85084D01*
X64181Y85053D01*
X64163Y85024D01*
X64146Y84995D01*
X64143Y84993D01*
X64137Y84984D01*
X64123Y84971D01*
X64108Y84953D01*
X64090Y84935D01*
X64066Y84917D01*
X64039Y84900D01*
X64010Y84884D01*
X64006Y84882D01*
X63995Y84878D01*
X63977Y84873D01*
X63952Y84866D01*
X63924Y84858D01*
X63888Y84853D01*
X63848Y84849D01*
X63806Y84846D01*
X63753D01*
X63744Y84849D01*
X63730Y84851D01*
X63717Y84853D01*
X63713D01*
X63706Y84855D01*
X63693Y84860D01*
X63682Y84862D01*
X63679D01*
X63670Y84864D01*
X63657Y84869D01*
X63644Y84873D01*
Y85290D01*
X63921D01*
Y85543D01*
X63340D01*
Y84673D01*
X63342D01*
X63344Y84671D01*
X63351Y84669D01*
X63360Y84664D01*
X63382Y84656D01*
X63411Y84644D01*
X63448Y84631D01*
X63488Y84618D01*
X63531Y84607D01*
X63577Y84596D01*
X63582D01*
X63588Y84593D01*
X63599Y84591D01*
X63611Y84589D01*
X63624D01*
X63655Y84584D01*
X63695Y84580D01*
X63739Y84576D01*
X63788Y84573D01*
X63841Y84571D01*
X63870D01*
X63886Y84573D01*
X63904D01*
X63944Y84578D01*
X63990Y84584D01*
X64043Y84593D01*
X64097Y84604D01*
X64148Y84622D01*
X64150D01*
X64154Y84624D01*
X64161Y84629D01*
X64170Y84633D01*
X64197Y84644D01*
X64228Y84662D01*
X64263Y84684D01*
X64303Y84711D01*
X64341Y84742D01*
X64379Y84778D01*
Y84780D01*
X64383Y84782D01*
X64388Y84789D01*
X64394Y84795D01*
X64412Y84820D01*
X64432Y84849D01*
X64456Y84886D01*
X64481Y84931D01*
X64505Y84980D01*
X64525Y85035D01*
Y85037D01*
X64527Y85042D01*
X64530Y85051D01*
X64532Y85062D01*
X64536Y85077D01*
X64541Y85095D01*
X64545Y85115D01*
X64550Y85137D01*
X64554Y85164D01*
X64558Y85191D01*
X64567Y85250D01*
X64572Y85319D01*
X64574Y85393D01*
Y85395D01*
Y85401D01*
Y85413D01*
Y85428D01*
X64572Y85446D01*
Y85466D01*
X64570Y85488D01*
X64567Y85515D01*
X64561Y85572D01*
X64552Y85632D01*
X64541Y85694D01*
X64523Y85757D01*
Y85759D01*
X64521Y85763D01*
X64516Y85772D01*
X64512Y85783D01*
X64507Y85797D01*
X64501Y85814D01*
X64483Y85852D01*
X64461Y85894D01*
X64434Y85941D01*
X64403Y85985D01*
X64368Y86030D01*
X64365Y86032D01*
X64363Y86034D01*
X64356Y86041D01*
X64350Y86047D01*
X64328Y86070D01*
X64299Y86094D01*
X64261Y86121D01*
X64219Y86150D01*
X64170Y86176D01*
X64117Y86201D01*
X64114D01*
X64110Y86203D01*
X64101Y86207D01*
X64090Y86209D01*
X64077Y86214D01*
X64059Y86221D01*
X64041Y86225D01*
X64019Y86232D01*
X63995Y86236D01*
X63968Y86241D01*
X63910Y86252D01*
X63846Y86258D01*
X63777Y86261D01*
D02*
G37*
G36*
X65941Y86234D02*
X64729D01*
Y85979D01*
X65178D01*
Y84600D01*
X65493D01*
Y85979D01*
X65941D01*
Y86234D01*
D02*
G37*
G36*
X66734Y86261D02*
X66721D01*
X66703Y86258D01*
X66681D01*
X66654Y86254D01*
X66623Y86249D01*
X66590Y86243D01*
X66552Y86234D01*
X66514Y86223D01*
X66474Y86207D01*
X66434Y86192D01*
X66394Y86170D01*
X66354Y86145D01*
X66317Y86116D01*
X66281Y86083D01*
X66250Y86045D01*
X66248Y86043D01*
X66243Y86036D01*
X66235Y86023D01*
X66223Y86005D01*
X66212Y85983D01*
X66199Y85956D01*
X66183Y85923D01*
X66168Y85888D01*
X66152Y85845D01*
X66137Y85799D01*
X66124Y85748D01*
X66112Y85692D01*
X66101Y85632D01*
X66092Y85566D01*
X66088Y85497D01*
X66086Y85421D01*
Y85419D01*
Y85413D01*
Y85399D01*
Y85384D01*
X66088Y85366D01*
Y85344D01*
X66090Y85317D01*
X66092Y85290D01*
X66099Y85230D01*
X66108Y85166D01*
X66121Y85099D01*
X66139Y85037D01*
Y85035D01*
X66141Y85031D01*
X66144Y85022D01*
X66148Y85011D01*
X66155Y84997D01*
X66159Y84982D01*
X66177Y84944D01*
X66197Y84902D01*
X66221Y84858D01*
X66248Y84815D01*
X66281Y84773D01*
X66286Y84769D01*
X66297Y84755D01*
X66317Y84738D01*
X66341Y84715D01*
X66372Y84691D01*
X66410Y84667D01*
X66450Y84642D01*
X66494Y84620D01*
X66496D01*
X66499Y84618D01*
X66505Y84616D01*
X66516Y84613D01*
X66528Y84609D01*
X66541Y84604D01*
X66572Y84596D01*
X66612Y84587D01*
X66656Y84578D01*
X66703Y84573D01*
X66754Y84571D01*
X66767D01*
X66785Y84573D01*
X66807Y84576D01*
X66834Y84578D01*
X66865Y84582D01*
X66898Y84589D01*
X66936Y84598D01*
X66974Y84609D01*
X67014Y84622D01*
X67054Y84640D01*
X67094Y84662D01*
X67134Y84687D01*
X67171Y84713D01*
X67205Y84747D01*
X67238Y84784D01*
X67240Y84786D01*
X67245Y84795D01*
X67253Y84806D01*
X67262Y84824D01*
X67276Y84846D01*
X67289Y84873D01*
X67305Y84906D01*
X67318Y84944D01*
X67333Y84984D01*
X67349Y85031D01*
X67362Y85082D01*
X67376Y85139D01*
X67384Y85199D01*
X67393Y85264D01*
X67398Y85335D01*
X67400Y85408D01*
Y85410D01*
Y85417D01*
Y85430D01*
Y85446D01*
X67398Y85464D01*
Y85486D01*
X67396Y85512D01*
X67393Y85539D01*
X67387Y85599D01*
X67378Y85663D01*
X67367Y85728D01*
X67349Y85790D01*
Y85792D01*
X67347Y85797D01*
X67344Y85805D01*
X67340Y85817D01*
X67333Y85830D01*
X67329Y85848D01*
X67311Y85883D01*
X67291Y85925D01*
X67267Y85970D01*
X67238Y86014D01*
X67207Y86054D01*
X67205Y86056D01*
X67202Y86059D01*
X67191Y86072D01*
X67171Y86090D01*
X67147Y86112D01*
X67116Y86138D01*
X67078Y86163D01*
X67038Y86187D01*
X66994Y86209D01*
X66992D01*
X66987Y86212D01*
X66980Y86214D01*
X66972Y86218D01*
X66960Y86221D01*
X66947Y86225D01*
X66916Y86236D01*
X66876Y86245D01*
X66832Y86252D01*
X66785Y86258D01*
X66734Y86261D01*
D02*
G37*
G36*
X61095D02*
X61073D01*
X61060Y86258D01*
X61046D01*
X61013Y86254D01*
X60975Y86249D01*
X60933Y86241D01*
X60889Y86227D01*
X60847Y86212D01*
X60844D01*
X60842Y86209D01*
X60836Y86207D01*
X60827Y86203D01*
X60807Y86192D01*
X60778Y86176D01*
X60747Y86154D01*
X60713Y86130D01*
X60680Y86098D01*
X60649Y86063D01*
X60645Y86059D01*
X60640Y86052D01*
X60636Y86045D01*
X60620Y86023D01*
X60602Y85994D01*
X60583Y85956D01*
X60560Y85912D01*
X60538Y85861D01*
X60520Y85803D01*
Y85801D01*
X60518Y85797D01*
X60516Y85788D01*
X60514Y85774D01*
X60509Y85759D01*
X60505Y85741D01*
X60500Y85721D01*
X60496Y85697D01*
X60494Y85670D01*
X60489Y85641D01*
X60485Y85610D01*
X60480Y85577D01*
X60476Y85501D01*
X60474Y85421D01*
Y85419D01*
Y85413D01*
Y85401D01*
Y85388D01*
X60476Y85370D01*
Y85350D01*
X60478Y85326D01*
Y85302D01*
X60485Y85246D01*
X60491Y85186D01*
X60503Y85124D01*
X60518Y85062D01*
Y85060D01*
X60520Y85055D01*
X60523Y85046D01*
X60527Y85035D01*
X60531Y85022D01*
X60536Y85006D01*
X60551Y84969D01*
X60569Y84926D01*
X60591Y84882D01*
X60618Y84838D01*
X60647Y84793D01*
Y84791D01*
X60651Y84789D01*
X60662Y84775D01*
X60680Y84755D01*
X60705Y84731D01*
X60733Y84704D01*
X60769Y84678D01*
X60809Y84651D01*
X60853Y84627D01*
X60856D01*
X60858Y84624D01*
X60864Y84622D01*
X60876Y84618D01*
X60887Y84613D01*
X60900Y84609D01*
X60933Y84600D01*
X60973Y84589D01*
X61020Y84580D01*
X61073Y84573D01*
X61131Y84571D01*
X61153D01*
X61166Y84573D01*
X61180D01*
X61213Y84578D01*
X61251Y84582D01*
X61293Y84591D01*
X61337Y84602D01*
X61379Y84618D01*
X61382D01*
X61384Y84620D01*
X61391Y84622D01*
X61399Y84627D01*
X61419Y84638D01*
X61446Y84653D01*
X61477Y84675D01*
X61510Y84700D01*
X61544Y84731D01*
X61577Y84767D01*
Y84769D01*
X61581Y84771D01*
X61586Y84778D01*
X61590Y84784D01*
X61606Y84806D01*
X61624Y84838D01*
X61644Y84875D01*
X61666Y84920D01*
X61686Y84971D01*
X61706Y85026D01*
Y85028D01*
X61708Y85033D01*
X61710Y85042D01*
X61712Y85055D01*
X61717Y85071D01*
X61719Y85088D01*
X61724Y85111D01*
X61728Y85135D01*
X61732Y85162D01*
X61737Y85191D01*
X61739Y85222D01*
X61744Y85255D01*
X61748Y85328D01*
X61750Y85408D01*
Y85410D01*
Y85417D01*
Y85428D01*
Y85441D01*
X61748Y85459D01*
Y85479D01*
X61746Y85504D01*
X61744Y85528D01*
X61739Y85583D01*
X61732Y85643D01*
X61721Y85706D01*
X61706Y85765D01*
Y85768D01*
X61704Y85772D01*
X61701Y85781D01*
X61697Y85792D01*
X61692Y85805D01*
X61688Y85821D01*
X61673Y85859D01*
X61655Y85901D01*
X61633Y85945D01*
X61608Y85992D01*
X61579Y86034D01*
Y86036D01*
X61575Y86039D01*
X61564Y86052D01*
X61546Y86072D01*
X61522Y86096D01*
X61493Y86125D01*
X61457Y86152D01*
X61417Y86178D01*
X61373Y86203D01*
X61371D01*
X61366Y86205D01*
X61359Y86207D01*
X61351Y86212D01*
X61340Y86216D01*
X61326Y86221D01*
X61291Y86232D01*
X61251Y86243D01*
X61204Y86252D01*
X61151Y86258D01*
X61095Y86261D01*
D02*
G37*
G36*
X59002Y84329D02*
X57594D01*
Y84087D01*
X59002D01*
Y84329D01*
D02*
G37*
G36*
X56691Y85896D02*
X56675D01*
X56655Y85894D01*
X56633Y85892D01*
X56607Y85888D01*
X56578Y85883D01*
X56549Y85874D01*
X56520Y85863D01*
X56516Y85861D01*
X56507Y85856D01*
X56493Y85850D01*
X56476Y85839D01*
X56456Y85823D01*
X56436Y85808D01*
X56416Y85788D01*
X56396Y85763D01*
X56393Y85761D01*
X56387Y85752D01*
X56378Y85739D01*
X56367Y85719D01*
X56356Y85694D01*
X56342Y85668D01*
X56331Y85637D01*
X56320Y85601D01*
X56318Y85597D01*
X56316Y85583D01*
X56314Y85563D01*
X56309Y85537D01*
X56305Y85504D01*
X56300Y85466D01*
X56298Y85424D01*
Y85377D01*
X56604D01*
Y85379D01*
Y85388D01*
Y85401D01*
Y85417D01*
X56607Y85437D01*
Y85455D01*
X56613Y85495D01*
Y85497D01*
X56615Y85504D01*
X56618Y85512D01*
X56620Y85523D01*
X56629Y85550D01*
X56642Y85577D01*
Y85579D01*
X56647Y85581D01*
X56655Y85595D01*
X56671Y85612D01*
X56693Y85626D01*
X56695D01*
X56698Y85628D01*
X56704Y85630D01*
X56713Y85634D01*
X56735Y85639D01*
X56762Y85641D01*
X56773D01*
X56786Y85639D01*
X56804Y85634D01*
X56826Y85628D01*
X56849Y85617D01*
X56875Y85603D01*
X56902Y85583D01*
X56904Y85581D01*
X56915Y85572D01*
X56928Y85559D01*
X56948Y85539D01*
X56971Y85515D01*
X56997Y85484D01*
X57026Y85446D01*
X57057Y85401D01*
Y84600D01*
X57370D01*
Y85870D01*
X57095D01*
X57084Y85683D01*
X57082Y85686D01*
X57077Y85692D01*
X57073Y85701D01*
X57064Y85712D01*
X57042Y85741D01*
X57013Y85770D01*
X57011Y85772D01*
X57006Y85777D01*
X56997Y85783D01*
X56986Y85794D01*
X56960Y85814D01*
X56926Y85837D01*
X56924Y85839D01*
X56917Y85841D01*
X56908Y85848D01*
X56895Y85852D01*
X56880Y85861D01*
X56860Y85868D01*
X56820Y85881D01*
X56817D01*
X56809Y85883D01*
X56797Y85885D01*
X56782Y85890D01*
X56762Y85892D01*
X56740Y85894D01*
X56691Y85896D01*
D02*
G37*
G36*
X59748Y86243D02*
X59490D01*
Y84871D01*
X59131D01*
Y84600D01*
X60218D01*
Y84871D01*
X59803D01*
Y85919D01*
X60167Y85721D01*
X60265Y85970D01*
X59748Y86243D01*
D02*
G37*
G36*
X52711D02*
X52453D01*
Y84871D01*
X52093D01*
Y84600D01*
X53181D01*
Y84871D01*
X52766D01*
Y85919D01*
X53130Y85721D01*
X53228Y85970D01*
X52711Y86243D01*
D02*
G37*
%LPD*%
G36*
X55490Y85668D02*
X55510Y85666D01*
X55537Y85661D01*
X55568Y85650D01*
X55599Y85637D01*
X55630Y85619D01*
X55659Y85592D01*
X55661Y85588D01*
X55670Y85579D01*
X55683Y85561D01*
X55696Y85537D01*
X55712Y85506D01*
X55725Y85468D01*
X55739Y85426D01*
X55745Y85377D01*
X55219D01*
Y85379D01*
Y85390D01*
Y85404D01*
X55221Y85421D01*
X55224Y85441D01*
X55228Y85461D01*
X55239Y85506D01*
Y85508D01*
X55243Y85515D01*
X55248Y85526D01*
X55252Y85539D01*
X55270Y85568D01*
X55295Y85597D01*
X55297Y85599D01*
X55301Y85603D01*
X55308Y85610D01*
X55317Y85619D01*
X55341Y85637D01*
X55374Y85652D01*
X55377D01*
X55381Y85654D01*
X55392Y85659D01*
X55403Y85661D01*
X55417Y85666D01*
X55434Y85668D01*
X55470Y85670D01*
X55481D01*
X55490Y85668D01*
D02*
G37*
G36*
X66774Y85981D02*
X66796Y85979D01*
X66821Y85974D01*
X66845Y85967D01*
X66872Y85959D01*
X66896Y85945D01*
X66898Y85943D01*
X66907Y85939D01*
X66918Y85930D01*
X66932Y85919D01*
X66949Y85903D01*
X66967Y85883D01*
X66983Y85861D01*
X67000Y85837D01*
X67003Y85834D01*
X67007Y85823D01*
X67014Y85808D01*
X67023Y85788D01*
X67031Y85763D01*
X67043Y85732D01*
X67051Y85699D01*
X67058Y85661D01*
Y85659D01*
Y85657D01*
X67060Y85650D01*
Y85643D01*
X67063Y85621D01*
X67067Y85592D01*
X67069Y85557D01*
X67074Y85517D01*
X67076Y85470D01*
Y85421D01*
Y85419D01*
Y85408D01*
Y85395D01*
X67074Y85375D01*
Y85350D01*
X67071Y85324D01*
X67069Y85293D01*
X67067Y85259D01*
X67056Y85191D01*
X67043Y85117D01*
X67025Y85051D01*
X67012Y85020D01*
X66998Y84991D01*
Y84988D01*
X66994Y84984D01*
X66989Y84977D01*
X66983Y84969D01*
X66965Y84946D01*
X66936Y84920D01*
X66903Y84893D01*
X66858Y84871D01*
X66832Y84862D01*
X66805Y84855D01*
X66774Y84851D01*
X66743Y84849D01*
X66727D01*
X66712Y84851D01*
X66690Y84853D01*
X66667Y84858D01*
X66641Y84864D01*
X66616Y84873D01*
X66592Y84884D01*
X66590Y84886D01*
X66581Y84891D01*
X66570Y84900D01*
X66554Y84913D01*
X66539Y84926D01*
X66521Y84946D01*
X66503Y84969D01*
X66488Y84993D01*
X66485Y84995D01*
X66481Y85006D01*
X66474Y85022D01*
X66465Y85042D01*
X66457Y85066D01*
X66445Y85097D01*
X66437Y85131D01*
X66430Y85168D01*
Y85171D01*
Y85173D01*
X66428Y85179D01*
Y85186D01*
X66423Y85208D01*
X66419Y85237D01*
X66417Y85273D01*
X66412Y85313D01*
X66410Y85359D01*
Y85408D01*
Y85413D01*
Y85421D01*
Y85435D01*
X66412Y85455D01*
Y85479D01*
X66414Y85508D01*
X66417Y85537D01*
X66419Y85570D01*
X66430Y85641D01*
X66443Y85712D01*
X66461Y85779D01*
X66474Y85810D01*
X66488Y85839D01*
Y85841D01*
X66492Y85845D01*
X66496Y85852D01*
X66503Y85861D01*
X66521Y85885D01*
X66548Y85912D01*
X66583Y85936D01*
X66627Y85961D01*
X66654Y85970D01*
X66681Y85976D01*
X66710Y85981D01*
X66743Y85983D01*
X66758D01*
X66774Y85981D01*
D02*
G37*
G36*
X61140Y86010D02*
X61155Y86007D01*
X61175Y86003D01*
X61197Y85996D01*
X61222Y85987D01*
X61244Y85974D01*
X61246Y85972D01*
X61253Y85967D01*
X61266Y85959D01*
X61280Y85948D01*
X61295Y85932D01*
X61313Y85914D01*
X61331Y85892D01*
X61348Y85865D01*
X61351Y85863D01*
X61355Y85852D01*
X61364Y85837D01*
X61373Y85814D01*
X61386Y85788D01*
X61397Y85757D01*
X61408Y85721D01*
X61419Y85681D01*
Y85679D01*
Y85677D01*
X61422Y85670D01*
X61424Y85661D01*
X61426Y85639D01*
X61431Y85606D01*
X61435Y85568D01*
X61439Y85523D01*
X61442Y85472D01*
X61444Y85417D01*
Y85413D01*
Y85401D01*
Y85388D01*
Y85370D01*
Y85366D01*
Y85357D01*
Y85344D01*
X61442Y85328D01*
X60829Y85770D01*
Y85772D01*
X60831Y85774D01*
X60833Y85781D01*
X60838Y85790D01*
X60847Y85812D01*
X60860Y85839D01*
X60876Y85868D01*
X60896Y85899D01*
X60920Y85928D01*
X60944Y85952D01*
X60947Y85954D01*
X60958Y85961D01*
X60971Y85972D01*
X60991Y85983D01*
X61018Y85992D01*
X61046Y86003D01*
X61078Y86010D01*
X61113Y86012D01*
X61124D01*
X61140Y86010D01*
D02*
G37*
G36*
X61397Y85060D02*
Y85057D01*
X61395Y85055D01*
X61393Y85048D01*
X61388Y85040D01*
X61379Y85017D01*
X61366Y84991D01*
X61351Y84962D01*
X61331Y84931D01*
X61308Y84902D01*
X61284Y84878D01*
X61280Y84875D01*
X61271Y84869D01*
X61255Y84860D01*
X61235Y84849D01*
X61211Y84838D01*
X61182Y84829D01*
X61151Y84822D01*
X61115Y84820D01*
X61104D01*
X61089Y84822D01*
X61073Y84824D01*
X61053Y84829D01*
X61031Y84835D01*
X61007Y84844D01*
X60984Y84855D01*
X60982Y84858D01*
X60973Y84862D01*
X60962Y84871D01*
X60947Y84882D01*
X60931Y84897D01*
X60913Y84915D01*
X60896Y84937D01*
X60878Y84964D01*
X60876Y84969D01*
X60871Y84977D01*
X60862Y84993D01*
X60853Y85015D01*
X60842Y85042D01*
X60829Y85073D01*
X60818Y85108D01*
X60809Y85148D01*
Y85151D01*
X60807Y85153D01*
Y85159D01*
X60805Y85168D01*
X60800Y85193D01*
X60796Y85224D01*
X60791Y85262D01*
X60787Y85308D01*
X60782Y85357D01*
Y85413D01*
Y85417D01*
Y85426D01*
Y85441D01*
X60785Y85457D01*
Y85461D01*
Y85470D01*
X60787Y85484D01*
Y85499D01*
X61397Y85060D01*
D02*
G37*
%LPC*%
G36*
X43400Y53211D02*
X43307Y53207D01*
X43214Y53193D01*
X43124Y53170D01*
X43036Y53139D01*
X42952Y53099D01*
X42872Y53051D01*
X42797Y52995D01*
X42727Y52933D01*
X42665Y52863D01*
X42609Y52788D01*
X42561Y52708D01*
X42521Y52624D01*
X42490Y52536D01*
X42467Y52446D01*
X42453Y52353D01*
X42449Y52260D01*
X42453Y52167D01*
X42467Y52074D01*
X42490Y51984D01*
X42521Y51896D01*
X42561Y51812D01*
X42609Y51732D01*
X42665Y51657D01*
X42727Y51587D01*
X42797Y51525D01*
X42872Y51469D01*
X42952Y51421D01*
X43036Y51381D01*
X43124Y51350D01*
X43214Y51327D01*
X43307Y51313D01*
X43400Y51309D01*
X43493Y51313D01*
X43586Y51327D01*
X43676Y51350D01*
X43764Y51381D01*
X43848Y51421D01*
X43928Y51469D01*
X44003Y51525D01*
X44073Y51587D01*
X44135Y51657D01*
X44191Y51732D01*
X44239Y51812D01*
X44279Y51896D01*
X44310Y51984D01*
X44333Y52074D01*
X44347Y52167D01*
X44351Y52260D01*
X44347Y52353D01*
X44333Y52446D01*
X44310Y52536D01*
X44279Y52624D01*
X44239Y52708D01*
X44191Y52788D01*
X44135Y52863D01*
X44073Y52933D01*
X44003Y52995D01*
X43928Y53051D01*
X43848Y53099D01*
X43764Y53139D01*
X43676Y53170D01*
X43586Y53193D01*
X43493Y53207D01*
X43400Y53211D01*
D02*
G37*
G36*
X40700Y52788D02*
X40143Y52231D01*
X40172Y52209D01*
X40252Y52161D01*
X40336Y52121D01*
X40424Y52090D01*
X40514Y52067D01*
X40607Y52053D01*
X40700Y52049D01*
X40793Y52053D01*
X40886Y52067D01*
X40976Y52090D01*
X41064Y52121D01*
X41148Y52161D01*
X41228Y52209D01*
X41257Y52231D01*
X40700Y52788D01*
D02*
G37*
G36*
X27880Y52968D02*
X27323Y52411D01*
X27352Y52389D01*
X27432Y52341D01*
X27516Y52301D01*
X27604Y52270D01*
X27694Y52247D01*
X27787Y52233D01*
X27880Y52229D01*
X27973Y52233D01*
X28066Y52247D01*
X28156Y52270D01*
X28244Y52301D01*
X28328Y52341D01*
X28408Y52389D01*
X28437Y52411D01*
X27880Y52968D01*
D02*
G37*
G36*
X15019Y29607D02*
X14212Y28800D01*
X15019Y27993D01*
X15066Y28054D01*
X15127Y28149D01*
X15179Y28250D01*
X15223Y28355D01*
X15257Y28463D01*
X15281Y28574D01*
X15296Y28687D01*
X15301Y28800D01*
X15296Y28913D01*
X15281Y29026D01*
X15257Y29137D01*
X15223Y29245D01*
X15179Y29350D01*
X15127Y29451D01*
X15066Y29546D01*
X15019Y29607D01*
D02*
G37*
G36*
X46300Y55076D02*
X46204Y55071D01*
X46110Y55057D01*
X46017Y55034D01*
X45926Y55002D01*
X45840Y54961D01*
X45758Y54912D01*
X45681Y54855D01*
X45610Y54790D01*
X45545Y54719D01*
X45488Y54642D01*
X45439Y54560D01*
X45398Y54474D01*
X45366Y54383D01*
X45343Y54290D01*
X45329Y54196D01*
X45324Y54100D01*
X45329Y54004D01*
X45343Y53910D01*
X45366Y53817D01*
X45398Y53726D01*
X45439Y53640D01*
X45488Y53558D01*
X45545Y53481D01*
X45565Y53409D01*
X45568Y53255D01*
X45563Y53208D01*
X45528Y53055D01*
X45497Y52995D01*
X45427Y52933D01*
X45365Y52863D01*
X45309Y52788D01*
X45261Y52708D01*
X45221Y52624D01*
X45190Y52536D01*
X45167Y52446D01*
X45153Y52353D01*
X45149Y52260D01*
X45153Y52167D01*
X45167Y52074D01*
X45190Y51984D01*
X45221Y51896D01*
X45261Y51812D01*
X45309Y51732D01*
X45365Y51657D01*
X45427Y51587D01*
X45497Y51525D01*
X45572Y51469D01*
X45652Y51421D01*
X45736Y51381D01*
X45824Y51350D01*
X45914Y51327D01*
X45947Y51095D01*
X45941Y50942D01*
X45916Y50933D01*
X45911Y50930D01*
X45905Y50928D01*
X45881Y50916D01*
X45857Y50904D01*
X45852Y50901D01*
X45847Y50898D01*
X45825Y50882D01*
X45802Y50867D01*
X45798Y50864D01*
X45793Y50860D01*
X45773Y50842D01*
X45753Y50824D01*
X45749Y50820D01*
X45745Y50816D01*
X45728Y50795D01*
X45710Y50775D01*
X45707Y50770D01*
X45703Y50766D01*
X45689Y50743D01*
X45674Y50721D01*
X45671Y50715D01*
X45668Y50710D01*
X45657Y50686D01*
X45645Y50662D01*
X45643Y50656D01*
X45640Y50651D01*
X45632Y50625D01*
X45624Y50600D01*
X45622Y50594D01*
X45621Y50588D01*
X45616Y50562D01*
X45611Y50535D01*
X45611Y50534D01*
X45572Y50511D01*
X45497Y50455D01*
X45427Y50393D01*
X45365Y50323D01*
X45309Y50248D01*
X45261Y50168D01*
X45221Y50084D01*
X45190Y49996D01*
X45167Y49906D01*
X45153Y49813D01*
X45141Y49797D01*
X44929Y49675D01*
X44752Y49640D01*
X44688Y49693D01*
X44649Y49751D01*
X44647Y49778D01*
X44646Y49784D01*
X44645Y49789D01*
X44639Y49816D01*
X44634Y49842D01*
X44632Y49848D01*
X44631Y49853D01*
X44622Y49879D01*
X44613Y49904D01*
X44610Y49909D01*
X44608Y49915D01*
X44596Y49939D01*
X44584Y49963D01*
X44581Y49968D01*
X44578Y49973D01*
X44562Y49995D01*
X44547Y50018D01*
X44544Y50022D01*
X44540Y50027D01*
X44522Y50047D01*
X44504Y50067D01*
X44500Y50071D01*
X44496Y50075D01*
X44475Y50092D01*
X44455Y50110D01*
X44450Y50113D01*
X44446Y50117D01*
X44423Y50131D01*
X44401Y50146D01*
X44395Y50149D01*
X44390Y50152D01*
X44366Y50164D01*
X44342Y50175D01*
X44336Y50177D01*
X44331Y50180D01*
X44305Y50188D01*
X44280Y50196D01*
X44274Y50198D01*
X44268Y50199D01*
X44242Y50204D01*
X44215Y50209D01*
X44214Y50209D01*
X44191Y50248D01*
X44135Y50323D01*
X44073Y50393D01*
X44003Y50455D01*
X43928Y50511D01*
X43848Y50559D01*
X43764Y50599D01*
X43676Y50630D01*
X43586Y50653D01*
X43493Y50667D01*
X43400Y50671D01*
X43307Y50667D01*
X43214Y50653D01*
X43124Y50630D01*
X43036Y50599D01*
X42952Y50559D01*
X42872Y50511D01*
X42797Y50455D01*
X42727Y50393D01*
X42665Y50323D01*
X42652Y50306D01*
X42646Y50306D01*
X42616Y50306D01*
X42613Y50305D01*
X42611Y50305D01*
X42581Y50301D01*
X42551Y50296D01*
X42548Y50296D01*
X42546Y50295D01*
X42517Y50287D01*
X42488Y50278D01*
X42485Y50277D01*
X42483Y50277D01*
X42455Y50264D01*
X42427Y50253D01*
X42425Y50251D01*
X42423Y50250D01*
X42397Y50234D01*
X42371Y50219D01*
X42369Y50218D01*
X42367Y50216D01*
X42343Y50197D01*
X42320Y50178D01*
X42318Y50177D01*
X42316Y50175D01*
X42295Y50153D01*
X42274Y50131D01*
X42274Y50131D01*
X42210Y50120D01*
X41984Y50091D01*
X41940Y50089D01*
X41826Y50121D01*
X41667Y50339D01*
X41649Y50411D01*
X41651Y50460D01*
X41647Y50553D01*
X41633Y50646D01*
X41610Y50736D01*
X41579Y50824D01*
X41539Y50908D01*
X41491Y50988D01*
X41435Y51063D01*
X41373Y51133D01*
X41303Y51195D01*
X41228Y51251D01*
X41148Y51299D01*
X41064Y51339D01*
X40976Y51370D01*
X40886Y51393D01*
X40793Y51407D01*
X40700Y51411D01*
X40607Y51407D01*
X40514Y51393D01*
X40424Y51370D01*
X40336Y51339D01*
X40252Y51299D01*
X40172Y51251D01*
X40097Y51195D01*
X40027Y51133D01*
X39965Y51063D01*
X39909Y50988D01*
X39861Y50908D01*
X39821Y50824D01*
X39790Y50736D01*
X39767Y50646D01*
X39753Y50553D01*
X39749Y50460D01*
X39751Y50411D01*
X39733Y50339D01*
X39553Y50093D01*
X39497Y50045D01*
X39427Y50011D01*
X36949D01*
X36876Y50052D01*
X36798Y50084D01*
X36739Y50101D01*
X36705Y50117D01*
X36642Y50170D01*
X36491Y50375D01*
X36476Y50403D01*
X36444Y50526D01*
X36447Y50547D01*
X36451Y50640D01*
X36447Y50733D01*
X36433Y50826D01*
X36410Y50916D01*
X36379Y51004D01*
X36339Y51088D01*
X36291Y51168D01*
X36235Y51243D01*
X36173Y51313D01*
X36103Y51375D01*
X36028Y51431D01*
X35948Y51479D01*
X35864Y51519D01*
X35776Y51550D01*
X35686Y51573D01*
X35593Y51587D01*
X35500Y51591D01*
X35407Y51587D01*
X35314Y51573D01*
X35224Y51550D01*
X35136Y51519D01*
X35052Y51479D01*
X34972Y51431D01*
X34897Y51375D01*
X34827Y51313D01*
X34765Y51243D01*
X34709Y51168D01*
X34661Y51088D01*
X34621Y51004D01*
X34590Y50916D01*
X34567Y50826D01*
X34553Y50733D01*
X34549Y50640D01*
X34553Y50547D01*
X34556Y50526D01*
X34442Y50297D01*
X34369Y50206D01*
X34258Y50126D01*
X31695D01*
X31695Y50126D01*
X31611Y50121D01*
X31528Y50107D01*
X31447Y50084D01*
X31369Y50052D01*
X31295Y50011D01*
X31227Y49962D01*
X31164Y49906D01*
X29219Y47961D01*
X29170Y47967D01*
X28926Y48063D01*
X28829Y48137D01*
X28827Y48193D01*
X28813Y48286D01*
X28790Y48376D01*
X28759Y48464D01*
X28719Y48548D01*
X28671Y48628D01*
X28615Y48703D01*
X28553Y48773D01*
X28483Y48835D01*
X28408Y48891D01*
X28328Y48939D01*
X28244Y48979D01*
X28156Y49010D01*
X28066Y49033D01*
X27973Y49047D01*
X27880Y49051D01*
X27787Y49047D01*
X27694Y49033D01*
X27604Y49010D01*
X27516Y48979D01*
X27432Y48939D01*
X27352Y48891D01*
X27277Y48835D01*
X27207Y48773D01*
X27145Y48703D01*
X27089Y48628D01*
X27041Y48548D01*
X27001Y48464D01*
X26970Y48376D01*
X26947Y48286D01*
X26933Y48193D01*
X26929Y48100D01*
X26933Y48007D01*
X26947Y47914D01*
X26970Y47824D01*
X27001Y47736D01*
X27041Y47652D01*
X27089Y47572D01*
X27145Y47497D01*
X27207Y47427D01*
X27277Y47365D01*
X27352Y47309D01*
X27432Y47261D01*
X27516Y47221D01*
X27604Y47190D01*
X27694Y47167D01*
X27727Y46935D01*
X27721Y46782D01*
X27696Y46773D01*
X27691Y46770D01*
X27685Y46768D01*
X27661Y46756D01*
X27637Y46744D01*
X27632Y46741D01*
X27627Y46738D01*
X27605Y46722D01*
X27582Y46707D01*
X27578Y46704D01*
X27573Y46700D01*
X27553Y46682D01*
X27533Y46664D01*
X27529Y46660D01*
X27525Y46656D01*
X27508Y46635D01*
X27490Y46615D01*
X27487Y46610D01*
X27483Y46606D01*
X27469Y46583D01*
X27454Y46561D01*
X27451Y46555D01*
X27448Y46550D01*
X27437Y46526D01*
X27425Y46502D01*
X27423Y46496D01*
X27420Y46491D01*
X27412Y46465D01*
X27403Y46440D01*
X27402Y46434D01*
X27401Y46428D01*
X27396Y46402D01*
X27391Y46375D01*
X27391Y46374D01*
X27352Y46351D01*
X27277Y46295D01*
X27207Y46233D01*
X27145Y46163D01*
X27089Y46088D01*
X27041Y46008D01*
X27001Y45924D01*
X26970Y45836D01*
X26947Y45746D01*
X26933Y45653D01*
X26929Y45560D01*
X26933Y45467D01*
X26947Y45374D01*
X26970Y45284D01*
X27001Y45196D01*
X27041Y45112D01*
X27089Y45032D01*
X27145Y44957D01*
X27207Y44887D01*
X27277Y44825D01*
X27352Y44769D01*
X27432Y44721D01*
X27516Y44681D01*
X27604Y44650D01*
X27694Y44627D01*
X27787Y44613D01*
X27880Y44609D01*
X27973Y44613D01*
X28066Y44627D01*
X28156Y44650D01*
X28244Y44681D01*
X28328Y44721D01*
X28408Y44769D01*
X28483Y44825D01*
X28553Y44887D01*
X28615Y44957D01*
X28671Y45032D01*
X28694Y45071D01*
X28695Y45071D01*
X28722Y45076D01*
X28748Y45081D01*
X28754Y45082D01*
X28760Y45084D01*
X28785Y45092D01*
X28811Y45100D01*
X28816Y45103D01*
X28822Y45105D01*
X28846Y45117D01*
X28870Y45128D01*
X28875Y45131D01*
X28881Y45134D01*
X28903Y45149D01*
X28926Y45163D01*
X28930Y45167D01*
X28935Y45170D01*
X28955Y45188D01*
X28976Y45205D01*
X28980Y45209D01*
X28984Y45213D01*
X29002Y45233D01*
X29020Y45253D01*
X29024Y45258D01*
X29027Y45262D01*
X29042Y45285D01*
X29058Y45307D01*
X29061Y45312D01*
X29064Y45317D01*
X29076Y45341D01*
X29088Y45365D01*
X29090Y45371D01*
X29093Y45376D01*
X29102Y45401D01*
X29111Y45427D01*
X29112Y45432D01*
X29114Y45438D01*
X29119Y45464D01*
X29125Y45491D01*
X29126Y45496D01*
X29127Y45502D01*
X29129Y45529D01*
X29131Y45556D01*
X29132Y45614D01*
X29136Y45651D01*
X29141Y45683D01*
X29148Y45712D01*
X29157Y45738D01*
X29167Y45761D01*
X29179Y45783D01*
X29193Y45804D01*
X29210Y45825D01*
X29234Y45852D01*
X32006Y48624D01*
X34259D01*
X34278Y48615D01*
X34376Y48540D01*
X34493Y48384D01*
X34558Y48224D01*
X34553Y48193D01*
X34549Y48100D01*
X34553Y48007D01*
X34567Y47914D01*
X34590Y47824D01*
X34621Y47736D01*
X34661Y47652D01*
X34709Y47572D01*
X34765Y47497D01*
X34827Y47427D01*
X34897Y47365D01*
X34972Y47309D01*
X35052Y47261D01*
X35136Y47221D01*
X35224Y47190D01*
X35314Y47167D01*
X35407Y47153D01*
X35500Y47149D01*
X35593Y47153D01*
X35686Y47167D01*
X35776Y47190D01*
X35864Y47221D01*
X35948Y47261D01*
X36028Y47309D01*
X36103Y47365D01*
X36173Y47427D01*
X36235Y47497D01*
X36291Y47572D01*
X36339Y47652D01*
X36379Y47736D01*
X36410Y47824D01*
X36433Y47914D01*
X36447Y48007D01*
X36451Y48100D01*
X36450Y48130D01*
X36480Y48219D01*
X36515Y48275D01*
X36665Y48439D01*
X36755Y48498D01*
X36787Y48509D01*
X39485D01*
X39579Y48446D01*
X39617Y48401D01*
X39768Y48109D01*
X39767Y48106D01*
X39753Y48013D01*
X39749Y47920D01*
X39753Y47827D01*
X39767Y47734D01*
X39790Y47644D01*
X39821Y47556D01*
X39861Y47472D01*
X39909Y47392D01*
X39965Y47317D01*
X40027Y47247D01*
X40097Y47185D01*
X40172Y47129D01*
X40252Y47081D01*
X40336Y47041D01*
X40424Y47010D01*
X40514Y46987D01*
X40607Y46973D01*
X40700Y46969D01*
X40793Y46973D01*
X40886Y46987D01*
X40976Y47010D01*
X41064Y47041D01*
X41148Y47081D01*
X41228Y47129D01*
X41303Y47185D01*
X41373Y47247D01*
X41435Y47317D01*
X41491Y47392D01*
X41539Y47472D01*
X41579Y47556D01*
X41610Y47644D01*
X41633Y47734D01*
X41647Y47827D01*
X41651Y47920D01*
X41647Y48013D01*
X41633Y48106D01*
X41632Y48109D01*
X41783Y48401D01*
X41821Y48446D01*
X41915Y48509D01*
X42374D01*
X42751Y48506D01*
X42869Y48421D01*
X42902Y48261D01*
X42879Y48040D01*
X42839Y47947D01*
X42797Y47915D01*
X42727Y47853D01*
X42665Y47783D01*
X42609Y47708D01*
X42561Y47628D01*
X42521Y47544D01*
X42490Y47456D01*
X42467Y47366D01*
X42453Y47273D01*
X42449Y47180D01*
X42453Y47087D01*
X42467Y46994D01*
X42490Y46904D01*
X42521Y46816D01*
X42561Y46732D01*
X42609Y46652D01*
X42665Y46577D01*
X42727Y46507D01*
X42797Y46445D01*
X42872Y46389D01*
X42952Y46341D01*
X43036Y46301D01*
X43124Y46270D01*
X43214Y46247D01*
X43307Y46233D01*
X43400Y46229D01*
X43493Y46233D01*
X43586Y46247D01*
X43676Y46270D01*
X43764Y46301D01*
X43848Y46341D01*
X43928Y46389D01*
X44003Y46445D01*
X44073Y46507D01*
X44135Y46577D01*
X44191Y46652D01*
X44239Y46732D01*
X44279Y46816D01*
X44310Y46904D01*
X44323Y46955D01*
X44520Y47060D01*
X44651Y47105D01*
X44748Y47111D01*
X44763Y47103D01*
X44863Y46991D01*
X44870Y46963D01*
X44876Y46935D01*
X44878Y46931D01*
X44879Y46927D01*
X44889Y46900D01*
X44899Y46873D01*
X44900Y46869D01*
X44902Y46866D01*
X44916Y46840D01*
X44929Y46815D01*
X44931Y46812D01*
X44933Y46808D01*
X44950Y46785D01*
X44966Y46761D01*
X44969Y46758D01*
X44971Y46755D01*
X44991Y46734D01*
X45011Y46713D01*
X45014Y46710D01*
X45016Y46707D01*
X45039Y46689D01*
X45061Y46671D01*
X45064Y46668D01*
X45067Y46666D01*
X45092Y46651D01*
X45116Y46635D01*
X45120Y46634D01*
X45123Y46631D01*
X45149Y46620D01*
X45175Y46608D01*
X45179Y46606D01*
X45183Y46605D01*
X45210Y46596D01*
X45238Y46588D01*
X45242Y46587D01*
X45246Y46586D01*
X45274Y46581D01*
X45302Y46576D01*
X45306Y46576D01*
X45310Y46575D01*
X45339Y46575D01*
X45368Y46573D01*
X45427Y46507D01*
X45497Y46445D01*
X45572Y46389D01*
X45652Y46341D01*
X45736Y46301D01*
X45824Y46270D01*
X45914Y46247D01*
X46007Y46233D01*
X46100Y46229D01*
X46193Y46233D01*
X46286Y46247D01*
X46376Y46270D01*
X46464Y46301D01*
X46548Y46341D01*
X46628Y46389D01*
X46703Y46445D01*
X46773Y46507D01*
X46835Y46577D01*
X46891Y46652D01*
X46939Y46732D01*
X46979Y46816D01*
X47010Y46904D01*
X47033Y46994D01*
X47047Y47087D01*
X47051Y47180D01*
X47047Y47261D01*
X47053Y47266D01*
X47074Y47286D01*
X47076Y47289D01*
X47079Y47292D01*
X47097Y47315D01*
X47115Y47338D01*
X47117Y47341D01*
X47119Y47344D01*
X47134Y47369D01*
X47149Y47394D01*
X47150Y47397D01*
X47152Y47400D01*
X47164Y47427D01*
X47175Y47454D01*
X47176Y47457D01*
X47178Y47461D01*
X47185Y47489D01*
X47193Y47517D01*
X47194Y47520D01*
X47195Y47524D01*
X47199Y47553D01*
X47203Y47582D01*
X47203Y47585D01*
X47204Y47589D01*
X47204Y47618D01*
X47205Y47647D01*
X47204Y47651D01*
X47204Y47654D01*
X47201Y47683D01*
X47197Y47712D01*
X47197Y47716D01*
X47196Y47719D01*
X47189Y47748D01*
X47182Y47776D01*
X47180Y47779D01*
X47180Y47783D01*
X47170Y47807D01*
X49231Y49869D01*
X49287Y49932D01*
X49336Y50000D01*
X49377Y50074D01*
X49409Y50152D01*
X49432Y50233D01*
X49446Y50316D01*
X49451Y50400D01*
Y50961D01*
X49452Y50992D01*
X49453Y51017D01*
X49453Y51021D01*
X49491Y51072D01*
X49539Y51152D01*
X49579Y51236D01*
X49610Y51324D01*
X49633Y51414D01*
X49647Y51507D01*
X49651Y51600D01*
X49647Y51693D01*
X49633Y51786D01*
X49610Y51876D01*
X49579Y51964D01*
X49539Y52048D01*
X49491Y52128D01*
X49435Y52203D01*
X49373Y52273D01*
X49303Y52335D01*
X49228Y52391D01*
X49148Y52439D01*
X49064Y52479D01*
X48976Y52510D01*
X48886Y52533D01*
X48793Y52547D01*
X48700Y52551D01*
X48467Y52717D01*
X48368Y52838D01*
X48353Y52870D01*
X48343Y52902D01*
X48332Y52967D01*
X48309Y53048D01*
X48277Y53126D01*
X48236Y53200D01*
X48187Y53268D01*
X48131Y53331D01*
X47316Y54146D01*
X47297Y54166D01*
X47271Y54195D01*
X47271Y54196D01*
X47257Y54290D01*
X47234Y54383D01*
X47202Y54474D01*
X47161Y54560D01*
X47112Y54642D01*
X47055Y54719D01*
X46990Y54790D01*
X46919Y54855D01*
X46842Y54912D01*
X46760Y54961D01*
X46674Y55002D01*
X46583Y55034D01*
X46490Y55057D01*
X46396Y55071D01*
X46300Y55076D01*
D02*
G37*
G36*
X27880Y51591D02*
X27787Y51587D01*
X27694Y51573D01*
X27604Y51550D01*
X27516Y51519D01*
X27432Y51479D01*
X27352Y51431D01*
X27277Y51375D01*
X27207Y51313D01*
X27145Y51243D01*
X27089Y51168D01*
X27041Y51088D01*
X27001Y51004D01*
X26970Y50916D01*
X26947Y50826D01*
X26933Y50733D01*
X26929Y50640D01*
X26933Y50547D01*
X26947Y50454D01*
X26970Y50364D01*
X27001Y50276D01*
X27041Y50192D01*
X27089Y50112D01*
X27145Y50037D01*
X27207Y49967D01*
X27277Y49905D01*
X27352Y49849D01*
X27432Y49801D01*
X27516Y49761D01*
X27604Y49730D01*
X27694Y49707D01*
X27787Y49693D01*
X27880Y49689D01*
X27973Y49693D01*
X28066Y49707D01*
X28156Y49730D01*
X28244Y49761D01*
X28328Y49801D01*
X28408Y49849D01*
X28483Y49905D01*
X28553Y49967D01*
X28615Y50037D01*
X28671Y50112D01*
X28719Y50192D01*
X28759Y50276D01*
X28790Y50364D01*
X28813Y50454D01*
X28827Y50547D01*
X28831Y50640D01*
X28827Y50733D01*
X28813Y50826D01*
X28790Y50916D01*
X28759Y51004D01*
X28719Y51088D01*
X28671Y51168D01*
X28615Y51243D01*
X28553Y51313D01*
X28483Y51375D01*
X28408Y51431D01*
X28328Y51479D01*
X28244Y51519D01*
X28156Y51550D01*
X28066Y51573D01*
X27973Y51587D01*
X27880Y51591D01*
D02*
G37*
G36*
X7000Y30101D02*
X6887Y30096D01*
X6774Y30081D01*
X6663Y30057D01*
X6555Y30023D01*
X6450Y29979D01*
X6349Y29927D01*
X6254Y29866D01*
X6193Y29819D01*
X7000Y29012D01*
X7807Y29819D01*
X7746Y29866D01*
X7651Y29927D01*
X7550Y29979D01*
X7445Y30023D01*
X7337Y30057D01*
X7226Y30081D01*
X7113Y30096D01*
X7000Y30101D01*
D02*
G37*
G36*
X28649Y53737D02*
X28092Y53180D01*
X28649Y52623D01*
X28671Y52652D01*
X28719Y52732D01*
X28759Y52816D01*
X28790Y52904D01*
X28813Y52994D01*
X28827Y53087D01*
X28831Y53180D01*
X28827Y53273D01*
X28813Y53366D01*
X28790Y53456D01*
X28759Y53544D01*
X28719Y53628D01*
X28671Y53708D01*
X28649Y53737D01*
D02*
G37*
G36*
X40700Y53951D02*
X40607Y53947D01*
X40514Y53933D01*
X40424Y53910D01*
X40336Y53879D01*
X40252Y53839D01*
X40172Y53791D01*
X40143Y53769D01*
X40700Y53212D01*
X41257Y53769D01*
X41228Y53791D01*
X41148Y53839D01*
X41064Y53879D01*
X40976Y53910D01*
X40886Y53933D01*
X40793Y53947D01*
X40700Y53951D01*
D02*
G37*
G36*
X27880Y54131D02*
X27787Y54127D01*
X27694Y54113D01*
X27604Y54090D01*
X27516Y54059D01*
X27432Y54019D01*
X27352Y53971D01*
X27323Y53949D01*
X27880Y53392D01*
X28437Y53949D01*
X28408Y53971D01*
X28328Y54019D01*
X28244Y54059D01*
X28156Y54090D01*
X28066Y54113D01*
X27973Y54127D01*
X27880Y54131D01*
D02*
G37*
G36*
X27111Y53737D02*
X27089Y53708D01*
X27041Y53628D01*
X27001Y53544D01*
X26970Y53456D01*
X26947Y53366D01*
X26933Y53273D01*
X26929Y53180D01*
X26933Y53087D01*
X26947Y52994D01*
X26970Y52904D01*
X27001Y52816D01*
X27041Y52732D01*
X27089Y52652D01*
X27111Y52623D01*
X27668Y53180D01*
X27111Y53737D01*
D02*
G37*
G36*
X35500Y54131D02*
X35407Y54127D01*
X35314Y54113D01*
X35224Y54090D01*
X35136Y54059D01*
X35052Y54019D01*
X34972Y53971D01*
X34897Y53915D01*
X34827Y53853D01*
X34765Y53783D01*
X34709Y53708D01*
X34661Y53628D01*
X34621Y53544D01*
X34590Y53456D01*
X34567Y53366D01*
X34553Y53273D01*
X34549Y53180D01*
X34553Y53087D01*
X34567Y52994D01*
X34590Y52904D01*
X34621Y52816D01*
X34661Y52732D01*
X34709Y52652D01*
X34765Y52577D01*
X34827Y52507D01*
X34897Y52445D01*
X34972Y52389D01*
X35052Y52341D01*
X35136Y52301D01*
X35224Y52270D01*
X35314Y52247D01*
X35407Y52233D01*
X35500Y52229D01*
X35593Y52233D01*
X35686Y52247D01*
X35776Y52270D01*
X35864Y52301D01*
X35948Y52341D01*
X36028Y52389D01*
X36103Y52445D01*
X36173Y52507D01*
X36235Y52577D01*
X36291Y52652D01*
X36339Y52732D01*
X36379Y52816D01*
X36410Y52904D01*
X36433Y52994D01*
X36447Y53087D01*
X36451Y53180D01*
X36447Y53273D01*
X36433Y53366D01*
X36410Y53456D01*
X36379Y53544D01*
X36339Y53628D01*
X36291Y53708D01*
X36235Y53783D01*
X36173Y53853D01*
X36103Y53915D01*
X36028Y53971D01*
X35948Y54019D01*
X35864Y54059D01*
X35776Y54090D01*
X35686Y54113D01*
X35593Y54127D01*
X35500Y54131D01*
D02*
G37*
G36*
X41469Y53557D02*
X40912Y53000D01*
X41469Y52443D01*
X41491Y52472D01*
X41539Y52552D01*
X41579Y52636D01*
X41610Y52724D01*
X41633Y52814D01*
X41647Y52907D01*
X41651Y53000D01*
X41647Y53093D01*
X41633Y53186D01*
X41610Y53276D01*
X41579Y53364D01*
X41539Y53448D01*
X41491Y53528D01*
X41469Y53557D01*
D02*
G37*
G36*
X39931Y53557D02*
X39909Y53528D01*
X39861Y53448D01*
X39821Y53364D01*
X39790Y53276D01*
X39767Y53186D01*
X39753Y53093D01*
X39749Y53000D01*
X39753Y52907D01*
X39767Y52814D01*
X39790Y52724D01*
X39821Y52636D01*
X39861Y52552D01*
X39909Y52472D01*
X39931Y52443D01*
X40488Y53000D01*
X39931Y53557D01*
D02*
G37*
G36*
X14000Y30101D02*
X13887Y30096D01*
X13774Y30081D01*
X13663Y30057D01*
X13555Y30023D01*
X13450Y29979D01*
X13349Y29927D01*
X13254Y29866D01*
X13193Y29819D01*
X14000Y29012D01*
X14807Y29819D01*
X14746Y29866D01*
X14651Y29927D01*
X14550Y29979D01*
X14445Y30023D01*
X14337Y30057D01*
X14226Y30081D01*
X14113Y30096D01*
X14000Y30101D01*
D02*
G37*
G36*
X46100Y43051D02*
X46007Y43047D01*
X45914Y43033D01*
X45824Y43010D01*
X45736Y42979D01*
X45652Y42939D01*
X45572Y42891D01*
X45497Y42835D01*
X45427Y42773D01*
X45365Y42703D01*
X45309Y42628D01*
X45261Y42548D01*
X45221Y42464D01*
X45190Y42376D01*
X45167Y42286D01*
X45153Y42193D01*
X45149Y42100D01*
X45152Y42026D01*
X45151Y42002D01*
X44966Y41715D01*
X44929Y41678D01*
X44836Y41626D01*
X44664D01*
X44571Y41678D01*
X44534Y41715D01*
X44349Y42002D01*
X44348Y42026D01*
X44351Y42100D01*
X44347Y42193D01*
X44333Y42286D01*
X44310Y42376D01*
X44279Y42464D01*
X44239Y42548D01*
X44191Y42628D01*
X44135Y42703D01*
X44073Y42773D01*
X44003Y42835D01*
X43928Y42891D01*
X43848Y42939D01*
X43764Y42979D01*
X43676Y43010D01*
X43586Y43033D01*
X43493Y43047D01*
X43400Y43051D01*
X43307Y43047D01*
X43214Y43033D01*
X43124Y43010D01*
X43036Y42979D01*
X42952Y42939D01*
X42872Y42891D01*
X42797Y42835D01*
X42727Y42773D01*
X42665Y42703D01*
X42609Y42628D01*
X42561Y42548D01*
X42521Y42464D01*
X42490Y42376D01*
X42467Y42286D01*
X42453Y42193D01*
X42449Y42100D01*
X42452Y42026D01*
X42451Y42002D01*
X42266Y41715D01*
X42229Y41678D01*
X42136Y41626D01*
X40275D01*
X40191Y41621D01*
X40108Y41607D01*
X40027Y41584D01*
X39949Y41552D01*
X39875Y41511D01*
X39807Y41462D01*
X39744Y41406D01*
X39744Y41406D01*
X38396Y40058D01*
X38374Y40037D01*
X38355Y40020D01*
X38352Y40017D01*
X38289Y40008D01*
X38199Y39985D01*
X38111Y39954D01*
X38027Y39914D01*
X37947Y39866D01*
X37872Y39810D01*
X37802Y39748D01*
X37740Y39678D01*
X37684Y39603D01*
X37636Y39523D01*
X37596Y39439D01*
X37565Y39351D01*
X37542Y39261D01*
X37528Y39168D01*
X37524Y39075D01*
X37528Y38982D01*
X37542Y38889D01*
X37565Y38799D01*
X37596Y38711D01*
X37636Y38627D01*
X37684Y38547D01*
X37740Y38472D01*
X37802Y38402D01*
X37872Y38340D01*
X37947Y38284D01*
X38027Y38236D01*
X38111Y38196D01*
X38199Y38165D01*
X38289Y38142D01*
X38382Y38128D01*
X38475Y38124D01*
X38568Y38128D01*
X38661Y38142D01*
X38751Y38165D01*
X38839Y38196D01*
X38923Y38236D01*
X39003Y38284D01*
X39078Y38340D01*
X39148Y38402D01*
X39210Y38472D01*
X39266Y38547D01*
X39314Y38627D01*
X39354Y38711D01*
X39385Y38799D01*
X39408Y38889D01*
X39417Y38950D01*
X39443Y38980D01*
X39458Y38996D01*
X40586Y40124D01*
X42450D01*
Y38822D01*
X43294Y39666D01*
X43400Y39560D01*
X43506Y39666D01*
X44350Y38822D01*
Y40124D01*
X45150D01*
Y38822D01*
X45994Y39666D01*
X46100Y39560D01*
X46206Y39666D01*
X47050Y38822D01*
Y40124D01*
X49413D01*
X49439Y40117D01*
X49532Y40103D01*
X49625Y40099D01*
X49718Y40103D01*
X49811Y40117D01*
X49901Y40140D01*
X49989Y40171D01*
X50073Y40211D01*
X50153Y40259D01*
X50228Y40315D01*
X50298Y40377D01*
X50360Y40447D01*
X50416Y40522D01*
X50464Y40602D01*
X50504Y40686D01*
X50535Y40774D01*
X50558Y40864D01*
X50572Y40957D01*
X50576Y41050D01*
X50572Y41143D01*
X50558Y41236D01*
X50535Y41326D01*
X50504Y41414D01*
X50464Y41498D01*
X50416Y41578D01*
X50360Y41653D01*
X50298Y41723D01*
X50228Y41785D01*
X50153Y41841D01*
X50073Y41889D01*
X49989Y41929D01*
X49901Y41960D01*
X49811Y41983D01*
X49718Y41997D01*
X49625Y42001D01*
X49532Y41997D01*
X49439Y41983D01*
X49349Y41960D01*
X49261Y41929D01*
X49177Y41889D01*
X49097Y41841D01*
X49022Y41785D01*
X48952Y41723D01*
X48890Y41653D01*
X48870Y41626D01*
X47364D01*
X47271Y41678D01*
X47234Y41715D01*
X47049Y42002D01*
X47048Y42026D01*
X47051Y42100D01*
X47047Y42193D01*
X47033Y42286D01*
X47010Y42376D01*
X46979Y42464D01*
X46939Y42548D01*
X46891Y42628D01*
X46835Y42703D01*
X46773Y42773D01*
X46703Y42835D01*
X46628Y42891D01*
X46548Y42939D01*
X46464Y42979D01*
X46376Y43010D01*
X46286Y43033D01*
X46193Y43047D01*
X46100Y43051D01*
D02*
G37*
G36*
X35590Y43731D02*
X35497Y43727D01*
X35404Y43713D01*
X35314Y43690D01*
X35226Y43659D01*
X35142Y43619D01*
X35062Y43571D01*
X34987Y43515D01*
X34917Y43453D01*
X34855Y43383D01*
X34799Y43308D01*
X34751Y43228D01*
X34711Y43144D01*
X34680Y43056D01*
X34657Y42966D01*
X34643Y42873D01*
X34639Y42780D01*
X34643Y42687D01*
X34657Y42594D01*
X34680Y42504D01*
X34711Y42416D01*
X34751Y42332D01*
X34799Y42252D01*
X34855Y42177D01*
X34917Y42107D01*
X34987Y42045D01*
X35062Y41989D01*
X35142Y41941D01*
X35226Y41901D01*
X35314Y41870D01*
X35404Y41847D01*
X35497Y41833D01*
X35590Y41829D01*
X35683Y41833D01*
X35776Y41847D01*
X35866Y41870D01*
X35954Y41901D01*
X36038Y41941D01*
X36118Y41989D01*
X36193Y42045D01*
X36263Y42107D01*
X36325Y42177D01*
X36381Y42252D01*
X36429Y42332D01*
X36469Y42416D01*
X36500Y42504D01*
X36523Y42594D01*
X36537Y42687D01*
X36541Y42780D01*
X36537Y42873D01*
X36523Y42966D01*
X36500Y43056D01*
X36469Y43144D01*
X36429Y43228D01*
X36381Y43308D01*
X36325Y43383D01*
X36263Y43453D01*
X36193Y43515D01*
X36118Y43571D01*
X36038Y43619D01*
X35954Y43659D01*
X35866Y43690D01*
X35776Y43713D01*
X35683Y43727D01*
X35590Y43731D01*
D02*
G37*
G36*
X73400Y35943D02*
X73306Y35939D01*
X73212Y35925D01*
X73120Y35902D01*
X73031Y35870D01*
X72946Y35829D01*
X72865Y35781D01*
X72789Y35725D01*
X72719Y35661D01*
X72655Y35591D01*
X72599Y35515D01*
X72551Y35434D01*
X72510Y35349D01*
X72478Y35260D01*
X72455Y35168D01*
X72441Y35074D01*
X72437Y34980D01*
X72441Y34886D01*
X72455Y34792D01*
X72478Y34700D01*
X72510Y34611D01*
X72551Y34526D01*
X72599Y34445D01*
X72655Y34369D01*
X72719Y34299D01*
X72789Y34235D01*
X72865Y34179D01*
X72946Y34131D01*
X73031Y34090D01*
X73120Y34058D01*
X73212Y34035D01*
X73306Y34021D01*
X73400Y34017D01*
X73494Y34021D01*
X73588Y34035D01*
X73680Y34058D01*
X73769Y34090D01*
X73854Y34131D01*
X73935Y34179D01*
X74011Y34235D01*
X74081Y34299D01*
X74145Y34369D01*
X74201Y34445D01*
X74249Y34526D01*
X74290Y34611D01*
X74322Y34700D01*
X74345Y34792D01*
X74359Y34886D01*
X74363Y34980D01*
X74359Y35074D01*
X74345Y35168D01*
X74322Y35260D01*
X74290Y35349D01*
X74249Y35434D01*
X74201Y35515D01*
X74145Y35591D01*
X74081Y35661D01*
X74011Y35725D01*
X73935Y35781D01*
X73854Y35829D01*
X73769Y35870D01*
X73680Y35902D01*
X73588Y35925D01*
X73494Y35939D01*
X73400Y35943D01*
D02*
G37*
G36*
X42500Y36051D02*
X42407Y36047D01*
X42314Y36033D01*
X42224Y36010D01*
X42136Y35979D01*
X42052Y35939D01*
X41972Y35891D01*
X41923Y35855D01*
X41883Y35851D01*
X41861Y35851D01*
X40739D01*
X40708Y35852D01*
X40683Y35853D01*
X40679Y35853D01*
X40628Y35891D01*
X40548Y35939D01*
X40464Y35979D01*
X40376Y36010D01*
X40286Y36033D01*
X40193Y36047D01*
X40100Y36051D01*
X40007Y36047D01*
X39914Y36033D01*
X39824Y36010D01*
X39736Y35979D01*
X39652Y35939D01*
X39572Y35891D01*
X39497Y35835D01*
X39427Y35773D01*
X39365Y35703D01*
X39309Y35628D01*
X39261Y35548D01*
X39221Y35464D01*
X39190Y35376D01*
X39167Y35286D01*
X39153Y35193D01*
X39149Y35100D01*
X39153Y35007D01*
X39167Y34914D01*
X39190Y34824D01*
X39221Y34736D01*
X39261Y34652D01*
X39309Y34572D01*
X39365Y34497D01*
X39427Y34427D01*
X39497Y34365D01*
X39572Y34309D01*
X39652Y34261D01*
X39736Y34221D01*
X39824Y34190D01*
X39914Y34167D01*
X40007Y34153D01*
X40100Y34149D01*
X40193Y34153D01*
X40286Y34167D01*
X40376Y34190D01*
X40464Y34221D01*
X40548Y34261D01*
X40628Y34309D01*
X40677Y34345D01*
X40717Y34349D01*
X40739Y34349D01*
X41861D01*
X41892Y34348D01*
X41917Y34347D01*
X41921Y34347D01*
X41972Y34309D01*
X42052Y34261D01*
X42136Y34221D01*
X42224Y34190D01*
X42314Y34167D01*
X42407Y34153D01*
X42500Y34149D01*
X42593Y34153D01*
X42686Y34167D01*
X42776Y34190D01*
X42864Y34221D01*
X42948Y34261D01*
X43028Y34309D01*
X43103Y34365D01*
X43173Y34427D01*
X43235Y34497D01*
X43291Y34572D01*
X43339Y34652D01*
X43379Y34736D01*
X43410Y34824D01*
X43433Y34914D01*
X43447Y35007D01*
X43451Y35100D01*
X43447Y35193D01*
X43433Y35286D01*
X43410Y35376D01*
X43379Y35464D01*
X43339Y35548D01*
X43291Y35628D01*
X43235Y35703D01*
X43173Y35773D01*
X43103Y35835D01*
X43028Y35891D01*
X42948Y35939D01*
X42864Y35979D01*
X42776Y36010D01*
X42686Y36033D01*
X42593Y36047D01*
X42500Y36051D01*
D02*
G37*
G36*
X27880Y43971D02*
X27787Y43967D01*
X27694Y43953D01*
X27604Y43930D01*
X27516Y43899D01*
X27432Y43859D01*
X27352Y43811D01*
X27277Y43755D01*
X27207Y43693D01*
X27145Y43623D01*
X27089Y43548D01*
X27041Y43468D01*
X27001Y43384D01*
X26984Y43337D01*
X26981Y43336D01*
X26953Y43326D01*
X26950Y43325D01*
X26948Y43324D01*
X26921Y43310D01*
X26894Y43297D01*
X26892Y43295D01*
X26890Y43294D01*
X26865Y43277D01*
X26840Y43260D01*
X26838Y43258D01*
X26836Y43257D01*
X26813Y43237D01*
X26791Y43217D01*
X26789Y43215D01*
X26787Y43213D01*
X26767Y43190D01*
X26748Y43167D01*
X26746Y43165D01*
X26745Y43163D01*
X26728Y43138D01*
X26711Y43113D01*
X26710Y43110D01*
X26709Y43108D01*
X26696Y43081D01*
X26683Y43054D01*
X26682Y43051D01*
X26681Y43049D01*
X26671Y43020D01*
X26662Y42992D01*
X26661Y42989D01*
X26661Y42987D01*
X26655Y42957D01*
X26649Y42927D01*
X26649Y42925D01*
X26649Y42922D01*
X26647Y42892D01*
X26645Y42862D01*
X26649Y42019D01*
Y40089D01*
X26648Y40058D01*
X26647Y40033D01*
X26647Y40029D01*
X26609Y39978D01*
X26561Y39898D01*
X26521Y39814D01*
X26490Y39726D01*
X26467Y39636D01*
X26453Y39543D01*
X26449Y39450D01*
X26453Y39357D01*
X26467Y39264D01*
X26490Y39174D01*
X26521Y39086D01*
X26561Y39002D01*
X26609Y38922D01*
X26665Y38847D01*
X26727Y38777D01*
X26797Y38715D01*
X26872Y38659D01*
X26952Y38611D01*
X27036Y38571D01*
X27124Y38540D01*
X27214Y38517D01*
X27307Y38503D01*
X27400Y38499D01*
X27493Y38503D01*
X27586Y38517D01*
X27676Y38540D01*
X27764Y38571D01*
X27848Y38611D01*
X27928Y38659D01*
X28003Y38715D01*
X28073Y38777D01*
X28135Y38847D01*
X28191Y38922D01*
X28239Y39002D01*
X28279Y39086D01*
X28310Y39174D01*
X28333Y39264D01*
X28347Y39357D01*
X28351Y39450D01*
X28347Y39543D01*
X28333Y39636D01*
X28310Y39726D01*
X28279Y39814D01*
X28239Y39898D01*
X28191Y39978D01*
X28155Y40027D01*
X28151Y40067D01*
X28151Y40089D01*
Y41818D01*
X28170Y41828D01*
X28197Y41842D01*
X28199Y41843D01*
X28200Y41844D01*
X28226Y41862D01*
X28251Y41879D01*
X28252Y41880D01*
X28254Y41881D01*
X28277Y41903D01*
X28300Y41923D01*
X28301Y41924D01*
X28302Y41925D01*
X28322Y41950D01*
X28342Y41973D01*
X28343Y41974D01*
X28344Y41975D01*
X28361Y42002D01*
X28378Y42028D01*
X28379Y42029D01*
X28380Y42031D01*
X28393Y42059D01*
X28406Y42087D01*
X28407Y42089D01*
X28407Y42090D01*
X28417Y42120D01*
X28426Y42150D01*
X28427Y42151D01*
X28427Y42153D01*
X28433Y42183D01*
X28438Y42214D01*
X28438Y42216D01*
X28439Y42217D01*
X28440Y42248D01*
X28440Y42253D01*
X28483Y42285D01*
X28553Y42347D01*
X28615Y42417D01*
X28671Y42492D01*
X28719Y42572D01*
X28759Y42656D01*
X28790Y42744D01*
X28813Y42834D01*
X28827Y42927D01*
X28831Y43020D01*
X28827Y43113D01*
X28813Y43206D01*
X28790Y43296D01*
X28759Y43384D01*
X28719Y43468D01*
X28671Y43548D01*
X28615Y43623D01*
X28553Y43693D01*
X28483Y43755D01*
X28408Y43811D01*
X28328Y43859D01*
X28244Y43899D01*
X28156Y43930D01*
X28066Y43953D01*
X27973Y43967D01*
X27880Y43971D01*
D02*
G37*
G36*
X43400Y39348D02*
X42662Y38610D01*
X44138D01*
X43400Y39348D01*
D02*
G37*
G36*
X46100D02*
X45362Y38610D01*
X46838D01*
X46100Y39348D01*
D02*
G37*
G36*
X76589Y34497D02*
X76468Y34493D01*
X76347Y34480D01*
X76227Y34458D01*
X76110Y34428D01*
X75995Y34390D01*
X75882Y34343D01*
X75774Y34289D01*
X75669Y34227D01*
X75570Y34158D01*
X75475Y34082D01*
X75386Y33999D01*
X75303Y33910D01*
X75227Y33815D01*
X75158Y33716D01*
X75096Y33611D01*
X75042Y33503D01*
X74995Y33390D01*
X74957Y33275D01*
X74927Y33158D01*
X74905Y33038D01*
X74892Y32917D01*
X74888Y32796D01*
X74892Y32675D01*
X74905Y32554D01*
X74927Y32434D01*
X74957Y32317D01*
X74995Y32202D01*
X75042Y32089D01*
X75096Y31981D01*
X75158Y31876D01*
X75227Y31777D01*
X75303Y31682D01*
X75386Y31593D01*
X75475Y31510D01*
X75570Y31434D01*
X75669Y31365D01*
X75774Y31303D01*
X75882Y31249D01*
X75995Y31202D01*
X76110Y31164D01*
X76227Y31134D01*
X76347Y31112D01*
X76468Y31099D01*
X76589Y31095D01*
X76710Y31099D01*
X76831Y31112D01*
X76951Y31134D01*
X77068Y31164D01*
X77183Y31202D01*
X77296Y31249D01*
X77404Y31303D01*
X77509Y31365D01*
X77608Y31434D01*
X77703Y31510D01*
X77792Y31593D01*
X77875Y31682D01*
X77951Y31777D01*
X78020Y31876D01*
X78082Y31981D01*
X78136Y32089D01*
X78183Y32202D01*
X78221Y32317D01*
X78251Y32434D01*
X78273Y32554D01*
X78286Y32675D01*
X78290Y32796D01*
X78286Y32917D01*
X78273Y33038D01*
X78251Y33158D01*
X78221Y33275D01*
X78183Y33390D01*
X78136Y33503D01*
X78082Y33611D01*
X78020Y33716D01*
X77951Y33815D01*
X77875Y33910D01*
X77792Y33999D01*
X77703Y34082D01*
X77608Y34158D01*
X77509Y34227D01*
X77404Y34289D01*
X77296Y34343D01*
X77183Y34390D01*
X77068Y34428D01*
X76951Y34458D01*
X76831Y34480D01*
X76710Y34493D01*
X76589Y34497D01*
D02*
G37*
G36*
X55761D02*
X55640Y34493D01*
X55519Y34480D01*
X55399Y34458D01*
X55282Y34428D01*
X55167Y34390D01*
X55054Y34343D01*
X54946Y34289D01*
X54841Y34227D01*
X54742Y34158D01*
X54647Y34082D01*
X54558Y33999D01*
X54475Y33910D01*
X54399Y33815D01*
X54330Y33716D01*
X54268Y33611D01*
X54214Y33503D01*
X54167Y33390D01*
X54129Y33275D01*
X54099Y33158D01*
X54077Y33038D01*
X54064Y32917D01*
X54060Y32796D01*
X54064Y32675D01*
X54077Y32554D01*
X54099Y32434D01*
X54129Y32317D01*
X54167Y32202D01*
X54214Y32089D01*
X54268Y31981D01*
X54330Y31876D01*
X54399Y31777D01*
X54475Y31682D01*
X54558Y31593D01*
X54647Y31510D01*
X54742Y31434D01*
X54841Y31365D01*
X54946Y31303D01*
X55054Y31249D01*
X55167Y31202D01*
X55282Y31164D01*
X55399Y31134D01*
X55519Y31112D01*
X55640Y31099D01*
X55761Y31095D01*
X55882Y31099D01*
X56003Y31112D01*
X56123Y31134D01*
X56240Y31164D01*
X56355Y31202D01*
X56468Y31249D01*
X56576Y31303D01*
X56681Y31365D01*
X56780Y31434D01*
X56875Y31510D01*
X56964Y31593D01*
X57047Y31682D01*
X57123Y31777D01*
X57192Y31876D01*
X57254Y31981D01*
X57308Y32089D01*
X57355Y32202D01*
X57393Y32317D01*
X57423Y32434D01*
X57445Y32554D01*
X57458Y32675D01*
X57462Y32796D01*
X57458Y32917D01*
X57445Y33038D01*
X57423Y33158D01*
X57393Y33275D01*
X57355Y33390D01*
X57308Y33503D01*
X57254Y33611D01*
X57192Y33716D01*
X57123Y33815D01*
X57047Y33910D01*
X56964Y33999D01*
X56875Y34082D01*
X56780Y34158D01*
X56681Y34227D01*
X56576Y34289D01*
X56468Y34343D01*
X56355Y34390D01*
X56240Y34428D01*
X56123Y34458D01*
X56003Y34480D01*
X55882Y34493D01*
X55761Y34497D01*
D02*
G37*
G36*
X10500Y30701D02*
X10364Y30696D01*
X10229Y30682D01*
X10096Y30658D01*
X9964Y30624D01*
X9836Y30581D01*
X9710Y30529D01*
X9589Y30469D01*
X9472Y30399D01*
X9361Y30322D01*
X9255Y30237D01*
X9156Y30144D01*
X9063Y30045D01*
X8978Y29939D01*
X8901Y29828D01*
X8831Y29711D01*
X8771Y29590D01*
X8719Y29464D01*
X8676Y29336D01*
X8642Y29204D01*
X8409Y29163D01*
X8236Y29204D01*
X8223Y29245D01*
X8179Y29350D01*
X8127Y29451D01*
X8066Y29546D01*
X8019Y29607D01*
X7212Y28800D01*
X8019Y27993D01*
X8066Y28054D01*
X8127Y28149D01*
X8179Y28250D01*
X8223Y28355D01*
X8236Y28396D01*
X8409Y28437D01*
X8642Y28396D01*
X8676Y28264D01*
X8719Y28136D01*
X8771Y28010D01*
X8831Y27889D01*
X8901Y27772D01*
X8978Y27661D01*
X9063Y27555D01*
X9156Y27456D01*
X9255Y27363D01*
X9361Y27278D01*
X9472Y27201D01*
X9589Y27131D01*
X9710Y27071D01*
X9836Y27019D01*
X9964Y26976D01*
X10096Y26942D01*
X10229Y26918D01*
X10364Y26904D01*
X10500Y26899D01*
X10636Y26904D01*
X10771Y26918D01*
X10904Y26942D01*
X11036Y26976D01*
X11164Y27019D01*
X11290Y27071D01*
X11411Y27131D01*
X11528Y27201D01*
X11639Y27278D01*
X11745Y27363D01*
X11844Y27456D01*
X11937Y27555D01*
X12022Y27661D01*
X12099Y27772D01*
X12169Y27889D01*
X12229Y28010D01*
X12281Y28136D01*
X12324Y28264D01*
X12358Y28396D01*
X12591Y28437D01*
X12764Y28396D01*
X12777Y28355D01*
X12821Y28250D01*
X12873Y28149D01*
X12934Y28054D01*
X12981Y27993D01*
X13788Y28800D01*
X12981Y29607D01*
X12934Y29546D01*
X12873Y29451D01*
X12821Y29350D01*
X12777Y29245D01*
X12764Y29204D01*
X12591Y29163D01*
X12358Y29204D01*
X12324Y29336D01*
X12281Y29464D01*
X12229Y29590D01*
X12169Y29711D01*
X12099Y29828D01*
X12022Y29939D01*
X11937Y30045D01*
X11844Y30144D01*
X11745Y30237D01*
X11639Y30322D01*
X11528Y30399D01*
X11411Y30469D01*
X11290Y30529D01*
X11164Y30581D01*
X11036Y30624D01*
X10904Y30658D01*
X10771Y30682D01*
X10636Y30696D01*
X10500Y30701D01*
D02*
G37*
G36*
X35500Y46511D02*
X35407Y46507D01*
X35314Y46493D01*
X35224Y46470D01*
X35136Y46439D01*
X35052Y46399D01*
X34972Y46351D01*
X34897Y46295D01*
X34827Y46233D01*
X34765Y46163D01*
X34709Y46088D01*
X34661Y46008D01*
X34621Y45924D01*
X34590Y45836D01*
X34567Y45746D01*
X34553Y45653D01*
X34549Y45560D01*
X34553Y45467D01*
X34567Y45374D01*
X34590Y45284D01*
X34621Y45196D01*
X34661Y45112D01*
X34709Y45032D01*
X34765Y44957D01*
X34827Y44887D01*
X34897Y44825D01*
X34972Y44769D01*
X35052Y44721D01*
X35136Y44681D01*
X35224Y44650D01*
X35314Y44627D01*
X35407Y44613D01*
X35500Y44609D01*
X35593Y44613D01*
X35686Y44627D01*
X35776Y44650D01*
X35864Y44681D01*
X35948Y44721D01*
X36028Y44769D01*
X36103Y44825D01*
X36173Y44887D01*
X36235Y44957D01*
X36291Y45032D01*
X36339Y45112D01*
X36379Y45196D01*
X36410Y45284D01*
X36433Y45374D01*
X36447Y45467D01*
X36451Y45560D01*
X36447Y45653D01*
X36433Y45746D01*
X36410Y45836D01*
X36379Y45924D01*
X36339Y46008D01*
X36291Y46088D01*
X36235Y46163D01*
X36173Y46233D01*
X36103Y46295D01*
X36028Y46351D01*
X35948Y46399D01*
X35864Y46439D01*
X35776Y46470D01*
X35686Y46493D01*
X35593Y46507D01*
X35500Y46511D01*
D02*
G37*
G36*
X43400Y45591D02*
X43307Y45587D01*
X43214Y45573D01*
X43124Y45550D01*
X43036Y45519D01*
X42952Y45479D01*
X42872Y45431D01*
X42797Y45375D01*
X42727Y45313D01*
X42665Y45243D01*
X42609Y45168D01*
X42561Y45088D01*
X42521Y45004D01*
X42490Y44916D01*
X42467Y44826D01*
X42453Y44733D01*
X42449Y44640D01*
X42453Y44547D01*
X42467Y44454D01*
X42490Y44364D01*
X42521Y44276D01*
X42561Y44192D01*
X42609Y44112D01*
X42665Y44037D01*
X42727Y43967D01*
X42797Y43905D01*
X42872Y43849D01*
X42952Y43801D01*
X43036Y43761D01*
X43124Y43730D01*
X43214Y43707D01*
X43307Y43693D01*
X43400Y43689D01*
X43493Y43693D01*
X43586Y43707D01*
X43676Y43730D01*
X43764Y43761D01*
X43848Y43801D01*
X43928Y43849D01*
X44003Y43905D01*
X44073Y43967D01*
X44135Y44037D01*
X44191Y44112D01*
X44239Y44192D01*
X44279Y44276D01*
X44310Y44364D01*
X44333Y44454D01*
X44347Y44547D01*
X44351Y44640D01*
X44347Y44733D01*
X44333Y44826D01*
X44310Y44916D01*
X44279Y45004D01*
X44239Y45088D01*
X44191Y45168D01*
X44135Y45243D01*
X44073Y45313D01*
X44003Y45375D01*
X43928Y45431D01*
X43848Y45479D01*
X43764Y45519D01*
X43676Y45550D01*
X43586Y45573D01*
X43493Y45587D01*
X43400Y45591D01*
D02*
G37*
G36*
X46100D02*
X46007Y45587D01*
X45914Y45573D01*
X45824Y45550D01*
X45736Y45519D01*
X45652Y45479D01*
X45572Y45431D01*
X45497Y45375D01*
X45427Y45313D01*
X45365Y45243D01*
X45309Y45168D01*
X45261Y45088D01*
X45221Y45004D01*
X45190Y44916D01*
X45167Y44826D01*
X45153Y44733D01*
X45149Y44640D01*
X45153Y44547D01*
X45167Y44454D01*
X45190Y44364D01*
X45221Y44276D01*
X45261Y44192D01*
X45309Y44112D01*
X45365Y44037D01*
X45427Y43967D01*
X45497Y43905D01*
X45572Y43849D01*
X45652Y43801D01*
X45736Y43761D01*
X45824Y43730D01*
X45914Y43707D01*
X46007Y43693D01*
X46100Y43689D01*
X46193Y43693D01*
X46286Y43707D01*
X46376Y43730D01*
X46464Y43761D01*
X46548Y43801D01*
X46628Y43849D01*
X46703Y43905D01*
X46773Y43967D01*
X46835Y44037D01*
X46891Y44112D01*
X46939Y44192D01*
X46979Y44276D01*
X47010Y44364D01*
X47033Y44454D01*
X47047Y44547D01*
X47051Y44640D01*
X47047Y44733D01*
X47033Y44826D01*
X47010Y44916D01*
X46979Y45004D01*
X46939Y45088D01*
X46891Y45168D01*
X46835Y45243D01*
X46773Y45313D01*
X46703Y45375D01*
X46628Y45431D01*
X46548Y45479D01*
X46464Y45519D01*
X46376Y45550D01*
X46286Y45573D01*
X46193Y45587D01*
X46100Y45591D01*
D02*
G37*
G36*
X40700Y46331D02*
X40607Y46327D01*
X40514Y46313D01*
X40424Y46290D01*
X40336Y46259D01*
X40252Y46219D01*
X40172Y46171D01*
X40097Y46115D01*
X40027Y46053D01*
X39965Y45983D01*
X39909Y45908D01*
X39861Y45828D01*
X39821Y45744D01*
X39790Y45656D01*
X39767Y45566D01*
X39753Y45473D01*
X39749Y45380D01*
X39753Y45287D01*
X39767Y45194D01*
X39790Y45104D01*
X39821Y45016D01*
X39861Y44932D01*
X39909Y44852D01*
X39965Y44777D01*
X40027Y44707D01*
X40097Y44645D01*
X40172Y44589D01*
X40252Y44541D01*
X40336Y44501D01*
X40424Y44470D01*
X40514Y44447D01*
X40607Y44433D01*
X40700Y44429D01*
X40793Y44433D01*
X40886Y44447D01*
X40976Y44470D01*
X41064Y44501D01*
X41148Y44541D01*
X41228Y44589D01*
X41303Y44645D01*
X41373Y44707D01*
X41435Y44777D01*
X41491Y44852D01*
X41539Y44932D01*
X41579Y45016D01*
X41610Y45104D01*
X41633Y45194D01*
X41647Y45287D01*
X41651Y45380D01*
X41647Y45473D01*
X41633Y45566D01*
X41610Y45656D01*
X41579Y45744D01*
X41539Y45828D01*
X41491Y45908D01*
X41435Y45983D01*
X41373Y46053D01*
X41303Y46115D01*
X41228Y46171D01*
X41148Y46219D01*
X41064Y46259D01*
X40976Y46290D01*
X40886Y46313D01*
X40793Y46327D01*
X40700Y46331D01*
D02*
G37*
G36*
X3500Y30701D02*
X3364Y30696D01*
X3229Y30682D01*
X3096Y30658D01*
X2964Y30624D01*
X2836Y30581D01*
X2710Y30529D01*
X2589Y30469D01*
X2472Y30399D01*
X2361Y30322D01*
X2255Y30237D01*
X2156Y30144D01*
X2063Y30045D01*
X1978Y29939D01*
X1901Y29828D01*
X1831Y29711D01*
X1771Y29590D01*
X1719Y29464D01*
X1676Y29336D01*
X1642Y29204D01*
X1618Y29071D01*
X1604Y28936D01*
X1599Y28800D01*
X1604Y28664D01*
X1618Y28529D01*
X1642Y28396D01*
X1676Y28264D01*
X1719Y28136D01*
X1771Y28010D01*
X1831Y27889D01*
X1901Y27772D01*
X1978Y27661D01*
X2063Y27555D01*
X2156Y27456D01*
X2255Y27363D01*
X2361Y27278D01*
X2472Y27201D01*
X2589Y27131D01*
X2710Y27071D01*
X2836Y27019D01*
X2964Y26976D01*
X3096Y26942D01*
X3229Y26918D01*
X3364Y26904D01*
X3500Y26899D01*
X3636Y26904D01*
X3771Y26918D01*
X3904Y26942D01*
X4036Y26976D01*
X4164Y27019D01*
X4290Y27071D01*
X4411Y27131D01*
X4528Y27201D01*
X4639Y27278D01*
X4745Y27363D01*
X4844Y27456D01*
X4937Y27555D01*
X5022Y27661D01*
X5099Y27772D01*
X5169Y27889D01*
X5229Y28010D01*
X5281Y28136D01*
X5324Y28264D01*
X5358Y28396D01*
X5591Y28437D01*
X5764Y28396D01*
X5777Y28355D01*
X5821Y28250D01*
X5873Y28149D01*
X5934Y28054D01*
X5981Y27993D01*
X6788Y28800D01*
X5981Y29607D01*
X5934Y29546D01*
X5873Y29451D01*
X5821Y29350D01*
X5777Y29245D01*
X5764Y29204D01*
X5591Y29163D01*
X5358Y29204D01*
X5324Y29336D01*
X5281Y29464D01*
X5229Y29590D01*
X5169Y29711D01*
X5099Y29828D01*
X5022Y29939D01*
X4937Y30045D01*
X4844Y30144D01*
X4745Y30237D01*
X4639Y30322D01*
X4528Y30399D01*
X4411Y30469D01*
X4290Y30529D01*
X4164Y30581D01*
X4036Y30624D01*
X3904Y30658D01*
X3771Y30682D01*
X3636Y30696D01*
X3500Y30701D01*
D02*
G37*
G36*
X29350Y84401D02*
X29257Y84397D01*
X29164Y84383D01*
X29074Y84360D01*
X28986Y84329D01*
X28902Y84289D01*
X28822Y84241D01*
X28747Y84185D01*
X28677Y84123D01*
X28615Y84053D01*
X28559Y83978D01*
X28511Y83898D01*
X28471Y83814D01*
X28440Y83726D01*
X28417Y83636D01*
X28403Y83543D01*
X28399Y83450D01*
X28403Y83357D01*
X28417Y83264D01*
X28440Y83174D01*
X28471Y83086D01*
X28511Y83002D01*
X28520Y82988D01*
X28511Y82973D01*
X28471Y82889D01*
X28440Y82801D01*
X28417Y82711D01*
X28403Y82618D01*
X28399Y82525D01*
X28403Y82432D01*
X28417Y82339D01*
X28440Y82249D01*
X28471Y82161D01*
X28511Y82077D01*
X28559Y81997D01*
X28595Y81948D01*
X28599Y81908D01*
X28599Y81886D01*
Y77050D01*
X28604Y76966D01*
X28618Y76883D01*
X28641Y76802D01*
X28673Y76724D01*
X28714Y76650D01*
X28763Y76582D01*
X28819Y76519D01*
X30517Y74821D01*
X30538Y74799D01*
X30555Y74780D01*
X30558Y74777D01*
X30567Y74714D01*
X30590Y74624D01*
X30621Y74536D01*
X30661Y74452D01*
X30709Y74372D01*
X30765Y74297D01*
X30827Y74227D01*
X30897Y74165D01*
X30972Y74109D01*
X31052Y74061D01*
X31136Y74021D01*
X31224Y73990D01*
X31314Y73967D01*
X31407Y73953D01*
X31500Y73949D01*
X31593Y73953D01*
X31686Y73967D01*
X31776Y73990D01*
X31864Y74021D01*
X31938Y74056D01*
X32011Y74021D01*
X32099Y73990D01*
X32189Y73967D01*
X32282Y73953D01*
X32375Y73949D01*
X32468Y73953D01*
X32561Y73967D01*
X32651Y73990D01*
X32739Y74021D01*
X32823Y74061D01*
X32903Y74109D01*
X32978Y74165D01*
X33048Y74227D01*
X33110Y74297D01*
X33166Y74372D01*
X33214Y74452D01*
X33254Y74536D01*
X33285Y74624D01*
X33308Y74714D01*
X33322Y74807D01*
X33326Y74900D01*
X33322Y74993D01*
X33308Y75086D01*
X33285Y75176D01*
X33254Y75264D01*
X33214Y75348D01*
X33166Y75428D01*
X33110Y75503D01*
X33048Y75573D01*
X32978Y75635D01*
X32903Y75691D01*
X32823Y75739D01*
X32739Y75779D01*
X32651Y75810D01*
X32561Y75833D01*
X32468Y75847D01*
X32375Y75851D01*
X32282Y75847D01*
X32189Y75833D01*
X32099Y75810D01*
X32011Y75779D01*
X31938Y75744D01*
X31864Y75779D01*
X31776Y75810D01*
X31686Y75833D01*
X31625Y75842D01*
X31595Y75868D01*
X31579Y75883D01*
X30101Y77361D01*
Y81886D01*
X30102Y81917D01*
X30103Y81942D01*
X30103Y81946D01*
X30141Y81997D01*
X30189Y82077D01*
X30229Y82161D01*
X30260Y82249D01*
X30283Y82339D01*
X30297Y82432D01*
X30301Y82525D01*
X30297Y82618D01*
X30283Y82711D01*
X30260Y82801D01*
X30229Y82889D01*
X30189Y82973D01*
X30180Y82988D01*
X30189Y83002D01*
X30229Y83086D01*
X30260Y83174D01*
X30283Y83264D01*
X30297Y83357D01*
X30301Y83450D01*
X30297Y83543D01*
X30283Y83636D01*
X30260Y83726D01*
X30229Y83814D01*
X30189Y83898D01*
X30141Y83978D01*
X30085Y84053D01*
X30023Y84123D01*
X29953Y84185D01*
X29878Y84241D01*
X29798Y84289D01*
X29714Y84329D01*
X29626Y84360D01*
X29536Y84383D01*
X29443Y84397D01*
X29350Y84401D01*
D02*
G37*
G36*
X76589Y78185D02*
X76468Y78181D01*
X76347Y78168D01*
X76227Y78146D01*
X76110Y78116D01*
X75995Y78078D01*
X75882Y78031D01*
X75774Y77977D01*
X75669Y77915D01*
X75570Y77846D01*
X75475Y77770D01*
X75386Y77687D01*
X75303Y77598D01*
X75227Y77503D01*
X75158Y77404D01*
X75096Y77299D01*
X75042Y77191D01*
X74995Y77078D01*
X74957Y76963D01*
X74927Y76846D01*
X74905Y76726D01*
X74892Y76605D01*
X74888Y76484D01*
X74892Y76363D01*
X74905Y76242D01*
X74927Y76122D01*
X74957Y76005D01*
X74995Y75890D01*
X75042Y75777D01*
X75096Y75669D01*
X75158Y75564D01*
X75227Y75465D01*
X75303Y75370D01*
X75386Y75281D01*
X75475Y75198D01*
X75570Y75122D01*
X75669Y75053D01*
X75774Y74991D01*
X75882Y74937D01*
X75995Y74890D01*
X76110Y74852D01*
X76227Y74822D01*
X76347Y74800D01*
X76468Y74787D01*
X76589Y74783D01*
X76710Y74787D01*
X76831Y74800D01*
X76951Y74822D01*
X77068Y74852D01*
X77183Y74890D01*
X77296Y74937D01*
X77404Y74991D01*
X77509Y75053D01*
X77608Y75122D01*
X77703Y75198D01*
X77792Y75281D01*
X77875Y75370D01*
X77951Y75465D01*
X78020Y75564D01*
X78082Y75669D01*
X78136Y75777D01*
X78183Y75890D01*
X78221Y76005D01*
X78251Y76122D01*
X78273Y76242D01*
X78286Y76363D01*
X78290Y76484D01*
X78286Y76605D01*
X78273Y76726D01*
X78251Y76846D01*
X78221Y76963D01*
X78183Y77078D01*
X78136Y77191D01*
X78082Y77299D01*
X78020Y77404D01*
X77951Y77503D01*
X77875Y77598D01*
X77792Y77687D01*
X77703Y77770D01*
X77608Y77846D01*
X77509Y77915D01*
X77404Y77977D01*
X77296Y78031D01*
X77183Y78078D01*
X77068Y78116D01*
X76951Y78146D01*
X76831Y78168D01*
X76710Y78181D01*
X76589Y78185D01*
D02*
G37*
G36*
X14500Y78301D02*
X14404Y78296D01*
X14310Y78282D01*
X14217Y78259D01*
X14126Y78227D01*
X14040Y78186D01*
X13958Y78137D01*
X13881Y78080D01*
X13881Y78079D01*
X13841Y78077D01*
X13814Y78076D01*
X12125D01*
X12125Y78076D01*
X12041Y78071D01*
X11958Y78057D01*
X11877Y78034D01*
X11799Y78002D01*
X11725Y77961D01*
X11657Y77912D01*
X11594Y77856D01*
X11594Y77856D01*
X10821Y77083D01*
X10799Y77062D01*
X10780Y77045D01*
X10777Y77042D01*
X10714Y77033D01*
X10624Y77010D01*
X10536Y76979D01*
X10452Y76939D01*
X10372Y76891D01*
X10297Y76835D01*
X10227Y76773D01*
X10165Y76703D01*
X10109Y76628D01*
X10061Y76548D01*
X10021Y76464D01*
X9990Y76376D01*
X9967Y76286D01*
X9953Y76193D01*
X9949Y76100D01*
X9953Y76007D01*
X9967Y75914D01*
X9990Y75824D01*
X10021Y75736D01*
X10061Y75652D01*
X10109Y75572D01*
X10165Y75497D01*
X10227Y75427D01*
X10297Y75365D01*
X10372Y75309D01*
X10452Y75261D01*
X10536Y75221D01*
X10624Y75190D01*
X10714Y75167D01*
X10807Y75153D01*
X10900Y75149D01*
X10993Y75153D01*
X11086Y75167D01*
X11176Y75190D01*
X11264Y75221D01*
X11348Y75261D01*
X11428Y75309D01*
X11503Y75365D01*
X11573Y75427D01*
X11635Y75497D01*
X11691Y75572D01*
X11739Y75652D01*
X11779Y75736D01*
X11810Y75824D01*
X11833Y75914D01*
X11842Y75975D01*
X11868Y76005D01*
X11883Y76021D01*
X12436Y76574D01*
X13814D01*
X13841Y76573D01*
X13881Y76571D01*
X13881Y76570D01*
X13958Y76513D01*
X14040Y76464D01*
X14126Y76423D01*
X14217Y76391D01*
X14310Y76368D01*
X14404Y76354D01*
X14500Y76349D01*
X14596Y76354D01*
X14690Y76368D01*
X14783Y76391D01*
X14874Y76423D01*
X14960Y76464D01*
X15042Y76513D01*
X15119Y76570D01*
X15190Y76635D01*
X15255Y76706D01*
X15312Y76783D01*
X15361Y76865D01*
X15402Y76951D01*
X15434Y77042D01*
X15457Y77135D01*
X15471Y77229D01*
X15476Y77325D01*
X15471Y77421D01*
X15457Y77515D01*
X15434Y77608D01*
X15402Y77699D01*
X15361Y77785D01*
X15312Y77867D01*
X15255Y77944D01*
X15190Y78015D01*
X15119Y78080D01*
X15042Y78137D01*
X14960Y78186D01*
X14874Y78227D01*
X14783Y78259D01*
X14690Y78282D01*
X14596Y78296D01*
X14500Y78301D01*
D02*
G37*
G36*
X71079Y81963D02*
X55496D01*
X55252Y81915D01*
X55022Y81819D01*
X54815Y81681D01*
X54639Y81505D01*
X54501Y81298D01*
X54405Y81068D01*
X54357Y80824D01*
Y80576D01*
X54405Y80332D01*
X54501Y80102D01*
X54639Y79895D01*
X54815Y79719D01*
X55022Y79581D01*
X55252Y79485D01*
X55496Y79437D01*
X57509D01*
Y77649D01*
X57161Y77518D01*
X57109Y77521D01*
X57047Y77598D01*
X56964Y77687D01*
X56875Y77770D01*
X56780Y77846D01*
X56681Y77915D01*
X56576Y77977D01*
X56468Y78031D01*
X56355Y78078D01*
X56240Y78116D01*
X56123Y78146D01*
X56003Y78168D01*
X55882Y78181D01*
X55761Y78185D01*
X55640Y78181D01*
X55519Y78168D01*
X55399Y78146D01*
X55282Y78116D01*
X55167Y78078D01*
X55054Y78031D01*
X54946Y77977D01*
X54841Y77915D01*
X54742Y77846D01*
X54647Y77770D01*
X54558Y77687D01*
X54475Y77598D01*
X54399Y77503D01*
X54330Y77404D01*
X54268Y77299D01*
X54214Y77191D01*
X54167Y77078D01*
X54129Y76963D01*
X54099Y76846D01*
X54077Y76726D01*
X54064Y76605D01*
X54060Y76484D01*
X54064Y76363D01*
X54077Y76242D01*
X54099Y76122D01*
X54129Y76005D01*
X54167Y75890D01*
X54214Y75777D01*
X54268Y75669D01*
X54330Y75564D01*
X54399Y75465D01*
X54475Y75370D01*
X54558Y75281D01*
X54647Y75198D01*
X54742Y75122D01*
X54841Y75053D01*
X54946Y74991D01*
X55054Y74937D01*
X55167Y74890D01*
X55282Y74852D01*
X55399Y74822D01*
X55519Y74800D01*
X55640Y74787D01*
X55761Y74783D01*
X55882Y74787D01*
X56003Y74800D01*
X56016Y74803D01*
X56196Y74511D01*
X56215Y74435D01*
X55740Y73960D01*
X55691Y73906D01*
X55649Y73846D01*
X55561Y73777D01*
X55268Y73749D01*
X55182Y73758D01*
X55158Y73767D01*
X54888Y73821D01*
X54612D01*
X54341Y73767D01*
X54086Y73662D01*
X53857Y73508D01*
X53662Y73313D01*
X53508Y73084D01*
X53403Y72829D01*
X53349Y72558D01*
Y69804D01*
X53311Y69719D01*
X53277Y69676D01*
X53000Y69451D01*
X52907Y69447D01*
X52814Y69433D01*
X52724Y69410D01*
X52636Y69379D01*
X52552Y69339D01*
X52472Y69291D01*
X52397Y69235D01*
X52327Y69173D01*
X52265Y69103D01*
X52209Y69028D01*
X52161Y68948D01*
X52121Y68864D01*
X52090Y68776D01*
X52067Y68686D01*
X52053Y68593D01*
X52049Y68500D01*
X52053Y68407D01*
X52067Y68314D01*
X52090Y68224D01*
X52121Y68136D01*
X52161Y68052D01*
X52209Y67972D01*
X52245Y67923D01*
X52249Y67883D01*
X52249Y67861D01*
Y67611D01*
X51521Y66883D01*
X51499Y66862D01*
X51480Y66845D01*
X51477Y66842D01*
X51414Y66833D01*
X51324Y66810D01*
X51236Y66779D01*
X51152Y66739D01*
X51072Y66691D01*
X50997Y66635D01*
X50927Y66573D01*
X50865Y66503D01*
X50809Y66428D01*
X50761Y66348D01*
X50721Y66264D01*
X50690Y66176D01*
X50667Y66086D01*
X50653Y65993D01*
X50649Y65900D01*
X50653Y65807D01*
X50667Y65714D01*
X50690Y65624D01*
X50721Y65536D01*
X50761Y65452D01*
X50809Y65372D01*
X50865Y65297D01*
X50927Y65227D01*
X50997Y65165D01*
X51072Y65109D01*
X51152Y65061D01*
X51236Y65021D01*
X51324Y64990D01*
X51414Y64967D01*
X51507Y64953D01*
X51600Y64949D01*
X51693Y64953D01*
X51786Y64967D01*
X51876Y64990D01*
X51964Y65021D01*
X52048Y65061D01*
X52128Y65109D01*
X52203Y65165D01*
X52273Y65227D01*
X52335Y65297D01*
X52391Y65372D01*
X52439Y65452D01*
X52479Y65536D01*
X52510Y65624D01*
X52533Y65714D01*
X52542Y65775D01*
X52568Y65805D01*
X52583Y65821D01*
X52979Y66217D01*
X53349Y66064D01*
Y61605D01*
X53328Y61597D01*
X53264Y61561D01*
X53204Y61519D01*
X53150Y61470D01*
X50940Y59260D01*
X50737Y59064D01*
X50735Y59064D01*
X50694Y59040D01*
X50685Y59035D01*
X50631Y59013D01*
X50601Y59003D01*
X50587Y58997D01*
X50536Y58979D01*
X50452Y58939D01*
X50372Y58891D01*
X50297Y58835D01*
X50227Y58773D01*
X49883Y58820D01*
X49786Y58860D01*
X44090Y64556D01*
X44040Y64609D01*
X44028Y64622D01*
X43974Y64689D01*
X43970Y64695D01*
X43949Y64729D01*
X43940Y64745D01*
X43940Y64746D01*
X43939Y64748D01*
X43891Y64828D01*
X43835Y64903D01*
X43773Y64973D01*
X43703Y65035D01*
X43628Y65091D01*
X43548Y65139D01*
X43464Y65179D01*
X43376Y65210D01*
X43286Y65233D01*
X43193Y65247D01*
X43100Y65251D01*
X43007Y65247D01*
X42914Y65233D01*
X42824Y65210D01*
X42736Y65179D01*
X42652Y65139D01*
X42572Y65091D01*
X42497Y65035D01*
X42427Y64973D01*
X42365Y64903D01*
X42309Y64828D01*
X42261Y64748D01*
X42221Y64664D01*
X42190Y64576D01*
X42167Y64486D01*
X42153Y64393D01*
X42149Y64300D01*
X42153Y64207D01*
X42167Y64114D01*
X42190Y64024D01*
X42221Y63936D01*
X42261Y63852D01*
X42309Y63772D01*
X42365Y63697D01*
X42427Y63627D01*
X42497Y63565D01*
X42572Y63509D01*
X42652Y63461D01*
X42736Y63421D01*
X42824Y63390D01*
X42914Y63367D01*
X43007Y63353D01*
X43100Y63349D01*
X43193Y63353D01*
X43286Y63367D01*
X43376Y63390D01*
X43404Y63400D01*
X51375Y55430D01*
X51429Y55381D01*
X51489Y55339D01*
X51553Y55303D01*
X51620Y55276D01*
X51690Y55255D01*
X51762Y55243D01*
X51835Y55239D01*
X53349D01*
Y39934D01*
X53363Y39936D01*
X53493Y39964D01*
X53603Y39999D01*
X53693Y40043D01*
X53763Y40095D01*
X53813Y40154D01*
X53843Y40222D01*
X53853Y40297D01*
Y38503D01*
X53843Y38578D01*
X53813Y38646D01*
X53763Y38706D01*
X53693Y38757D01*
X53603Y38801D01*
X53493Y38836D01*
X53363Y38864D01*
X53349Y38866D01*
Y36860D01*
Y36722D01*
X53403Y36451D01*
X53475Y36277D01*
X53473Y36272D01*
X53347Y36058D01*
X53202Y35934D01*
X53174Y35939D01*
X53080Y35943D01*
X52986Y35939D01*
X52892Y35925D01*
X52800Y35902D01*
X52711Y35870D01*
X52626Y35829D01*
X52545Y35781D01*
X52469Y35725D01*
X52399Y35661D01*
X52335Y35591D01*
X52279Y35515D01*
X52231Y35434D01*
X52190Y35349D01*
X52158Y35260D01*
X52135Y35168D01*
X52121Y35074D01*
X52117Y34980D01*
X52121Y34886D01*
X52135Y34792D01*
X52158Y34700D01*
X52190Y34611D01*
X52231Y34526D01*
X52279Y34445D01*
X52335Y34369D01*
X52399Y34299D01*
X52469Y34235D01*
X52545Y34179D01*
X52626Y34131D01*
X52711Y34090D01*
X52800Y34058D01*
X52892Y34035D01*
X52986Y34021D01*
X53080Y34017D01*
X53174Y34021D01*
X53268Y34035D01*
X53360Y34058D01*
X53449Y34090D01*
X53534Y34131D01*
X53615Y34179D01*
X53691Y34235D01*
X53761Y34299D01*
X53825Y34369D01*
X53881Y34445D01*
X53929Y34526D01*
X53970Y34611D01*
X54002Y34700D01*
X54025Y34792D01*
X54039Y34886D01*
X54043Y34980D01*
X54039Y35074D01*
X54025Y35168D01*
X54013Y35216D01*
X54104Y35350D01*
X54254Y35481D01*
X54332Y35517D01*
X54341Y35513D01*
X54612Y35459D01*
X54941D01*
X55200Y35510D01*
X55444Y35612D01*
X55664Y35758D01*
X55851Y35945D01*
X55997Y36165D01*
X56098Y36409D01*
X56150Y36668D01*
Y36800D01*
Y38866D01*
X56137Y38864D01*
X56007Y38836D01*
X55897Y38801D01*
X55807Y38757D01*
X55737Y38706D01*
X55687Y38646D01*
X55657Y38578D01*
X55647Y38503D01*
Y40297D01*
X55657Y40222D01*
X55687Y40154D01*
X55737Y40095D01*
X55807Y40043D01*
X55897Y39999D01*
X56007Y39964D01*
X56137Y39936D01*
X56150Y39934D01*
Y55239D01*
X56583D01*
X56611Y55238D01*
X56611Y55238D01*
X56614Y55237D01*
X56619Y55233D01*
X56626Y55228D01*
X56647Y55208D01*
X56657Y55200D01*
X56697Y55165D01*
X56772Y55109D01*
X56852Y55061D01*
X56936Y55021D01*
X57024Y54990D01*
X57114Y54967D01*
X57207Y54953D01*
X57300Y54949D01*
X57393Y54953D01*
X57486Y54967D01*
X57576Y54990D01*
X57664Y55021D01*
X57748Y55061D01*
X57828Y55109D01*
X57903Y55165D01*
X57973Y55227D01*
X58035Y55297D01*
X58091Y55372D01*
X58139Y55452D01*
X58179Y55536D01*
X58210Y55624D01*
X58233Y55714D01*
X58247Y55807D01*
X58251Y55900D01*
X58247Y55993D01*
X58233Y56086D01*
X58210Y56176D01*
X58179Y56264D01*
X58139Y56348D01*
X58091Y56428D01*
X58035Y56503D01*
X57973Y56573D01*
X57903Y56635D01*
X57828Y56691D01*
X57748Y56739D01*
X57664Y56779D01*
X57576Y56810D01*
X57486Y56833D01*
X57393Y56847D01*
X57300Y56851D01*
X57207Y56847D01*
X57114Y56833D01*
X57024Y56810D01*
X56936Y56779D01*
X56852Y56739D01*
X56772Y56691D01*
X56697Y56635D01*
X56627Y56573D01*
X56620Y56565D01*
X56618Y56563D01*
X56599Y56544D01*
X56597Y56542D01*
X56576Y56541D01*
X56150D01*
Y60972D01*
X56660Y61482D01*
X56709Y61536D01*
X56751Y61596D01*
X56787Y61660D01*
X56814Y61727D01*
X56835Y61797D01*
X56847Y61869D01*
X56851Y61942D01*
Y73230D01*
X58620Y75000D01*
X58669Y75054D01*
X58711Y75114D01*
X58747Y75178D01*
X58774Y75245D01*
X58795Y75315D01*
X58807Y75387D01*
X58811Y75460D01*
Y79437D01*
X70860D01*
X70860Y79437D01*
X70980Y79435D01*
X71218Y79462D01*
X71219Y79462D01*
X71246Y79471D01*
X71446Y79538D01*
X71654Y79659D01*
X71831Y79821D01*
X71972Y80015D01*
X72069Y80235D01*
X72118Y80470D01*
Y80924D01*
X72074Y81146D01*
X71987Y81356D01*
X71861Y81545D01*
X71700Y81706D01*
X71511Y81832D01*
X71302Y81919D01*
X71079Y81963D01*
D02*
G37*
G36*
X28830Y64290D02*
X26930D01*
Y62390D01*
X28830D01*
Y64290D01*
D02*
G37*
G36*
X21150Y61926D02*
X21057Y61922D01*
X20964Y61908D01*
X20874Y61885D01*
X20786Y61854D01*
X20702Y61814D01*
X20622Y61766D01*
X20547Y61710D01*
X20477Y61648D01*
X20415Y61578D01*
X20359Y61503D01*
X20311Y61423D01*
X20271Y61339D01*
X20240Y61251D01*
X20217Y61161D01*
X20203Y61068D01*
X20199Y60975D01*
X20203Y60882D01*
X20217Y60789D01*
X20240Y60699D01*
X20271Y60611D01*
X20311Y60527D01*
X20359Y60447D01*
X20395Y60398D01*
X20399Y60358D01*
X20399Y60336D01*
Y59439D01*
X20398Y59408D01*
X20397Y59383D01*
X20397Y59379D01*
X20359Y59328D01*
X20311Y59248D01*
X20271Y59164D01*
X20240Y59076D01*
X20217Y58986D01*
X20203Y58893D01*
X20199Y58800D01*
X20203Y58707D01*
X20217Y58614D01*
X20240Y58524D01*
X20271Y58436D01*
X20311Y58352D01*
X20359Y58272D01*
X20415Y58197D01*
X20477Y58127D01*
X20547Y58065D01*
X20622Y58009D01*
X20702Y57961D01*
X20786Y57921D01*
X20874Y57890D01*
X20964Y57867D01*
X21057Y57853D01*
X21150Y57849D01*
X21243Y57853D01*
X21336Y57867D01*
X21426Y57890D01*
X21514Y57921D01*
X21598Y57961D01*
X21678Y58009D01*
X21753Y58065D01*
X21823Y58127D01*
X21885Y58197D01*
X21941Y58272D01*
X21989Y58352D01*
X22029Y58436D01*
X22060Y58524D01*
X22083Y58614D01*
X22097Y58707D01*
X22101Y58800D01*
X22097Y58893D01*
X22083Y58986D01*
X22060Y59076D01*
X22029Y59164D01*
X21989Y59248D01*
X21941Y59328D01*
X21905Y59377D01*
X21901Y59417D01*
X21901Y59439D01*
Y60336D01*
X21902Y60367D01*
X21903Y60392D01*
X21903Y60396D01*
X21941Y60447D01*
X21989Y60527D01*
X22029Y60611D01*
X22060Y60699D01*
X22083Y60789D01*
X22097Y60882D01*
X22101Y60975D01*
X22097Y61068D01*
X22083Y61161D01*
X22060Y61251D01*
X22029Y61339D01*
X21989Y61423D01*
X21941Y61503D01*
X21885Y61578D01*
X21823Y61648D01*
X21753Y61710D01*
X21678Y61766D01*
X21598Y61814D01*
X21514Y61854D01*
X21426Y61885D01*
X21336Y61908D01*
X21243Y61922D01*
X21150Y61926D01*
D02*
G37*
G36*
X6075Y65351D02*
X5982Y65347D01*
X5889Y65333D01*
X5799Y65310D01*
X5711Y65279D01*
X5627Y65239D01*
X5547Y65191D01*
X5472Y65135D01*
X5402Y65073D01*
X5340Y65003D01*
X5284Y64928D01*
X5236Y64848D01*
X5196Y64764D01*
X5165Y64676D01*
X5142Y64586D01*
X5128Y64493D01*
X5124Y64400D01*
X5128Y64307D01*
X5142Y64214D01*
X5165Y64124D01*
X5196Y64036D01*
X5236Y63952D01*
X5284Y63872D01*
X5320Y63823D01*
X5324Y63783D01*
X5324Y63761D01*
Y61800D01*
X5329Y61716D01*
X5343Y61633D01*
X5366Y61552D01*
X5398Y61474D01*
X5439Y61400D01*
X5488Y61332D01*
X5544Y61269D01*
X7717Y59096D01*
X7738Y59074D01*
X7755Y59055D01*
X7758Y59052D01*
X7767Y58989D01*
X7790Y58899D01*
X7821Y58811D01*
X7861Y58727D01*
X7909Y58647D01*
X7965Y58572D01*
X8027Y58502D01*
X8097Y58440D01*
X8172Y58384D01*
X8252Y58336D01*
X8336Y58296D01*
X8424Y58265D01*
X8514Y58242D01*
X8607Y58228D01*
X8700Y58224D01*
X8793Y58228D01*
X8886Y58242D01*
X8976Y58265D01*
X9064Y58296D01*
X9148Y58336D01*
X9228Y58384D01*
X9303Y58440D01*
X9373Y58502D01*
X9435Y58572D01*
X9491Y58647D01*
X9539Y58727D01*
X9579Y58811D01*
X9610Y58899D01*
X9633Y58989D01*
X9647Y59082D01*
X9651Y59175D01*
X9647Y59268D01*
X9633Y59361D01*
X9610Y59451D01*
X9579Y59539D01*
X9539Y59623D01*
X9491Y59703D01*
X9435Y59778D01*
X9373Y59848D01*
X9303Y59910D01*
X9228Y59966D01*
X9148Y60014D01*
X9064Y60054D01*
X8976Y60085D01*
X8886Y60108D01*
X8825Y60117D01*
X8795Y60143D01*
X8779Y60158D01*
X6826Y62111D01*
Y63761D01*
X6827Y63792D01*
X6828Y63817D01*
X6828Y63821D01*
X6866Y63872D01*
X6914Y63952D01*
X6954Y64036D01*
X6985Y64124D01*
X7008Y64214D01*
X7022Y64307D01*
X7026Y64400D01*
X7022Y64493D01*
X7008Y64586D01*
X6985Y64676D01*
X6954Y64764D01*
X6914Y64848D01*
X6866Y64928D01*
X6810Y65003D01*
X6748Y65073D01*
X6678Y65135D01*
X6603Y65191D01*
X6523Y65239D01*
X6439Y65279D01*
X6351Y65310D01*
X6261Y65333D01*
X6168Y65347D01*
X6075Y65351D01*
D02*
G37*
G36*
X35500Y59211D02*
X35407Y59207D01*
X35314Y59193D01*
X35224Y59170D01*
X35136Y59139D01*
X35052Y59099D01*
X34972Y59051D01*
X34897Y58995D01*
X34827Y58933D01*
X34765Y58863D01*
X34709Y58788D01*
X34661Y58708D01*
X34621Y58624D01*
X34590Y58536D01*
X34567Y58446D01*
X34553Y58353D01*
X34549Y58260D01*
X34553Y58167D01*
X34556Y58151D01*
X34406Y57878D01*
X34366Y57829D01*
X34254Y57751D01*
X29160D01*
X29160Y57751D01*
X29124Y57749D01*
X28988Y57845D01*
X28851Y58002D01*
X28813Y58074D01*
X28827Y58167D01*
X28831Y58260D01*
X28827Y58353D01*
X28813Y58446D01*
X28790Y58536D01*
X28759Y58624D01*
X28719Y58708D01*
X28671Y58788D01*
X28615Y58863D01*
X28553Y58933D01*
X28483Y58995D01*
X28408Y59051D01*
X28328Y59099D01*
X28244Y59139D01*
X28156Y59170D01*
X28066Y59193D01*
X27973Y59207D01*
X27880Y59211D01*
X27787Y59207D01*
X27694Y59193D01*
X27604Y59170D01*
X27516Y59139D01*
X27432Y59099D01*
X27352Y59051D01*
X27277Y58995D01*
X27207Y58933D01*
X27145Y58863D01*
X27089Y58788D01*
X27041Y58708D01*
X27001Y58624D01*
X26970Y58536D01*
X26947Y58446D01*
X26933Y58353D01*
X26929Y58260D01*
X26933Y58167D01*
X26947Y58074D01*
X26970Y57984D01*
X27001Y57896D01*
X27041Y57812D01*
X27089Y57732D01*
X27145Y57657D01*
X27207Y57587D01*
X27277Y57525D01*
X27352Y57469D01*
X27432Y57421D01*
X27516Y57381D01*
X27604Y57350D01*
X27694Y57327D01*
X27727Y57095D01*
X27721Y56942D01*
X27696Y56933D01*
X27691Y56930D01*
X27685Y56928D01*
X27661Y56916D01*
X27637Y56904D01*
X27632Y56901D01*
X27627Y56898D01*
X27605Y56882D01*
X27582Y56867D01*
X27578Y56864D01*
X27573Y56860D01*
X27553Y56842D01*
X27533Y56824D01*
X27529Y56820D01*
X27525Y56816D01*
X27508Y56795D01*
X27490Y56775D01*
X27487Y56770D01*
X27483Y56766D01*
X27469Y56743D01*
X27454Y56721D01*
X27451Y56715D01*
X27448Y56710D01*
X27437Y56686D01*
X27425Y56662D01*
X27423Y56656D01*
X27420Y56651D01*
X27412Y56625D01*
X27403Y56600D01*
X27402Y56594D01*
X27401Y56588D01*
X27396Y56562D01*
X27391Y56535D01*
X27391Y56534D01*
X27352Y56511D01*
X27277Y56455D01*
X27207Y56393D01*
X27145Y56323D01*
X27089Y56248D01*
X27041Y56168D01*
X27001Y56084D01*
X26970Y55996D01*
X26947Y55906D01*
X26933Y55813D01*
X26929Y55720D01*
X26933Y55627D01*
X26947Y55534D01*
X26970Y55444D01*
X27001Y55356D01*
X27041Y55272D01*
X27089Y55192D01*
X27145Y55117D01*
X27207Y55047D01*
X27277Y54985D01*
X27352Y54929D01*
X27432Y54881D01*
X27516Y54841D01*
X27604Y54810D01*
X27694Y54787D01*
X27787Y54773D01*
X27880Y54769D01*
X27973Y54773D01*
X28066Y54787D01*
X28156Y54810D01*
X28244Y54841D01*
X28328Y54881D01*
X28408Y54929D01*
X28483Y54985D01*
X28553Y55047D01*
X28615Y55117D01*
X28671Y55192D01*
X28694Y55231D01*
X28695Y55231D01*
X28722Y55236D01*
X28748Y55241D01*
X28754Y55242D01*
X28760Y55244D01*
X28785Y55252D01*
X28811Y55260D01*
X28816Y55263D01*
X28822Y55265D01*
X28846Y55277D01*
X28870Y55288D01*
X28875Y55291D01*
X28881Y55294D01*
X28903Y55309D01*
X28926Y55323D01*
X28930Y55327D01*
X28935Y55330D01*
X28955Y55348D01*
X28976Y55365D01*
X28980Y55369D01*
X28984Y55373D01*
X29002Y55393D01*
X29020Y55413D01*
X29024Y55418D01*
X29027Y55422D01*
X29042Y55445D01*
X29058Y55467D01*
X29061Y55472D01*
X29064Y55477D01*
X29076Y55501D01*
X29088Y55525D01*
X29090Y55531D01*
X29093Y55536D01*
X29102Y55561D01*
X29111Y55587D01*
X29112Y55592D01*
X29114Y55598D01*
X29119Y55624D01*
X29125Y55651D01*
X29126Y55656D01*
X29127Y55662D01*
X29129Y55689D01*
X29131Y55716D01*
X29132Y55774D01*
X29136Y55811D01*
X29141Y55843D01*
X29148Y55872D01*
X29157Y55898D01*
X29167Y55921D01*
X29179Y55943D01*
X29193Y55964D01*
X29210Y55985D01*
X29234Y56012D01*
X29471Y56249D01*
X34259D01*
X34289Y56235D01*
X34379Y56163D01*
X34511Y55982D01*
X34559Y55849D01*
X34553Y55813D01*
X34549Y55720D01*
X34553Y55627D01*
X34567Y55534D01*
X34590Y55444D01*
X34621Y55356D01*
X34661Y55272D01*
X34709Y55192D01*
X34765Y55117D01*
X34827Y55047D01*
X34897Y54985D01*
X34972Y54929D01*
X35052Y54881D01*
X35136Y54841D01*
X35224Y54810D01*
X35314Y54787D01*
X35407Y54773D01*
X35500Y54769D01*
X35593Y54773D01*
X35686Y54787D01*
X35776Y54810D01*
X35864Y54841D01*
X35948Y54881D01*
X36028Y54929D01*
X36103Y54985D01*
X36173Y55047D01*
X36235Y55117D01*
X36291Y55192D01*
X36339Y55272D01*
X36379Y55356D01*
X36410Y55444D01*
X36433Y55534D01*
X36447Y55627D01*
X36451Y55720D01*
X36447Y55813D01*
X36441Y55849D01*
X36489Y55982D01*
X36621Y56163D01*
X36711Y56235D01*
X36741Y56249D01*
X39551D01*
X39662Y56156D01*
X39767Y55998D01*
X39809Y55869D01*
X39790Y55816D01*
X39767Y55726D01*
X39753Y55633D01*
X39749Y55540D01*
X39753Y55447D01*
X39767Y55354D01*
X39790Y55264D01*
X39821Y55176D01*
X39861Y55092D01*
X39909Y55012D01*
X39965Y54937D01*
X40027Y54867D01*
X40097Y54805D01*
X40172Y54749D01*
X40252Y54701D01*
X40336Y54661D01*
X40424Y54630D01*
X40514Y54607D01*
X40607Y54593D01*
X40700Y54589D01*
X40793Y54593D01*
X40886Y54607D01*
X40976Y54630D01*
X41064Y54661D01*
X41148Y54701D01*
X41228Y54749D01*
X41303Y54805D01*
X41373Y54867D01*
X41435Y54937D01*
X41491Y55012D01*
X41539Y55092D01*
X41579Y55176D01*
X41610Y55264D01*
X41633Y55354D01*
X41647Y55447D01*
X41651Y55540D01*
X41647Y55633D01*
X41633Y55726D01*
X41610Y55816D01*
X41579Y55904D01*
X41539Y55988D01*
X41491Y56068D01*
X41435Y56143D01*
X41373Y56213D01*
X41303Y56275D01*
X41228Y56331D01*
X41148Y56379D01*
X41064Y56419D01*
X40976Y56450D01*
X40886Y56473D01*
X40885Y56473D01*
X40883Y56481D01*
X40818Y56868D01*
X40824Y56871D01*
X40832Y56873D01*
X40854Y56885D01*
X40877Y56895D01*
X40884Y56899D01*
X40890Y56903D01*
X40911Y56917D01*
X40933Y56930D01*
X40939Y56935D01*
X40945Y56939D01*
X40964Y56956D01*
X40983Y56972D01*
X40988Y56977D01*
X40994Y56982D01*
X41011Y57001D01*
X41028Y57020D01*
X41032Y57026D01*
X41037Y57032D01*
X41051Y57053D01*
X41066Y57073D01*
X41069Y57080D01*
X41073Y57086D01*
X41085Y57109D01*
X41096Y57130D01*
X41650D01*
Y59030D01*
X39750D01*
Y58515D01*
X39729Y58506D01*
X39724Y58503D01*
X39718Y58500D01*
X39696Y58486D01*
X39673Y58473D01*
X39668Y58469D01*
X39662Y58465D01*
X39642Y58448D01*
X39621Y58432D01*
X39617Y58427D01*
X39612Y58423D01*
X39594Y58404D01*
X39576Y58385D01*
X39572Y58380D01*
X39567Y58375D01*
X39552Y58354D01*
X39536Y58333D01*
X39533Y58327D01*
X39529Y58322D01*
X39517Y58299D01*
X39504Y58276D01*
X39502Y58270D01*
X39499Y58264D01*
X39490Y58239D01*
X39480Y58215D01*
X39478Y58209D01*
X39476Y58203D01*
X39470Y58177D01*
X39464Y58151D01*
X39463Y58145D01*
X39461Y58139D01*
X39459Y58112D01*
X39456Y58086D01*
X39456Y58081D01*
X39445Y58061D01*
X39310Y57896D01*
X39201Y57783D01*
X39159Y57751D01*
X36746D01*
X36634Y57829D01*
X36594Y57878D01*
X36444Y58151D01*
X36447Y58167D01*
X36451Y58260D01*
X36447Y58353D01*
X36433Y58446D01*
X36410Y58536D01*
X36379Y58624D01*
X36339Y58708D01*
X36291Y58788D01*
X36235Y58863D01*
X36173Y58933D01*
X36103Y58995D01*
X36028Y59051D01*
X35948Y59099D01*
X35864Y59139D01*
X35776Y59170D01*
X35686Y59193D01*
X35593Y59207D01*
X35500Y59211D01*
D02*
G37*
G36*
X14000Y28588D02*
X13193Y27781D01*
X13254Y27734D01*
X13349Y27673D01*
X13450Y27621D01*
X13555Y27577D01*
X13663Y27543D01*
X13774Y27519D01*
X13887Y27504D01*
X14000Y27499D01*
X14113Y27504D01*
X14226Y27519D01*
X14337Y27543D01*
X14445Y27577D01*
X14550Y27621D01*
X14651Y27673D01*
X14746Y27734D01*
X14807Y27781D01*
X14000Y28588D01*
D02*
G37*
G36*
X7000D02*
X6193Y27781D01*
X6254Y27734D01*
X6349Y27673D01*
X6450Y27621D01*
X6555Y27577D01*
X6663Y27543D01*
X6774Y27519D01*
X6887Y27504D01*
X7000Y27499D01*
X7113Y27504D01*
X7226Y27519D01*
X7337Y27543D01*
X7445Y27577D01*
X7550Y27621D01*
X7651Y27673D01*
X7746Y27734D01*
X7807Y27781D01*
X7000Y28588D01*
D02*
G37*
G36*
X49158Y30401D02*
X17342D01*
X17033Y30340D01*
X16742Y30219D01*
X16479Y30044D01*
X16256Y29821D01*
X16081Y29558D01*
X15960Y29267D01*
X15899Y28958D01*
Y28642D01*
X15960Y28333D01*
X16081Y28042D01*
X16256Y27779D01*
X16479Y27556D01*
X16742Y27381D01*
X17033Y27260D01*
X17342Y27199D01*
X17500D01*
X49000Y27199D01*
X49158D01*
X49467Y27260D01*
X49758Y27381D01*
X50021Y27556D01*
X50244Y27779D01*
X50419Y28042D01*
X50540Y28333D01*
X50601Y28642D01*
Y28958D01*
X50540Y29267D01*
X50419Y29558D01*
X50244Y29821D01*
X50021Y30044D01*
X49758Y30219D01*
X49467Y30340D01*
X49158Y30401D01*
D02*
G37*
G36*
X27880Y61751D02*
X27787Y61747D01*
X27694Y61733D01*
X27604Y61710D01*
X27516Y61679D01*
X27432Y61639D01*
X27352Y61591D01*
X27277Y61535D01*
X27207Y61473D01*
X27145Y61403D01*
X27089Y61328D01*
X27041Y61248D01*
X27001Y61164D01*
X26970Y61076D01*
X26947Y60986D01*
X26933Y60893D01*
X26929Y60800D01*
X26933Y60707D01*
X26947Y60614D01*
X26970Y60524D01*
X27001Y60436D01*
X27041Y60352D01*
X27089Y60272D01*
X27145Y60197D01*
X27207Y60127D01*
X27277Y60065D01*
X27352Y60009D01*
X27432Y59961D01*
X27516Y59921D01*
X27604Y59890D01*
X27694Y59867D01*
X27787Y59853D01*
X27880Y59849D01*
X27973Y59853D01*
X28066Y59867D01*
X28156Y59890D01*
X28244Y59921D01*
X28328Y59961D01*
X28408Y60009D01*
X28483Y60065D01*
X28553Y60127D01*
X28615Y60197D01*
X28671Y60272D01*
X28719Y60352D01*
X28759Y60436D01*
X28790Y60524D01*
X28813Y60614D01*
X28827Y60707D01*
X28831Y60800D01*
X28827Y60893D01*
X28813Y60986D01*
X28790Y61076D01*
X28759Y61164D01*
X28719Y61248D01*
X28671Y61328D01*
X28615Y61403D01*
X28553Y61473D01*
X28483Y61535D01*
X28408Y61591D01*
X28328Y61639D01*
X28244Y61679D01*
X28156Y61710D01*
X28066Y61733D01*
X27973Y61747D01*
X27880Y61751D01*
D02*
G37*
G36*
X35500D02*
X35407Y61747D01*
X35314Y61733D01*
X35224Y61710D01*
X35136Y61679D01*
X35052Y61639D01*
X34972Y61591D01*
X34897Y61535D01*
X34827Y61473D01*
X34765Y61403D01*
X34709Y61328D01*
X34661Y61248D01*
X34621Y61164D01*
X34590Y61076D01*
X34567Y60986D01*
X34553Y60893D01*
X34549Y60800D01*
X34553Y60707D01*
X34567Y60614D01*
X34590Y60524D01*
X34621Y60436D01*
X34661Y60352D01*
X34709Y60272D01*
X34765Y60197D01*
X34827Y60127D01*
X34897Y60065D01*
X34972Y60009D01*
X35052Y59961D01*
X35136Y59921D01*
X35224Y59890D01*
X35314Y59867D01*
X35407Y59853D01*
X35500Y59849D01*
X35593Y59853D01*
X35686Y59867D01*
X35776Y59890D01*
X35864Y59921D01*
X35948Y59961D01*
X36028Y60009D01*
X36103Y60065D01*
X36173Y60127D01*
X36235Y60197D01*
X36291Y60272D01*
X36339Y60352D01*
X36379Y60436D01*
X36410Y60524D01*
X36433Y60614D01*
X36447Y60707D01*
X36451Y60800D01*
X36447Y60893D01*
X36433Y60986D01*
X36410Y61076D01*
X36379Y61164D01*
X36339Y61248D01*
X36291Y61328D01*
X36235Y61403D01*
X36173Y61473D01*
X36103Y61535D01*
X36028Y61591D01*
X35948Y61639D01*
X35864Y61679D01*
X35776Y61710D01*
X35686Y61733D01*
X35593Y61747D01*
X35500Y61751D01*
D02*
G37*
G36*
Y64291D02*
X35407Y64287D01*
X35314Y64273D01*
X35224Y64250D01*
X35136Y64219D01*
X35052Y64179D01*
X34972Y64131D01*
X34897Y64075D01*
X34827Y64013D01*
X34765Y63943D01*
X34709Y63868D01*
X34661Y63788D01*
X34621Y63704D01*
X34590Y63616D01*
X34567Y63526D01*
X34553Y63433D01*
X34549Y63340D01*
X34553Y63247D01*
X34567Y63154D01*
X34590Y63064D01*
X34621Y62976D01*
X34661Y62892D01*
X34709Y62812D01*
X34765Y62737D01*
X34827Y62667D01*
X34897Y62605D01*
X34972Y62549D01*
X35052Y62501D01*
X35136Y62461D01*
X35224Y62430D01*
X35314Y62407D01*
X35407Y62393D01*
X35500Y62389D01*
X35593Y62393D01*
X35686Y62407D01*
X35776Y62430D01*
X35864Y62461D01*
X35948Y62501D01*
X36028Y62549D01*
X36103Y62605D01*
X36173Y62667D01*
X36235Y62737D01*
X36291Y62812D01*
X36339Y62892D01*
X36379Y62976D01*
X36410Y63064D01*
X36433Y63154D01*
X36447Y63247D01*
X36451Y63340D01*
X36447Y63433D01*
X36433Y63526D01*
X36410Y63616D01*
X36379Y63704D01*
X36339Y63788D01*
X36291Y63868D01*
X36235Y63943D01*
X36173Y64013D01*
X36103Y64075D01*
X36028Y64131D01*
X35948Y64179D01*
X35864Y64219D01*
X35776Y64250D01*
X35686Y64273D01*
X35593Y64287D01*
X35500Y64291D01*
D02*
G37*
%LPD*%
G36*
X28875Y46201D02*
X28828Y46150D01*
X28786Y46096D01*
X28748Y46040D01*
X28716Y45981D01*
X28689Y45919D01*
X28667Y45854D01*
X28650Y45786D01*
X28639Y45716D01*
X28632Y45643D01*
X28630Y45568D01*
X27888Y46310D01*
X27963Y46312D01*
X28036Y46319D01*
X28106Y46330D01*
X28174Y46347D01*
X28239Y46369D01*
X28301Y46396D01*
X28360Y46428D01*
X28416Y46466D01*
X28470Y46508D01*
X28521Y46555D01*
X28875Y46201D01*
D02*
G37*
G36*
X46798Y48145D02*
X46748Y48090D01*
X46707Y48036D01*
X46674Y47982D01*
X46651Y47930D01*
X46637Y47877D01*
X46632Y47826D01*
X46637Y47774D01*
X46650Y47724D01*
X46673Y47674D01*
X46704Y47624D01*
X45885Y47792D01*
X45357Y47074D01*
X45345Y47151D01*
X45328Y47224D01*
X45307Y47295D01*
X45283Y47363D01*
X45256Y47427D01*
X45224Y47489D01*
X45189Y47547D01*
X45150Y47603D01*
X45107Y47656D01*
X45061Y47705D01*
X45357Y48116D01*
X45409Y48068D01*
X45464Y48027D01*
X45521Y47991D01*
X45580Y47962D01*
X45641Y47939D01*
X45704Y47923D01*
X45770Y47913D01*
X45828Y47910D01*
X45884Y47957D01*
X46263Y48317D01*
X46362Y48415D01*
X46798Y48145D01*
D02*
G37*
G36*
X44152Y49637D02*
X44159Y49564D01*
X44170Y49494D01*
X44187Y49426D01*
X44209Y49361D01*
X44236Y49299D01*
X44268Y49240D01*
X44306Y49184D01*
X44348Y49130D01*
X44395Y49079D01*
X44041Y48725D01*
X43990Y48772D01*
X43936Y48814D01*
X43880Y48852D01*
X43821Y48884D01*
X43759Y48911D01*
X43694Y48933D01*
X43626Y48950D01*
X43556Y48961D01*
X43483Y48968D01*
X43408Y48970D01*
X44150Y49713D01*
X44152Y49637D01*
D02*
G37*
G36*
X43228Y48990D02*
X43204Y48994D01*
X43166Y48997D01*
X42874Y49007D01*
X42358Y49010D01*
X42230Y49510D01*
X42305Y49513D01*
X42372Y49522D01*
X42432Y49537D01*
X42486Y49557D01*
X42532Y49584D01*
X42571Y49617D01*
X42602Y49655D01*
X42627Y49700D01*
X42645Y49750D01*
X42655Y49806D01*
X43228Y48990D01*
D02*
G37*
G36*
X47095Y50361D02*
X47048Y50310D01*
X47006Y50256D01*
X46968Y50200D01*
X46936Y50141D01*
X46909Y50079D01*
X46887Y50014D01*
X46870Y49946D01*
X46859Y49876D01*
X46852Y49803D01*
X46850Y49728D01*
X46107Y50470D01*
X46183Y50472D01*
X46256Y50479D01*
X46326Y50490D01*
X46394Y50507D01*
X46459Y50529D01*
X46521Y50556D01*
X46580Y50588D01*
X46636Y50626D01*
X46690Y50668D01*
X46741Y50715D01*
X47095Y50361D01*
D02*
G37*
G36*
X49003Y51264D02*
X48992Y51245D01*
X48982Y51223D01*
X48973Y51196D01*
X48966Y51166D01*
X48960Y51132D01*
X48953Y51052D01*
X48951Y51006D01*
X48950Y50956D01*
X48450D01*
X48449Y51006D01*
X48440Y51132D01*
X48434Y51166D01*
X48427Y51196D01*
X48418Y51223D01*
X48408Y51245D01*
X48397Y51264D01*
X48385Y51279D01*
X49015D01*
X49003Y51264D01*
D02*
G37*
G36*
X46777Y54071D02*
X46782Y54046D01*
X46792Y54019D01*
X46805Y53991D01*
X46822Y53961D01*
X46842Y53930D01*
X46867Y53897D01*
X46928Y53827D01*
X46964Y53790D01*
X46610Y53436D01*
X46573Y53472D01*
X46503Y53533D01*
X46470Y53558D01*
X46439Y53578D01*
X46409Y53595D01*
X46381Y53609D01*
X46354Y53618D01*
X46329Y53623D01*
X46305Y53625D01*
X46775Y54095D01*
X46777Y54071D01*
D02*
G37*
G36*
X39107Y39354D02*
X39072Y39318D01*
X38990Y39222D01*
X38970Y39194D01*
X38954Y39167D01*
X38941Y39142D01*
X38932Y39120D01*
X38927Y39099D01*
X38925Y39079D01*
X38479Y39525D01*
X38499Y39527D01*
X38520Y39532D01*
X38542Y39541D01*
X38567Y39554D01*
X38594Y39570D01*
X38622Y39590D01*
X38684Y39641D01*
X38718Y39672D01*
X38754Y39707D01*
X39107Y39354D01*
D02*
G37*
G36*
X49451Y40635D02*
X48940Y40625D01*
X48911Y41125D01*
X48961Y41126D01*
X49047Y41133D01*
X49083Y41139D01*
X49115Y41148D01*
X49142Y41157D01*
X49165Y41169D01*
X49183Y41183D01*
X49197Y41198D01*
X49206Y41215D01*
X49451Y40635D01*
D02*
G37*
G36*
X42179Y34785D02*
X42164Y34797D01*
X42145Y34808D01*
X42123Y34818D01*
X42096Y34827D01*
X42066Y34834D01*
X42032Y34840D01*
X41952Y34847D01*
X41906Y34849D01*
X41856Y34850D01*
Y35350D01*
X41906Y35351D01*
X42032Y35360D01*
X42066Y35366D01*
X42096Y35373D01*
X42123Y35382D01*
X42145Y35392D01*
X42164Y35403D01*
X42179Y35415D01*
Y34785D01*
D02*
G37*
G36*
X40436Y35403D02*
X40455Y35392D01*
X40477Y35382D01*
X40504Y35373D01*
X40534Y35366D01*
X40568Y35360D01*
X40648Y35353D01*
X40694Y35351D01*
X40744Y35350D01*
Y34850D01*
X40694Y34849D01*
X40568Y34840D01*
X40534Y34834D01*
X40504Y34827D01*
X40477Y34818D01*
X40455Y34808D01*
X40436Y34797D01*
X40421Y34785D01*
Y35415D01*
X40436Y35403D01*
D02*
G37*
G36*
X27941Y42272D02*
X27885Y42264D01*
X27836Y42248D01*
X27792Y42225D01*
X27755Y42195D01*
X27723Y42157D01*
X27697Y42111D01*
X27676Y42059D01*
X27662Y41998D01*
X27653Y41931D01*
X27650Y41856D01*
X27150Y41994D01*
X27146Y42864D01*
X27941Y42272D01*
D02*
G37*
G36*
X27651Y40044D02*
X27660Y39918D01*
X27666Y39884D01*
X27673Y39854D01*
X27682Y39827D01*
X27692Y39805D01*
X27703Y39786D01*
X27715Y39771D01*
X27085D01*
X27097Y39786D01*
X27108Y39805D01*
X27118Y39827D01*
X27127Y39854D01*
X27134Y39884D01*
X27140Y39918D01*
X27147Y39998D01*
X27149Y40044D01*
X27150Y40094D01*
X27650D01*
X27651Y40044D01*
D02*
G37*
G36*
X31257Y75497D02*
X31353Y75415D01*
X31381Y75395D01*
X31408Y75379D01*
X31433Y75366D01*
X31455Y75357D01*
X31476Y75352D01*
X31496Y75350D01*
X31050Y74905D01*
X31048Y74924D01*
X31043Y74945D01*
X31034Y74967D01*
X31021Y74992D01*
X31005Y75019D01*
X30985Y75047D01*
X30934Y75109D01*
X30903Y75143D01*
X30868Y75179D01*
X31221Y75532D01*
X31257Y75497D01*
D02*
G37*
G36*
X29653Y82189D02*
X29642Y82170D01*
X29632Y82148D01*
X29623Y82121D01*
X29616Y82091D01*
X29610Y82057D01*
X29603Y81977D01*
X29601Y81931D01*
X29600Y81881D01*
X29100D01*
X29099Y81931D01*
X29090Y82057D01*
X29084Y82091D01*
X29077Y82121D01*
X29068Y82148D01*
X29058Y82170D01*
X29047Y82189D01*
X29035Y82204D01*
X29665D01*
X29653Y82189D01*
D02*
G37*
G36*
X29601Y83129D02*
X29665D01*
X29653Y83114D01*
X29642Y83095D01*
X29632Y83073D01*
X29623Y83046D01*
X29616Y83016D01*
X29611Y82988D01*
X29616Y82959D01*
X29623Y82929D01*
X29632Y82902D01*
X29642Y82880D01*
X29653Y82861D01*
X29665Y82846D01*
X29601D01*
X29600Y82806D01*
X29100D01*
X29099Y82846D01*
X29035D01*
X29047Y82861D01*
X29058Y82880D01*
X29068Y82902D01*
X29077Y82929D01*
X29084Y82959D01*
X29089Y82988D01*
X29084Y83016D01*
X29077Y83046D01*
X29068Y83073D01*
X29058Y83095D01*
X29047Y83114D01*
X29035Y83129D01*
X29099D01*
X29100Y83169D01*
X29600D01*
X29601Y83129D01*
D02*
G37*
G36*
X11532Y76379D02*
X11497Y76343D01*
X11415Y76247D01*
X11395Y76219D01*
X11379Y76192D01*
X11366Y76167D01*
X11357Y76145D01*
X11352Y76124D01*
X11350Y76104D01*
X10905Y76550D01*
X10924Y76552D01*
X10945Y76557D01*
X10967Y76566D01*
X10992Y76579D01*
X11019Y76595D01*
X11047Y76615D01*
X11109Y76666D01*
X11143Y76697D01*
X11179Y76732D01*
X11532Y76379D01*
D02*
G37*
G36*
X14161Y76993D02*
X14143Y77008D01*
X14121Y77022D01*
X14095Y77035D01*
X14066Y77045D01*
X14033Y77054D01*
X13996Y77062D01*
X13955Y77068D01*
X13863Y77074D01*
X13811Y77075D01*
Y77575D01*
X13863Y77576D01*
X13955Y77582D01*
X13996Y77588D01*
X14033Y77596D01*
X14066Y77605D01*
X14095Y77615D01*
X14121Y77628D01*
X14143Y77642D01*
X14161Y77658D01*
Y76993D01*
D02*
G37*
G36*
X43515Y64478D02*
X43552Y64419D01*
X43572Y64390D01*
X43644Y64300D01*
X43671Y64269D01*
X43730Y64207D01*
X43661Y63852D01*
X43628Y63882D01*
X43595Y63907D01*
X43563Y63926D01*
X43530Y63941D01*
X43497Y63950D01*
X43465Y63953D01*
X43432Y63952D01*
X43399Y63945D01*
X43366Y63933D01*
X43334Y63915D01*
X43500Y64506D01*
X43515Y64478D01*
D02*
G37*
G36*
X52232Y66179D02*
X52197Y66143D01*
X52115Y66047D01*
X52095Y66019D01*
X52079Y65992D01*
X52066Y65967D01*
X52057Y65945D01*
X52052Y65924D01*
X52050Y65905D01*
X51604Y66350D01*
X51624Y66352D01*
X51645Y66357D01*
X51667Y66366D01*
X51692Y66379D01*
X51719Y66395D01*
X51747Y66415D01*
X51809Y66466D01*
X51843Y66497D01*
X51879Y66532D01*
X52232Y66179D01*
D02*
G37*
G36*
X53303Y68164D02*
X53292Y68145D01*
X53282Y68123D01*
X53273Y68096D01*
X53266Y68066D01*
X53260Y68032D01*
X53253Y67952D01*
X53251Y67906D01*
X53250Y67856D01*
X52750D01*
X52749Y67906D01*
X52740Y68032D01*
X52734Y68066D01*
X52727Y68096D01*
X52718Y68123D01*
X52708Y68145D01*
X52697Y68164D01*
X52685Y68179D01*
X53315D01*
X53303Y68164D01*
D02*
G37*
G36*
X61200Y81645D02*
X61221Y81274D01*
X61227Y81255D01*
X61233Y81244D01*
X60167D01*
X60173Y81255D01*
X60179Y81274D01*
X60184Y81302D01*
X60188Y81338D01*
X60197Y81497D01*
X60200Y81732D01*
X61200D01*
X61200Y81645D01*
D02*
G37*
G36*
X61227Y80145D02*
X61221Y80126D01*
X61216Y80098D01*
X61212Y80062D01*
X61203Y79903D01*
X61200Y79668D01*
X60200D01*
X60200Y79755D01*
X60179Y80126D01*
X60173Y80145D01*
X60167Y80156D01*
X61233D01*
X61227Y80145D01*
D02*
G37*
G36*
X58621Y80082D02*
X58498Y79939D01*
X58448Y79870D01*
X58406Y79803D01*
X58371Y79738D01*
X58345Y79675D01*
X58325Y79613D01*
X58314Y79553D01*
X58310Y79496D01*
X58010D01*
X58006Y79553D01*
X57995Y79613D01*
X57975Y79675D01*
X57949Y79738D01*
X57914Y79803D01*
X57872Y79870D01*
X57822Y79939D01*
X57765Y80009D01*
X57627Y80156D01*
X58693D01*
X58621Y80082D01*
D02*
G37*
G36*
X51501Y58689D02*
X51353Y58525D01*
X51341Y58505D01*
X51325Y58470D01*
X51314Y58435D01*
X51307Y58399D01*
X51305Y58362D01*
X51307Y58324D01*
X51314Y58285D01*
X51326Y58246D01*
X51171Y58323D01*
X51150Y58300D01*
X51081Y58369D01*
X50763Y58529D01*
X50807Y58544D01*
X50891Y58578D01*
X50930Y58597D01*
X51002Y58639D01*
X51036Y58662D01*
X51067Y58687D01*
X51289Y58901D01*
X51501Y58689D01*
D02*
G37*
G36*
X56975Y56060D02*
X57113Y56067D01*
Y55713D01*
X57103Y55718D01*
X57084Y55723D01*
X57055Y55727D01*
X56982Y55732D01*
X56986Y55578D01*
X56952Y55609D01*
X56918Y55636D01*
X56882Y55661D01*
X56846Y55682D01*
X56809Y55699D01*
X56771Y55714D01*
X56732Y55725D01*
X56692Y55734D01*
X56651Y55738D01*
X56626Y55739D01*
X56590Y55740D01*
Y56040D01*
X56660Y56044D01*
X56685Y56047D01*
X56725Y56055D01*
X56763Y56067D01*
X56801Y56082D01*
X56837Y56100D01*
X56872Y56122D01*
X56907Y56147D01*
X56940Y56176D01*
X56972Y56208D01*
X56975Y56060D01*
D02*
G37*
G36*
X21401Y59394D02*
X21410Y59268D01*
X21416Y59234D01*
X21423Y59204D01*
X21432Y59177D01*
X21442Y59155D01*
X21453Y59136D01*
X21465Y59121D01*
X20835D01*
X20847Y59136D01*
X20858Y59155D01*
X20868Y59177D01*
X20877Y59204D01*
X20884Y59234D01*
X20890Y59268D01*
X20897Y59348D01*
X20899Y59394D01*
X20900Y59444D01*
X21400D01*
X21401Y59394D01*
D02*
G37*
G36*
X21453Y60639D02*
X21442Y60620D01*
X21432Y60598D01*
X21423Y60571D01*
X21416Y60541D01*
X21410Y60507D01*
X21403Y60427D01*
X21401Y60381D01*
X21400Y60331D01*
X20900D01*
X20899Y60381D01*
X20890Y60507D01*
X20884Y60541D01*
X20877Y60571D01*
X20868Y60598D01*
X20858Y60620D01*
X20847Y60639D01*
X20835Y60654D01*
X21465D01*
X21453Y60639D01*
D02*
G37*
G36*
X6378Y64064D02*
X6367Y64045D01*
X6357Y64023D01*
X6348Y63996D01*
X6341Y63966D01*
X6335Y63932D01*
X6328Y63852D01*
X6326Y63806D01*
X6325Y63756D01*
X5825D01*
X5824Y63806D01*
X5815Y63932D01*
X5809Y63966D01*
X5802Y63996D01*
X5793Y64023D01*
X5783Y64045D01*
X5772Y64064D01*
X5760Y64079D01*
X6390D01*
X6378Y64064D01*
D02*
G37*
G36*
X8457Y59772D02*
X8553Y59690D01*
X8581Y59670D01*
X8608Y59654D01*
X8633Y59641D01*
X8655Y59632D01*
X8676Y59627D01*
X8696Y59625D01*
X8250Y59180D01*
X8248Y59199D01*
X8243Y59220D01*
X8234Y59242D01*
X8221Y59267D01*
X8205Y59294D01*
X8185Y59322D01*
X8134Y59384D01*
X8103Y59418D01*
X8068Y59454D01*
X8421Y59807D01*
X8457Y59772D01*
D02*
G37*
G36*
X28875Y56361D02*
X28828Y56310D01*
X28786Y56256D01*
X28748Y56200D01*
X28716Y56141D01*
X28689Y56079D01*
X28667Y56014D01*
X28650Y55946D01*
X28639Y55876D01*
X28632Y55803D01*
X28630Y55728D01*
X27888Y56470D01*
X27963Y56472D01*
X28036Y56479D01*
X28106Y56490D01*
X28174Y56507D01*
X28239Y56529D01*
X28301Y56556D01*
X28360Y56588D01*
X28416Y56626D01*
X28470Y56668D01*
X28521Y56715D01*
X28875Y56361D01*
D02*
G37*
G36*
X40639Y57336D02*
X40602Y57365D01*
X40557Y57379D01*
X40504Y57379D01*
X40445Y57365D01*
X40378Y57337D01*
X40303Y57294D01*
X40222Y57237D01*
X40133Y57165D01*
X39933Y56979D01*
X39599Y57353D01*
X39698Y57455D01*
X39853Y57638D01*
X39909Y57719D01*
X39952Y57793D01*
X39981Y57860D01*
X39995Y57920D01*
X39996Y57973D01*
X39983Y58020D01*
X39956Y58059D01*
X40639Y57336D01*
D02*
G37*
D10*
X58160Y75460D02*
Y80700D01*
X56200Y73500D02*
X58160Y75460D01*
X50900Y58300D02*
X53610Y61010D01*
X43425Y64300D02*
X51835Y55890D01*
X57290D01*
X56200Y61942D02*
Y73500D01*
X53610Y61010D02*
X55268D01*
X56200Y61942D01*
X0Y0D02*
Y92000D01*
X80000D01*
Y0D02*
Y92000D01*
X0Y0D02*
X80000D01*
D31*
X29350Y82525D02*
Y83450D01*
X31525Y74900D02*
X32225D01*
X53000Y68500D02*
Y68600D01*
X50900Y58100D02*
Y58300D01*
X53000Y67300D02*
Y68500D01*
X38800Y53100D02*
X38900Y53000D01*
X10900Y76100D02*
X12125Y77325D01*
X14500D01*
X29350Y77050D02*
Y82525D01*
Y77050D02*
X31500Y74900D01*
X51600Y65900D02*
X53000Y67300D01*
X46100Y49720D02*
X47600Y51220D01*
Y52800D01*
X46300Y54100D02*
X47600Y52800D01*
X40100Y35100D02*
X42500D01*
X46100Y47800D02*
X48700Y50400D01*
Y51600D01*
X27400Y39450D02*
Y42540D01*
X27880Y43020D01*
X21150Y59125D02*
Y60975D01*
X6075Y61800D02*
X8700Y59175D01*
X6075Y61800D02*
Y64400D01*
X27880Y55720D02*
X29160Y57000D01*
X39600D01*
X27880Y45560D02*
X31695Y49375D01*
X42940Y49260D02*
X43400Y49720D01*
X31695Y49375D02*
X36550D01*
X36665Y49260D01*
X42940D01*
X46100Y47020D02*
Y47180D01*
Y47800D01*
X38475Y39075D02*
X40275Y40875D01*
X49450D01*
X49625Y41050D01*
X57290Y55890D02*
X57300Y55900D01*
X43400Y49720D02*
X46100Y47020D01*
X39600Y57000D02*
X40700Y58100D01*
X32225Y74900D02*
X32375Y75050D01*
D32*
X77600Y39400D02*
G03*
X77500Y39500I-100J0D01*
G01*
X52360Y49560D02*
G03*
X52300Y49500I0J-60D01*
G01*
X54750Y49560D02*
G03*
X54810Y49500I60J0D01*
G01*
X75500Y57200D02*
G03*
X75520Y57180I20J0D01*
G01*
X52400Y39400D02*
X54750D01*
X57000D01*
X60700Y80700D02*
Y82600D01*
Y78500D02*
Y80700D01*
X40700Y53000D02*
X40875D01*
X40800Y52925D02*
X40875Y53000D01*
X75600Y39500D02*
X77500D01*
X52360Y49560D02*
X54750D01*
X54810Y49500D02*
X57100D01*
X75520Y57180D02*
X77600D01*
D34*
X53080Y34980D02*
D03*
X73400D02*
D03*
X63240Y80700D02*
D03*
X65780D02*
D03*
X68320D02*
D03*
X70860D02*
D03*
X60700D02*
D03*
X58160D02*
D03*
X55620D02*
D03*
D35*
X76589Y32796D02*
D03*
X55761D02*
D03*
Y76484D02*
D03*
X76589D02*
D03*
D36*
X54750Y59720D02*
D03*
Y62260D02*
D03*
Y64800D02*
D03*
Y67340D02*
D03*
Y69880D02*
D03*
Y72420D02*
D03*
Y54640D02*
D03*
Y52100D02*
D03*
Y49560D02*
D03*
Y41940D02*
D03*
Y44480D02*
D03*
Y47020D02*
D03*
Y36860D02*
D03*
X77600Y59720D02*
D03*
Y62260D02*
D03*
Y64800D02*
D03*
Y67340D02*
D03*
Y69880D02*
D03*
Y72420D02*
D03*
Y54640D02*
D03*
Y52100D02*
D03*
Y49560D02*
D03*
Y41940D02*
D03*
Y44480D02*
D03*
Y47020D02*
D03*
Y36860D02*
D03*
D37*
X54750Y57180D02*
D03*
Y39400D02*
D03*
X77600Y57180D02*
D03*
Y39400D02*
D03*
D38*
X3500Y28800D02*
D03*
X7000D02*
D03*
X10500D02*
D03*
X14000D02*
D03*
X17500D02*
D03*
X21000D02*
D03*
X31500Y28800D02*
D03*
X35000D02*
D03*
X45500D02*
D03*
X49000D02*
D03*
X24500D02*
D03*
X28000D02*
D03*
X38500D02*
D03*
X42000D02*
D03*
D39*
X27880Y63340D02*
D03*
D40*
Y60800D02*
D03*
Y58260D02*
D03*
Y55720D02*
D03*
Y53180D02*
D03*
Y50640D02*
D03*
Y48100D02*
D03*
Y45560D02*
D03*
Y43020D02*
D03*
X35500Y63340D02*
D03*
Y60800D02*
D03*
Y58260D02*
D03*
Y55720D02*
D03*
Y53180D02*
D03*
Y50640D02*
D03*
Y48100D02*
D03*
Y45560D02*
D03*
X35590Y42780D02*
D03*
X40700Y55540D02*
D03*
Y53000D02*
D03*
Y50460D02*
D03*
Y45380D02*
D03*
Y47920D02*
D03*
X43400Y42100D02*
D03*
Y44640D02*
D03*
Y47180D02*
D03*
Y52260D02*
D03*
Y49720D02*
D03*
X46100Y42100D02*
D03*
Y44640D02*
D03*
Y47180D02*
D03*
Y52260D02*
D03*
Y49720D02*
D03*
D41*
X40700Y58080D02*
D03*
X43400Y39560D02*
D03*
X46100D02*
D03*
D42*
X77300Y11400D02*
D03*
Y13940D02*
D03*
Y15800D02*
D03*
Y18340D02*
D03*
Y20200D02*
D03*
Y22740D02*
D03*
Y24600D02*
D03*
Y27140D02*
D03*
D43*
X44100Y73600D02*
D03*
X33000Y77800D02*
D03*
X32100D02*
D03*
X31200D02*
D03*
X8700Y59175D02*
D03*
X31500Y74900D02*
D03*
X32375D02*
D03*
X29350Y83450D02*
D03*
Y82525D02*
D03*
X40175Y74775D02*
D03*
X51600Y65900D02*
D03*
X53000Y68500D02*
D03*
X48700Y51600D02*
D03*
X47500Y79600D02*
D03*
X46500D02*
D03*
X50300Y78100D02*
D03*
X48500Y79600D02*
D03*
X14500Y72700D02*
D03*
X14700Y70400D02*
D03*
X12825Y75200D02*
D03*
X13900Y70400D02*
D03*
X13100D02*
D03*
X50900Y58100D02*
D03*
X21500Y66800D02*
D03*
Y64500D02*
D03*
X17500Y57900D02*
D03*
X19500D02*
D03*
X49200Y35600D02*
D03*
X47400D02*
D03*
X50900Y34100D02*
D03*
X20100Y50100D02*
D03*
X5250Y54875D02*
D03*
X40400Y62800D02*
D03*
X38300Y52300D02*
D03*
X10900Y76100D02*
D03*
X43100Y64300D02*
D03*
X57300Y55900D02*
D03*
X16900Y79600D02*
D03*
Y78100D02*
D03*
X27800Y76900D02*
D03*
X48300Y35600D02*
D03*
X49625Y41050D02*
D03*
X42500Y35100D02*
D03*
X40100D02*
D03*
X38475Y39075D02*
D03*
X27400Y39450D02*
D03*
X21150Y60975D02*
D03*
Y58800D02*
D03*
X6075Y64400D02*
D03*
X5575Y60575D02*
D03*
D44*
X14500Y77325D02*
D03*
X46300Y54100D02*
D03*
M02*
